{
.appVersion = "3112";
customParameters = (
{
name = vendorID;
value = VTF;
},
{
name = localizedDesigner;
value = "French;Ange Degheest & Mandy Elbé";
},
{
name = license;
value = "SIL OFL";
},
{
name = licenseURL;
value = "https://scripts.sil.org/cms/scripts/page.php?item_id=OFL_web";
}
);
date = "2020-09-11 11:50:27 +0000";
disablesNiceNames = 1;
familyName = FT88;
featurePrefixes = (
{
automatic = 1;
code = "languagesystem DFLT dflt;\012";
name = Languagesystems;
}
);
features = (
{
automatic = 1;
code = "feature case;\012feature ss01;\012";
name = aalt;
},
{
automatic = 1;
code = "lookup ccmp_Other_1 {\012	@CombiningTopAccents = [acutecomb circumflexcomb dieresiscomb gravecomb ringcomb tildecomb];\012	@CombiningNonTopAccents = [cedillacomb];\012	sub [i]' @CombiningTopAccents by [idotless];\012	sub [i]' @CombiningNonTopAccents @CombiningTopAccents by [idotless];\012} ccmp_Other_1;\012";
name = ccmp;
},
{
automatic = 1;
code = "sub guillemotleft by guillemotleft.case;\012sub guillemotright by guillemotright.case;\012sub guilsinglleft by guilsinglleft.case;\012sub guilsinglright by guilsinglright.case;\012";
name = case;
},
{
automatic = 1;
code = "sub Aacute by Aacute.ss01;\012sub Acircumflex by Acircumflex.ss01;\012sub Adieresis by Adieresis.ss01;\012sub Agrave by Agrave.ss01;\012sub Aring by Aring.ss01;\012sub Atilde by Atilde.ss01;\012sub Eacute by Eacute.ss01;\012sub Ecircumflex by Ecircumflex.ss01;\012sub Edieresis by Edieresis.ss01;\012sub Egrave by Egrave.ss01;\012sub Iacute by Iacute.ss01;\012sub Icircumflex by Icircumflex.ss01;\012sub Idieresis by Idieresis.ss01;\012sub Igrave by Igrave.ss01;\012sub Ntilde by Ntilde.ss01;\012sub Oacute by Oacute.ss01;\012sub Ocircumflex by Ocircumflex.ss01;\012sub Ograve by Ograve.ss01;\012sub Uacute by Uacute.ss01;\012sub Ucircumflex by Ucircumflex.ss01;\012sub Udieresis by Udieresis.ss01;\012sub Ugrave by Ugrave.ss01;\012sub Yacute by Yacute.ss01;\012sub Ydieresis by Ydieresis.ss01;\012";
name = ss01;

glyphs = (
{
glyphname = A;
layers = (
{
hints = (
{
horizontal = 1;
place = "{200, 100}";
type = Stem;
},
{
horizontal = 1;
place = "{600, 100}";
type = Stem;
},
{
place = "{200, 300}";
type = Stem;
},
{
place = "{100, 100}";
type = Stem;
},
{
place = "{500, 100}";
type = Stem;
}
);
layerId = "32649BF3-7508-413C-B85E-1CA78B2743BE";
paths = (
{
closed = 1;
nodes = (
"200 700 LINE",
"200 600 LINE",
"500 600 LINE",
"500 700 LINE"
);
},
{
closed = 1;
nodes = (
"100 600 LINE",
"100 0 LINE",
"200 0 LINE",
"200 200 LINE",
"500 200 LINE",
"500 0 LINE",
"600 0 LINE",
"600 600 LINE",
"500 600 LINE",
"500 300 LINE",
"200 300 LINE",
"200 600 LINE"
);
}
);
width = 700;
}
);
note = A;
unicode = 0041;
},
{
glyphname = Aacute;
lastChange = "2021-04-25 08:51:41 +0000";
layers = (
{
layerId = "32649BF3-7508-413C-B85E-1CA78B2743BE";
paths = (
{
closed = 1;
nodes = (
"200 600 LINE",
"200 500 LINE",
"500 500 LINE",
"500 600 LINE"
);
},
{
closed = 1;
nodes = (
"100 500 LINE",
"100 0 LINE",
"200 0 LINE",
"200 200 LINE",
"500 200 LINE",
"500 0 LINE",
"600 0 LINE",
"600 500 LINE",
"500 500 LINE",
"500 300 LINE",
"200 300 LINE",
"200 500 LINE"
);
},
{
closed = 1;
nodes = (
"400 700 LINE",
"500 700 LINE",
"500 800 LINE",
"400 800 LINE"
);
},
{
closed = 1;
nodes = (
"300 600 LINE",
"400 600 LINE",
"400 700 LINE",
"300 700 LINE"
);
}
);
width = 700;
}
);
unicode = 00C1;
},
{
glyphname = Acircumflex;
lastChange = "2021-04-25 08:54:45 +0000";
layers = (
{
layerId = "32649BF3-7508-413C-B85E-1CA78B2743BE";
paths = (
{
closed = 1;
nodes = (
"200 600 LINE",
"200 500 LINE",
"500 500 LINE",
"500 600 LINE"
);
},
{
closed = 1;
nodes = (
"100 500 LINE",
"100 0 LINE",
"200 0 LINE",
"200 200 LINE",
"500 200 LINE",
"500 0 LINE",
"600 0 LINE",
"600 500 LINE",
"500 500 LINE",
"500 300 LINE",
"200 300 LINE",
"200 500 LINE"
);
},
{
closed = 1;
nodes = (
"300 700 LINE",
"400 700 LINE",
"400 800 LINE",
"300 800 LINE"
);
},
{
closed = 1;
nodes = (
"400 600 LINE",
"500 600 LINE",
"500 700 LINE",
"400 700 LINE"
);
},
{
closed = 1;
nodes = (
"200 600 LINE",
"300 600 LINE",
"300 700 LINE",
"200 700 LINE"
);
}
);
width = 700;
}
);
unicode = 00C2;
},
{
glyphname = Adieresis;
lastChange = "2021-04-25 08:55:19 +0000";
layers = (
{
layerId = "32649BF3-7508-413C-B85E-1CA78B2743BE";
paths = (
{
closed = 1;
nodes = (
"200 600 LINE",
"200 500 LINE",
"500 500 LINE",
"500 600 LINE"
);
},
{
closed = 1;
nodes = (
"100 500 LINE",
"100 0 LINE",
"200 0 LINE",
"200 200 LINE",
"500 200 LINE",
"500 0 LINE",
"600 0 LINE",
"600 500 LINE",
"500 500 LINE",
"500 300 LINE",
"200 300 LINE",
"200 500 LINE"
);
},
{
closed = 1;
nodes = (
"400 700 LINE",
"500 700 LINE",
"500 800 LINE",
"400 800 LINE"
);
},
{
closed = 1;
nodes = (
"200 700 LINE",
"300 700 LINE",
"300 800 LINE",
"200 800 LINE"
);
}
);
width = 700;
}
);
unicode = 00C4;
},
{
glyphname = Agrave;
lastChange = "2021-04-25 08:52:03 +0000";
layers = (
{
layerId = "32649BF3-7508-413C-B85E-1CA78B2743BE";
paths = (
{
closed = 1;
nodes = (
"200 600 LINE",
"200 500 LINE",
"500 500 LINE",
"500 600 LINE"
);
},
{
closed = 1;
nodes = (
"100 500 LINE",
"100 0 LINE",
"200 0 LINE",
"200 200 LINE",
"500 200 LINE",
"500 0 LINE",
"600 0 LINE",
"600 500 LINE",
"500 500 LINE",
"500 300 LINE",
"200 300 LINE",
"200 500 LINE"
);
},
{
closed = 1;
nodes = (
"200 700 LINE",
"300 700 LINE",
"300 800 LINE",
"200 800 LINE"
);
},
{
closed = 1;
nodes = (
"300 600 LINE",
"400 600 LINE",
"400 700 LINE",
"300 700 LINE"
);
}
);
width = 700;
}
);
unicode = 00C0;
},
{
glyphname = Aring;
lastChange = "2021-04-25 08:56:47 +0000";
layers = (
{
layerId = "32649BF3-7508-413C-B85E-1CA78B2743BE";
paths = (
{
closed = 1;
nodes = (
"200 600 LINE",
"200 500 LINE",
"500 500 LINE",
"500 600 LINE"
);
},
{
closed = 1;
nodes = (
"100 500 LINE",
"100 0 LINE",
"200 0 LINE",
"200 200 LINE",
"500 200 LINE",
"500 0 LINE",
"600 0 LINE",
"600 500 LINE",
"500 500 LINE",
"500 300 LINE",
"200 300 LINE",
"200 500 LINE"
);
},
{
closed = 1;
nodes = (
"400 700 LINE",
"500 700 LINE",
"500 800 LINE",
"400 800 LINE"
);
},
{
closed = 1;
nodes = (
"400 600 LINE",
"500 600 LINE",
"500 700 LINE",
"400 700 LINE"
);
},
{
closed = 1;
nodes = (
"200 600 LINE",
"300 600 LINE",
"300 800 LINE",
"200 800 LINE"
);
},
{
closed = 1;
nodes = (
"300 700 LINE",
"400 700 LINE",
"400 800 LINE",
"300 800 LINE"
);
}
);
width = 700;
}
);
unicode = 00C5;
},
{
glyphname = Atilde;
lastChange = "2021-04-25 08:57:45 +0000";
layers = (
{
layerId = "32649BF3-7508-413C-B85E-1CA78B2743BE";
paths = (
{
closed = 1;
nodes = (
"200 600 LINE",
"200 500 LINE",
"500 500 LINE",
"500 600 LINE"
);
},
{
closed = 1;
nodes = (
"100 500 LINE",
"100 0 LINE",
"200 0 LINE",
"200 200 LINE",
"500 200 LINE",
"500 0 LINE",
"600 0 LINE",
"600 500 LINE",
"500 500 LINE",
"500 300 LINE",
"200 300 LINE",
"200 500 LINE"
);
},
{
closed = 1;
nodes = (
"200 600 LINE",
"300 600 LINE",
"300 700 LINE",
"200 700 LINE"
);
},
{
closed = 1;
nodes = (
"300 700 LINE",
"400 700 LINE",
"400 800 LINE",
"300 800 LINE"
);
},
{
closed = 1;
nodes = (
"400 600 LINE",
"500 600 LINE",
"500 700 LINE",
"400 700 LINE"
);
},
{
closed = 1;
nodes = (
"500 700 LINE",
"600 700 LINE",
"600 800 LINE",
"500 800 LINE"
);
}
);
width = 700;
}
);
unicode = 00C3;
},
{
glyphname = AE;
lastChange = "2021-04-25 08:59:38 +0000";
layers = (
{
layerId = "32649BF3-7508-413C-B85E-1CA78B2743BE";
paths = (
{
closed = 1;
nodes = (
"200 700 LINE",
"200 600 LINE",
"400 600 LINE",
"400 400 LINE",
"400 0 LINE",
"700 0 LINE",
"700 100 LINE",
"500 100 LINE",
"500 300 LINE",
"700 300 LINE",
"700 400 LINE",
"500 400 LINE",
"500 600 LINE",
"700 600 LINE",
"700 700 LINE"
);
},
{
closed = 1;
nodes = (
"200 0 LINE"
);
},
{
closed = 1;
nodes = (
"100 600 LINE",
"100 0 LINE",
"200 0 LINE",
"200 200 LINE",
"400 200 LINE",
"400 0 LINE",
"500 0 LINE",
"500 600 LINE",
"400 600 LINE",
"400 300 LINE",
"200 300 LINE",
"200 600 LINE"
);
}
);
width = 700;
}
);
unicode = 00C6;
},
{
glyphname = B;
layers = (
{
hints = (
{
horizontal = 1;
place = "{0, 100}";
type = Stem;
},
{
horizontal = 1;
place = "{300, 100}";
type = Stem;
},
{
horizontal = 1;
place = "{600, 100}";
type = Stem;
},
{
place = "{100, 100}";
type = Stem;
},
{
place = "{500, 100}";
type = Stem;
},
{
horizontal = 1;
place = "{100, 200}";
type = Stem;
},
{
horizontal = 1;
place = "{400, 200}";
type = Stem;
}
);
layerId = "32649BF3-7508-413C-B85E-1CA78B2743BE";
paths = (
{
closed = 1;
nodes = (
"500 400 LINE",
"200 400 LINE",
"200 600 LINE",
"500 600 LINE",
"500 700 LINE",
"100 700 LINE",
"100 0 LINE",
"500 0 LINE",
"500 100 LINE",
"200 100 LINE",
"200 300 LINE",
"500 300 LINE"
);
},
{
closed = 1;
nodes = (
"500 600 LINE",
"500 400 LINE",
"600 400 LINE",
"600 600 LINE"
);
},
{
closed = 1;
nodes = (
"500 100 LINE",
"600 100 LINE",
"600 300 LINE",
"500 300 LINE"
);
}
);
width = 700;
}
);
note = B;
unicode = 0042;
},
{
glyphname = C;
layers = (
{
hints = (
{
horizontal = 1;
place = "{0, 100}";
type = Stem;
},
{
horizontal = 1;
place = "{600, 100}";
type = Stem;
},
{
place = "{200, 300}";
type = Stem;
},
{
place = "{100, 100}";
type = Stem;
},
{
place = "{500, 100}";
type = Stem;
},
{
horizontal = 1;
place = "{100, 100}";
type = Stem;
},
{
horizontal = 1;
place = "{500, 100}";
type = Stem;
}
);
layerId = "32649BF3-7508-413C-B85E-1CA78B2743BE";
paths = (
{
closed = 1;
nodes = (
"500 700 LINE",
"200 700 LINE",
"200 600 LINE",
"500 600 LINE"
);
},
{
closed = 1;
nodes = (
"100 600 LINE",
"100 100 LINE",
"200 100 LINE",
"200 600 LINE"
);
},
{
closed = 1;
nodes = (
"600 500 LINE",
"600 600 LINE",
"500 600 LINE",
"500 500 LINE"
);
},
{
closed = 1;
nodes = (
"600 200 LINE",
"500 200 LINE",
"500 100 LINE",
"600 100 LINE"
);
},
{
closed = 1;
nodes = (
"200 0 LINE",
"500 0 LINE",
"500 100 LINE",
"200 100 LINE"
);
}
);
width = 700;
}
);
note = C;
unicode = 0043;
},
{
glyphname = Ccedilla;
lastChange = "2021-04-25 09:02:14 +0000";
layers = (
{
layerId = "32649BF3-7508-413C-B85E-1CA78B2743BE";
paths = (
{
closed = 1;
nodes = (
"200 700 LINE",
"200 600 LINE",
"500 600 LINE",
"500 700 LINE"
);
},
{
closed = 1;
nodes = (
"500 600 LINE",
"500 500 LINE",
"600 500 LINE",
"600 600 LINE"
);
},
{
closed = 1;
nodes = (
"200 600 LINE",
"100 600 LINE",
"100 100 LINE",
"200 100 LINE"
);
},
{
closed = 1;
nodes = (
"200 100 LINE",
"200 0 LINE",
"500 0 LINE",
"500 100 LINE"
);
},
{
closed = 1;
nodes = (
"500 100 LINE",
"600 100 LINE",
"600 200 LINE",
"500 200 LINE"
);
},
{
closed = 1;
nodes = (
"300 0 LINE",
"300 -100 LINE",
"400 -100 LINE",
"400 0 LINE"
);
},
{
closed = 1;
nodes = (
"200 -200 LINE",
"300 -200 LINE",
"300 -100 LINE",
"200 -100 LINE"
);
}
);
width = 700;
},
{
associatedMasterId = "32649BF3-7508-413C-B85E-1CA78B2743BE";
layerId = "95EBCC5A-8F7A-4664-93BF-AC5DA983D863";
name = "Apr 25 21, 11:01";
paths = (
{
closed = 1;
nodes = (
"200 700 LINE",
"200 600 LINE",
"500 600 LINE",
"500 700 LINE"
);
},
{
closed = 1;
nodes = (
"500 600 LINE",
"500 500 LINE",
"600 500 LINE",
"600 600 LINE"
);
},
{
closed = 1;
nodes = (
"200 600 LINE",
"100 600 LINE",
"100 100 LINE",
"200 100 LINE"
);
},
{
closed = 1;
nodes = (
"200 100 LINE",
"200 0 LINE",
"500 0 LINE",
"500 100 LINE"
);
},
{
closed = 1;
nodes = (
"500 100 LINE",
"600 100 LINE",
"600 200 LINE",
"500 200 LINE"
);
},
{
closed = 1;
nodes = (
"300 0 LINE",
"300 -100 LINE",
"400 -100 LINE",
"400 0 LINE"
);
},
{
closed = 1;
nodes = (
"200 -200 LINE",
"300 -200 LINE",
"300 -100 LINE",
"200 -100 LINE"
);
},
{
closed = 1;
nodes = (
"100 -100 LINE",
"200 -100 LINE",
"200 0 LINE",
"100 0 LINE"
);
}
);
width = 700;
}
);
unicode = 00C7;
},
{
glyphname = D;
layers = (
{
hints = (
{
horizontal = 1;
place = "{0, 100}";
type = Stem;
},
{
horizontal = 1;
place = "{600, 100}";
type = Stem;
},
{
place = "{100, 100}";
type = Stem;
},
{
place = "{500, 100}";
type = Stem;
}
);
layerId = "32649BF3-7508-413C-B85E-1CA78B2743BE";
paths = (
{
closed = 1;
nodes = (
"100 700 LINE",
"100 0 LINE",
"500 0 LINE",
"500 100 LINE",
"200 100 LINE",
"200 600 LINE",
"500 600 LINE",
"500 700 LINE"
);
},
{
closed = 1;
nodes = (
"500 600 LINE",
"500 100 LINE",
"600 100 LINE",
"600 600 LINE"
);
}
);
width = 700;
}
);
note = D;
unicode = 0044;
},
{
glyphname = E;
layers = (
{
hints = (
{
horizontal = 1;
place = "{0, 100}";
type = Stem;
},
{
horizontal = 1;
place = "{300, 100}";
type = Stem;
},
{
horizontal = 1;
place = "{600, 100}";
type = Stem;
},
{
place = "{100, 100}";
type = Stem;
}
);
layerId = "32649BF3-7508-413C-B85E-1CA78B2743BE";
paths = (
{
closed = 1;
nodes = (
"100 700 LINE",
"100 0 LINE",
"600 0 LINE",
"600 100 LINE",
"200 100 LINE",
"200 300 LINE",
"400 300 LINE",
"400 400 LINE",
"200 400 LINE",
"200 600 LINE",
"600 600 LINE",
"600 700 LINE"
);
}
);
width = 700;
}
);
note = E;
unicode = 0045;
},
{
glyphname = Eacute;
lastChange = "2021-04-25 09:04:13 +0000";
layers = (
{
layerId = "32649BF3-7508-413C-B85E-1CA78B2743BE";
paths = (
{
closed = 1;
nodes = (
"100 600 LINE",
"100 0 LINE",
"600 0 LINE",
"600 100 LINE",
"200 100 LINE",
"200 200 LINE",
"400 200 LINE",
"400 300 LINE",
"200 300 LINE",
"200 500 LINE",
"600 500 LINE",
"600 600 LINE"
);
},
{
closed = 1;
nodes = (
"400 700 LINE",
"500 700 LINE",
"500 800 LINE",
"400 800 LINE"
);
},
{
closed = 1;
nodes = (
"300 600 LINE",
"400 600 LINE",
"400 700 LINE",
"300 700 LINE"
);
}
);
width = 700;
}
);
unicode = 00C9;
},
{
glyphname = Ecircumflex;
lastChange = "2021-04-25 09:06:26 +0000";
layers = (
{
layerId = "32649BF3-7508-413C-B85E-1CA78B2743BE";
paths = (
{
closed = 1;
nodes = (
"100 600 LINE",
"100 0 LINE",
"600 0 LINE",
"600 100 LINE",
"200 100 LINE",
"200 200 LINE",
"400 200 LINE",
"400 300 LINE",
"200 300 LINE",
"200 500 LINE",
"600 500 LINE",
"600 600 LINE"
);
},
{
closed = 1;
nodes = (
"300 700 LINE",
"400 700 LINE",
"400 800 LINE",
"300 800 LINE"
);
},
{
closed = 1;
nodes = (
"200 600 LINE",
"300 600 LINE",
"300 700 LINE",
"200 700 LINE"
);
},
{
closed = 1;
nodes = (
"400 600 LINE",
"500 600 LINE",
"500 700 LINE",
"400 700 LINE"
);
}
);
width = 700;
}
);
unicode = 00CA;
},
{
glyphname = Edieresis;
lastChange = "2021-04-25 09:06:59 +0000";
layers = (
{
layerId = "32649BF3-7508-413C-B85E-1CA78B2743BE";
paths = (
{
closed = 1;
nodes = (
"100 600 LINE",
"100 0 LINE",
"600 0 LINE",
"600 100 LINE",
"200 100 LINE",
"200 200 LINE",
"400 200 LINE",
"400 300 LINE",
"200 300 LINE",
"200 500 LINE",
"600 500 LINE",
"600 600 LINE"
);
},
{
closed = 1;
nodes = (
"400 700 LINE",
"500 700 LINE",
"500 800 LINE",
"400 800 LINE"
);
},
{
closed = 1;
nodes = (
"200 700 LINE",
"300 700 LINE",
"300 800 LINE",
"200 800 LINE"
);
}
);
width = 700;
}
);
unicode = 00CB;
},
{
glyphname = Egrave;
lastChange = "2021-04-25 09:08:17 +0000";
layers = (
{
layerId = "32649BF3-7508-413C-B85E-1CA78B2743BE";
paths = (
{
closed = 1;
nodes = (
"100 600 LINE",
"100 0 LINE",
"600 0 LINE",
"600 100 LINE",
"200 100 LINE",
"200 200 LINE",
"400 200 LINE",
"400 300 LINE",
"200 300 LINE",
"200 500 LINE",
"600 500 LINE",
"600 600 LINE"
);
},
{
closed = 1;
nodes = (
"300 600 LINE",
"400 600 LINE",
"400 700 LINE",
"300 700 LINE"
);
},
{
closed = 1;
nodes = (
"200 700 LINE",
"300 700 LINE",
"300 800 LINE",
"200 800 LINE"
);
}
);
width = 700;
}
);
unicode = 00C8;
},
{
glyphname = F;
layers = (
{
hints = (
{
horizontal = 1;
place = "{300, 100}";
type = Stem;
},
{
horizontal = 1;
place = "{600, 100}";
type = Stem;
},
{
place = "{100, 100}";
type = Stem;
}
);
layerId = "32649BF3-7508-413C-B85E-1CA78B2743BE";
paths = (
{
closed = 1;
nodes = (
"100 700 LINE",
"100 0 LINE",
"200 0 LINE",
"200 300 LINE",
"400 300 LINE",
"400 400 LINE",
"200 400 LINE",
"200 600 LINE",
"600 600 LINE",
"600 700 LINE"
);
}
);
width = 700;
}
);
note = F;
unicode = 0046;
},
{
glyphname = G;
layers = (
{
hints = (
{
horizontal = 1;
place = "{0, 100}";
type = Stem;
},
{
horizontal = 1;
place = "{200, 100}";
type = Stem;
},
{
horizontal = 1;
place = "{600, 100}";
type = Stem;
},
{
place = "{200, 300}";
type = Stem;
},
{
place = "{100, 100}";
type = Stem;
},
{
place = "{500, 100}";
type = Stem;
},
{
horizontal = 1;
place = "{500, 100}";
type = Stem;
}
);
layerId = "32649BF3-7508-413C-B85E-1CA78B2743BE";
paths = (
{
closed = 1;
nodes = (
"500 700 LINE",
"200 700 LINE",
"200 600 LINE",
"500 600 LINE"
);
},
{
closed = 1;
nodes = (
"100 600 LINE",
"100 100 LINE",
"200 100 LINE",
"200 600 LINE"
);
},
{
closed = 1;
nodes = (
"600 500 LINE",
"600 600 LINE",
"500 600 LINE",
"500 500 LINE"
);
},
{
closed = 1;
nodes = (
"200 0 LINE",
"600 0 LINE",
"600 300 LINE",
"400 300 LINE",
"400 200 LINE",
"500 200 LINE",
"500 100 LINE",
"200 100 LINE"
);
}
);
width = 700;
}
);
note = G;
unicode = 0047;
},
{
glyphname = H;
layers = (
{
hints = (
{
horizontal = 1;
place = "{300, 100}";
type = Stem;
},
{
place = "{100, 100}";
type = Stem;
},
{
place = "{500, 100}";
type = Stem;
}
);
layerId = "32649BF3-7508-413C-B85E-1CA78B2743BE";
paths = (
{
closed = 1;
nodes = (
"500 700 LINE",
"500 400 LINE",
"200 400 LINE",
"200 700 LINE",
"100 700 LINE",
"100 0 LINE",
"200 0 LINE",
"200 300 LINE",
"500 300 LINE",
"500 0 LINE",
"600 0 LINE",
"600 700 LINE"
);
}
);
width = 700;
}
);
note = H;
unicode = 0048;
},
{
glyphname = I;
lastChange = "2021-04-25 09:09:25 +0000";
layers = (
{
hints = (
{
horizontal = 1;
place = "{0, 100}";
type = Stem;
},
{
horizontal = 1;
place = "{600, 100}";
type = Stem;
},
{
place = "{200, 100}";
type = Stem;
}
);
layerId = "32649BF3-7508-413C-B85E-1CA78B2743BE";
paths = (
{
closed = 1;
nodes = (
"200 100 LINE",
"200 0 LINE",
"500 0 LINE",
"500 100 LINE",
"400 100 LINE",
"400 600 LINE",
"500 600 LINE",
"500 700 LINE",
"200 700 LINE",
"200 600 LINE",
"300 600 LINE",
"300 100 LINE"
);
}
);
width = 700;
}
);
note = I;
unicode = 0049;
},
{
glyphname = IJ;
lastChange = "2021-04-25 08:45:15 +0000";
layers = (
{
layerId = "32649BF3-7508-413C-B85E-1CA78B2743BE";
paths = (
{
closed = 1;
nodes = (
"100 700 LINE",
"100 600 LINE",
"200 600 LINE",
"200 100 LINE",
"100 100 LINE",
"100 0 LINE",
"300 0 LINE",
"300 600 LINE",
"300 700 LINE"
);
},
{
closed = 1;
nodes = (
"400 700 LINE",
"400 600 LINE",
"500 600 LINE",
"500 100 LINE",
"600 100 LINE",
"600 600 LINE",
"700 600 LINE",
"700 700 LINE"
);
},
{
closed = 1;
nodes = (
"500 100 LINE",
"400 100 LINE",
"400 0 LINE",
"500 0 LINE"
);
}
);
width = 700;
},
{
associatedMasterId = "32649BF3-7508-413C-B85E-1CA78B2743BE";
layerId = "42D215D2-1841-49E2-BA8B-9B6822924F80";
name = "Apr 25 21, 10:43";
paths = (
{
closed = 1;
nodes = (
"100 700 LINE",
"100 600 LINE",
"200 600 LINE",
"200 100 LINE",
"100 100 LINE",
"100 0 LINE",
"300 0 LINE",
"300 100 LINE",
"300 100 LINE",
"300 600 LINE",
"300 600 LINE",
"300 700 LINE"
);
},
{
closed = 1;
nodes = (
"400 700 LINE",
"400 600 LINE",
"500 600 LINE",
"500 100 LINE",
"600 100 LINE",
"600 600 LINE",
"700 600 LINE",
"700 700 LINE"
);
},
{
closed = 1;
nodes = (
"500 100 LINE",
"400 100 LINE",
"400 0 LINE",
"500 0 LINE"
);
}
);
width = 700;
},
{
associatedMasterId = "32649BF3-7508-413C-B85E-1CA78B2743BE";
layerId = "CBCDCF23-7CE2-4C5F-A7B4-AA647116D6AC";
name = "Apr 25 21, 10:44";
paths = (
{
closed = 1;
nodes = (
"100 700 LINE",
"100 600 LINE",
"200 600 LINE",
"200 100 LINE",
"300 100 LINE",
"300 0 LINE",
"400 0 LINE",
"400 100 LINE",
"300 100 LINE",
"300 600 LINE",
"300 600 LINE",
"300 700 LINE"
);
},
{
closed = 1;
nodes = (
"400 700 LINE",
"400 600 LINE",
"500 600 LINE",
"500 100 LINE",
"600 100 LINE",
"600 600 LINE",
"700 600 LINE",
"700 700 LINE"
);
},
{
closed = 1;
nodes = (
"500 100 LINE",
"400 100 LINE",
"400 0 LINE",
"500 0 LINE"
);
},
{
closed = 1;
nodes = (
"100 0 LINE",
"200 0 LINE",
"200 100 LINE",
"100 100 LINE"
);
}
);
width = 700;
}
);
unicode = 0132;
},
{
glyphname = Iacute;
lastChange = "2021-04-25 09:10:30 +0000";
layers = (
{
layerId = "32649BF3-7508-413C-B85E-1CA78B2743BE";
paths = (
{
closed = 1;
nodes = (
"200 100 LINE",
"200 0 LINE",
"500 0 LINE",
"500 100 LINE",
"400 100 LINE",
"400 500 LINE",
"500 500 LINE",
"500 600 LINE",
"200 600 LINE",
"200 500 LINE",
"300 500 LINE",
"300 100 LINE"
);
},
{
closed = 1;
nodes = (
"300 600 LINE",
"400 600 LINE",
"400 700 LINE",
"300 700 LINE"
);
},
{
closed = 1;
nodes = (
"400 700 LINE",
"500 700 LINE",
"500 800 LINE",
"400 800 LINE"
);
}
);
width = 700;
}
);
unicode = 00CD;
},
{
glyphname = Icircumflex;
lastChange = "2021-04-25 09:11:16 +0000";
layers = (
{
layerId = "32649BF3-7508-413C-B85E-1CA78B2743BE";
paths = (
{
closed = 1;
nodes = (
"200 100 LINE",
"200 0 LINE",
"500 0 LINE",
"500 100 LINE",
"400 100 LINE",
"400 500 LINE",
"500 500 LINE",
"500 600 LINE",
"200 600 LINE",
"200 500 LINE",
"300 500 LINE",
"300 100 LINE"
);
},
{
closed = 1;
nodes = (
"300 700 LINE",
"400 700 LINE",
"400 800 LINE",
"300 800 LINE"
);
},
{
closed = 1;
nodes = (
"200 600 LINE",
"300 600 LINE",
"300 700 LINE",
"200 700 LINE"
);
},
{
closed = 1;
nodes = (
"400 600 LINE",
"500 600 LINE",
"500 700 LINE",
"400 700 LINE"
);
}
);
width = 700;
}
);
unicode = 00CE;
},
{
glyphname = Idieresis;
lastChange = "2021-04-25 09:11:47 +0000";
layers = (
{
layerId = "32649BF3-7508-413C-B85E-1CA78B2743BE";
paths = (
{
closed = 1;
nodes = (
"200 100 LINE",
"200 0 LINE",
"500 0 LINE",
"500 100 LINE",
"400 100 LINE",
"400 500 LINE",
"500 500 LINE",
"500 600 LINE",
"200 600 LINE",
"200 500 LINE",
"300 500 LINE",
"300 100 LINE"
);
},
{
closed = 1;
nodes = (
"200 700 LINE",
"300 700 LINE",
"300 800 LINE",
"200 800 LINE"
);
},
{
closed = 1;
nodes = (
"400 700 LINE",
"500 700 LINE",
"500 800 LINE",
"400 800 LINE"
);
}
);
width = 700;
}
);
unicode = 00CF;
},
{
glyphname = Igrave;
lastChange = "2021-04-25 09:12:02 +0000";
layers = (
{
layerId = "32649BF3-7508-413C-B85E-1CA78B2743BE";
paths = (
{
closed = 1;
nodes = (
"200 100 LINE",
"200 0 LINE",
"500 0 LINE",
"500 100 LINE",
"400 100 LINE",
"400 500 LINE",
"500 500 LINE",
"500 600 LINE",
"200 600 LINE",
"200 500 LINE",
"300 500 LINE",
"300 100 LINE"
);
},
{
closed = 1;
nodes = (
"200 700 LINE",
"300 700 LINE",
"300 800 LINE",
"200 800 LINE"
);
},
{
closed = 1;
nodes = (
"300 600 LINE",
"400 600 LINE",
"400 700 LINE",
"300 700 LINE"
);
}
);
width = 700;
}
);
unicode = 00CC;
},
{
glyphname = J;
layers = (
{
hints = (
{
horizontal = 1;
place = "{0, 100}";
type = Stem;
},
{
horizontal = 1;
place = "{600, 100}";
type = Stem;
},
{
place = "{100, 100}";
type = Stem;
},
{
place = "{400, 100}";
type = Stem;
},
{
horizontal = 1;
place = "{100, 100}";
type = Stem;
},
{
place = "{200, 200}";
type = Stem;
}
);
layerId = "32649BF3-7508-413C-B85E-1CA78B2743BE";
paths = (
{
closed = 1;
nodes = (
"600 700 LINE",
"300 700 LINE",
"300 600 LINE",
"400 600 LINE",
"400 100 LINE",
"500 100 LINE",
"500 600 LINE",
"600 600 LINE"
);
},
{
closed = 1;
nodes = (
"100 200 LINE",
"100 100 LINE",
"200 100 LINE",
"200 200 LINE"
);
},
{
closed = 1;
nodes = (
"200 100 LINE",
"200 0 LINE",
"400 0 LINE",
"400 100 LINE"
);
}
);
width = 700;
}
);
note = J;
unicode = 004A;
},
{
glyphname = K;
layers = (
{
hints = (
{
horizontal = 1;
place = "{300, 100}";
type = Stem;
},
{
horizontal = 1;
place = "{600, 100}";
type = Stem;
},
{
place = "{100, 100}";
type = Stem;
},
{
place = "{500, 100}";
type = Stem;
},
{
horizontal = 1;
place = "{500, 100}";
type = Stem;
},
{
place = "{400, 100}";
type = Stem;
},
{
horizontal = 1;
place = "{200, 100}";
type = Stem;
},
{
horizontal = 1;
place = "{400, 100}";
type = Stem;
},
{
place = "{300, 100}";
type = Stem;
},
{
horizontal = 1;
place = "{100, 100}";
type = Stem;
},
{
horizontal = 1;
place = "{0, 100}";
type = Stem;
}
);
layerId = "32649BF3-7508-413C-B85E-1CA78B2743BE";
paths = (
{
closed = 1;
nodes = (
"200 400 LINE",
"200 700 LINE",
"100 700 LINE",
"100 0 LINE",
"200 0 LINE",
"200 300 LINE",
"300 300 LINE",
"300 400 LINE"
);
},
{
closed = 1;
nodes = (
"600 700 LINE",
"500 700 LINE",
"500 600 LINE",
"600 600 LINE"
);
},
{
closed = 1;
nodes = (
"500 600 LINE",
"400 600 LINE",
"400 500 LINE",
"500 500 LINE"
);
},
{
closed = 1;
nodes = (
"400 500 LINE",
"300 500 LINE",
"300 400 LINE",
"400 400 LINE"
);
},
{
closed = 1;
nodes = (
"400 200 LINE",
"400 300 LINE",
"300 300 LINE",
"300 200 LINE"
);
},
{
closed = 1;
nodes = (
"500 100 LINE",
"500 200 LINE",
"400 200 LINE",
"400 100 LINE"
);
},
{
closed = 1;
nodes = (
"600 0 LINE",
"600 100 LINE",
"500 100 LINE",
"500 0 LINE"
);
}
);
width = 700;
}
);
note = K;
unicode = 004B;
},
{
glyphname = L;
layers = (
{
hints = (
{
horizontal = 1;
place = "{0, 100}";
type = Stem;
},
{
place = "{100, 100}";
type = Stem;
}
);
layerId = "32649BF3-7508-413C-B85E-1CA78B2743BE";
paths = (
{
closed = 1;
nodes = (
"600 100 LINE",
"200 100 LINE",
"200 700 LINE",
"100 700 LINE",
"100 0 LINE",
"600 0 LINE"
);
}
);
width = 700;
}
);
note = L;
unicode = 004C;
},
{
glyphname = M;
layers = (
{
hints = (
{
horizontal = 1;
place = "{500, 100}";
type = Stem;
},
{
place = "{100, 100}";
type = Stem;
},
{
place = "{300, 100}";
type = Stem;
},
{
horizontal = 1;
place = "{400, 100}";
type = Stem;
},
{
place = "{500, 100}";
type = Stem;
}
);
layerId = "32649BF3-7508-413C-B85E-1CA78B2743BE";
paths = (
{
closed = 1;
nodes = (
"100 700 LINE",
"100 0 LINE",
"200 0 LINE",
"200 500 LINE",
"300 500 LINE",
"300 600 LINE",
"200 600 LINE",
"200 700 LINE"
);
},
{
closed = 1;
nodes = (
"400 600 LINE",
"400 500 LINE",
"500 500 LINE",
"500 0 LINE",
"600 0 LINE",
"600 700 LINE",
"500 700 LINE",
"500 600 LINE"
);
},
{
closed = 1;
nodes = (
"300 500 LINE",
"300 400 LINE",
"400 400 LINE",
"400 500 LINE"
);
}
);
width = 700;
}
);
note = M;
unicode = 004D;
},
{
glyphname = N;
layers = (
{
hints = (
{
horizontal = 1;
place = "{200, 100}";
type = Stem;
},
{
horizontal = 1;
place = "{400, 100}";
type = Stem;
},
{
place = "{100, 100}";
type = Stem;
},
{
place = "{300, 100}";
type = Stem;
},
{
place = "{500, 100}";
type = Stem;
},
{
horizontal = 1;
place = "{300, 100}";
type = Stem;
}
);
layerId = "32649BF3-7508-413C-B85E-1CA78B2743BE";
paths = (
{
closed = 1;
nodes = (
"100 700 LINE",
"100 0 LINE",
"200 0 LINE",
"200 400 LINE",
"300 400 LINE",
"300 500 LINE",
"200 500 LINE",
"200 700 LINE"
);
},
{
closed = 1;
nodes = (
"400 300 LINE",
"400 200 LINE",
"500 200 LINE",
"500 0 LINE",
"600 0 LINE",
"600 700 LINE",
"500 700 LINE",
"500 300 LINE"
);
},
{
closed = 1;
nodes = (
"300 400 LINE",
"300 300 LINE",
"400 300 LINE",
"400 400 LINE"
);
}
);
width = 700;
}
);
note = N;
unicode = 004E;
},
{
glyphname = Ntilde;
lastChange = "2021-04-25 09:13:03 +0000";
layers = (
{
layerId = "32649BF3-7508-413C-B85E-1CA78B2743BE";
paths = (
{
closed = 1;
nodes = (
"100 600 LINE",
"100 0 LINE",
"200 0 LINE",
"200 400 LINE",
"300 400 LINE",
"300 500 LINE",
"200 500 LINE",
"200 600 LINE"
);
},
{
closed = 1;
nodes = (
"400 300 LINE",
"400 200 LINE",
"500 200 LINE",
"500 0 LINE",
"600 0 LINE",
"600 600 LINE",
"500 600 LINE",
"500 300 LINE"
);
},
{
closed = 1;
nodes = (
"300 400 LINE",
"300 300 LINE",
"400 300 LINE",
"400 400 LINE"
);
},
{
closed = 1;
nodes = (
"200 600 LINE",
"300 600 LINE",
"300 700 LINE",
"200 700 LINE"
);
},
{
closed = 1;
nodes = (
"300 700 LINE",
"400 700 LINE",
"400 800 LINE",
"300 800 LINE"
);
},
{
closed = 1;
nodes = (
"400 600 LINE",
"500 600 LINE",
"500 700 LINE",
"400 700 LINE"
);
},
{
closed = 1;
nodes = (
"500 700 LINE",
"600 700 LINE",
"600 800 LINE",
"500 800 LINE"
);
}
);
width = 700;
},
{
associatedMasterId = "32649BF3-7508-413C-B85E-1CA78B2743BE";
layerId = "EF9B1BE1-72B1-4DB0-A383-A366E709F4DF";
name = "Apr 25 21, 11:12";
paths = (
{
closed = 1;
nodes = (
"100 600 LINE",
"100 0 LINE",
"200 0 LINE",
"200 400 LINE",
"300 400 LINE",
"300 500 LINE",
"200 500 LINE",
"200 600 LINE"
);
},
{
closed = 1;
nodes = (
"400 300 LINE",
"400 200 LINE",
"500 200 LINE",
"500 0 LINE",
"600 0 LINE",
"600 600 LINE",
"500 600 LINE",
"500 300 LINE"
);
},
{
closed = 1;
nodes = (
"300 400 LINE",
"300 300 LINE",
"400 300 LINE",
"400 400 LINE"
);
},
{
closed = 1;
nodes = (
"200 600 LINE",
"300 600 LINE",
"300 700 LINE",
"200 700 LINE"
);
},
{
closed = 1;
nodes = (
"300 700 LINE",
"400 700 LINE",
"400 800 LINE",
"300 800 LINE"
);
},
{
closed = 1;
nodes = (
"400 600 LINE",
"500 600 LINE",
"500 700 LINE",
"400 700 LINE"
);
},
{
closed = 1;
nodes = (
"500 700 LINE",
"600 700 LINE",
"600 800 LINE",
"500 800 LINE"
);
}
);
width = 700;
}
);
unicode = 00D1;
},
{
glyphname = O;
layers = (
{
hints = (
{
horizontal = 1;
place = "{0, 100}";
type = Stem;
},
{
horizontal = 1;
place = "{600, 100}";
type = Stem;
},
{
place = "{200, 300}";
type = Stem;
},
{
place = "{100, 100}";
type = Stem;
},
{
place = "{500, 100}";
type = Stem;
}
);
layerId = "32649BF3-7508-413C-B85E-1CA78B2743BE";
paths = (
{
closed = 1;
nodes = (
"200 600 LINE",
"500 600 LINE",
"500 700 LINE",
"200 700 LINE"
);
},
{
closed = 1;
nodes = (
"200 100 LINE",
"200 600 LINE",
"100 600 LINE",
"100 100 LINE"
);
},
{
closed = 1;
nodes = (
"500 600 LINE",
"500 100 LINE",
"600 100 LINE",
"600 600 LINE"
);
},
{
closed = 1;
nodes = (
"500 100 LINE",
"200 100 LINE",
"200 0 LINE",
"500 0 LINE"
);
}
);
width = 700;
}
);
note = O;
unicode = 004F;
},
{
glyphname = Oacute;
lastChange = "2021-04-25 09:14:33 +0000";
layers = (
{
layerId = "32649BF3-7508-413C-B85E-1CA78B2743BE";
paths = (
{
closed = 1;
nodes = (
"200 500 LINE",
"500 500 LINE",
"500 600 LINE",
"200 600 LINE"
);
},
{
closed = 1;
nodes = (
"200 100 LINE",
"200 500 LINE",
"100 500 LINE",
"100 100 LINE"
);
},
{
closed = 1;
nodes = (
"500 500 LINE",
"500 100 LINE",
"600 100 LINE",
"600 500 LINE"
);
},
{
closed = 1;
nodes = (
"500 100 LINE",
"200 100 LINE",
"200 0 LINE",
"500 0 LINE"
);
},
{
closed = 1;
nodes = (
"300 600 LINE",
"400 600 LINE",
"400 700 LINE",
"300 700 LINE"
);
},
{
closed = 1;
nodes = (
"400 700 LINE",
"500 700 LINE",
"500 800 LINE",
"400 800 LINE"
);
}
);
width = 700;
}
);
unicode = 00D3;
},
{
glyphname = Ocircumflex;
lastChange = "2021-04-25 09:15:27 +0000";
layers = (
{
layerId = "32649BF3-7508-413C-B85E-1CA78B2743BE";
paths = (
{
closed = 1;
nodes = (
"200 500 LINE",
"500 500 LINE",
"500 600 LINE",
"200 600 LINE"
);
},
{
closed = 1;
nodes = (
"200 100 LINE",
"200 500 LINE",
"100 500 LINE",
"100 100 LINE"
);
},
{
closed = 1;
nodes = (
"500 500 LINE",
"500 100 LINE",
"600 100 LINE",
"600 500 LINE"
);
},
{
closed = 1;
nodes = (
"500 100 LINE",
"200 100 LINE",
"200 0 LINE",
"500 0 LINE"
);
},
{
closed = 1;
nodes = (
"200 600 LINE",
"300 600 LINE",
"300 700 LINE",
"200 700 LINE"
);
},
{
closed = 1;
nodes = (
"300 700 LINE",
"400 700 LINE",
"400 800 LINE",
"300 800 LINE"
);
},
{
closed = 1;
nodes = (
"400 600 LINE",
"500 600 LINE",
"500 700 LINE",
"400 700 LINE"
);
}
);
width = 700;
}
);
unicode = 00D4;
},
{
glyphname = Ograve;
lastChange = "2021-04-25 09:15:02 +0000";
layers = (
{
layerId = "32649BF3-7508-413C-B85E-1CA78B2743BE";
paths = (
{
closed = 1;
nodes = (
"200 500 LINE",
"500 500 LINE",
"500 600 LINE",
"200 600 LINE"
);
},
{
closed = 1;
nodes = (
"200 100 LINE",
"200 500 LINE",
"100 500 LINE",
"100 100 LINE"
);
},
{
closed = 1;
nodes = (
"500 500 LINE",
"500 100 LINE",
"600 100 LINE",
"600 500 LINE"
);
},
{
closed = 1;
nodes = (
"500 100 LINE",
"200 100 LINE",
"200 0 LINE",
"500 0 LINE"
);
},
{
closed = 1;
nodes = (
"300 600 LINE",
"400 600 LINE",
"400 700 LINE",
"300 700 LINE"
);
},
{
closed = 1;
nodes = (
"200 700 LINE",
"300 700 LINE",
"300 800 LINE",
"200 800 LINE"
);
}
);
width = 700;
}
);
unicode = 00D2;
},
{
glyphname = Oslash;
lastChange = "2021-04-29 14:31:04 +0000";
layers = (
{
layerId = "32649BF3-7508-413C-B85E-1CA78B2743BE";
paths = (
{
closed = 1;
nodes = (
"200 100 LINE",
"200 600 LINE",
"100 600 LINE",
"100 100 LINE"
);
},
{
closed = 1;
nodes = (
"500 600 LINE",
"500 100 LINE",
"600 100 LINE",
"600 600 LINE"
);
},
{
closed = 1;
nodes = (
"500 100 LINE",
"200 100 LINE",
"200 0 LINE",
"500 0 LINE"
);
},
{
closed = 1;
nodes = (
"200 600 LINE",
"500 600 LINE",
"500 700 LINE",
"200 700 LINE"
);
},
{
closed = 1;
nodes = (
"400 600 LINE",
"400 500 LINE",
"500 500 LINE",
"500 600 LINE"
);
},
{
closed = 1;
nodes = (
"400 500 LINE",
"300 500 LINE",
"300 200 LINE",
"400 200 LINE"
);
},
{
closed = 1;
nodes = (
"300 200 LINE",
"200 200 LINE",
"200 100 LINE",
"300 100 LINE"
);
}
);
width = 700;
},
{
associatedMasterId = "32649BF3-7508-413C-B85E-1CA78B2743BE";
layerId = "C1B65B81-FEE5-4315-8649-79590B508F62";
name = "Apr 25 21, 11:18";
paths = (
{
closed = 1;
nodes = (
"200 100 LINE",
"200 600 LINE",
"100 600 LINE",
"100 100 LINE"
);
},
{
closed = 1;
nodes = (
"500 600 LINE",
"500 100 LINE",
"600 100 LINE",
"600 600 LINE"
);
},
{
closed = 1;
nodes = (
"500 100 LINE",
"200 100 LINE",
"200 0 LINE",
"500 0 LINE"
);
},
{
closed = 1;
nodes = (
"200 600 LINE",
"500 600 LINE",
"500 700 LINE",
"200 700 LINE"
);
},
{
closed = 1;
nodes = (
"400 700 LINE",
"400 500 LINE",
"500 500 LINE",
"500 700 LINE"
);
},
{
closed = 1;
nodes = (
"400 500 LINE",
"300 500 LINE",
"300 200 LINE",
"400 200 LINE"
);
},
{
closed = 1;
nodes = (
"300 200 LINE",
"200 200 LINE",
"200 100 LINE",
"300 100 LINE"
);
},
{
closed = 1;
nodes = (
"200 100 LINE",
"100 100 LINE",
"100 0 LINE",
"200 0 LINE"
);
}
);
width = 700;
}
);
unicode = 00D8;
},
{
glyphname = OE;
lastChange = "2021-04-25 09:31:29 +0000";
layers = (
{
layerId = "32649BF3-7508-413C-B85E-1CA78B2743BE";
paths = (
{
closed = 1;
nodes = (
"300 700 LINE",
"300 0 LINE",
"700 0 LINE",
"700 100 LINE",
"400 100 LINE",
"400 300 LINE",
"600 300 LINE",
"600 400 LINE",
"400 400 LINE",
"400 600 LINE",
"700 600 LINE",
"700 700 LINE"
);
},
{
closed = 1;
nodes = (
"200 600 LINE",
"300 600 LINE",
"300 700 LINE",
"200 700 LINE"
);
},
{
closed = 1;
nodes = (
"200 100 LINE",
"200 600 LINE",
"100 600 LINE",
"100 100 LINE"
);
},
{
closed = 1;
nodes = (
"300 600 LINE",
"300 100 LINE"
);
},
{
closed = 1;
nodes = (
"300 100 LINE",
"200 100 LINE",
"200 0 LINE",
"300 0 LINE"
);
}
);
width = 700;
},
{
associatedMasterId = "32649BF3-7508-413C-B85E-1CA78B2743BE";
layerId = "C95E480C-C87E-4F7B-B1C1-522C423D60EF";
name = "Apr 25 21, 11:30";
paths = (
{
closed = 1;
nodes = (
"300 700 LINE",
"300 0 LINE",
"600 0 LINE",
"600 100 LINE",
"400 100 LINE",
"400 300 LINE",
"500 300 LINE",
"500 400 LINE",
"400 400 LINE",
"400 600 LINE",
"600 600 LINE",
"600 700 LINE"
);
},
{
closed = 1;
nodes = (
"200 600 LINE",
"300 600 LINE",
"300 700 LINE",
"200 700 LINE"
);
},
{
closed = 1;
nodes = (
"200 100 LINE",
"200 600 LINE",
"100 600 LINE",
"100 100 LINE"
);
},
{
closed = 1;
nodes = (
"300 600 LINE",
"300 100 LINE",
"400 100 LINE",
"400 600 LINE"
);
},
{
closed = 1;
nodes = (
"300 100 LINE",
"200 100 LINE",
"200 0 LINE",
"300 0 LINE"
);
}
);
width = 700;
},
{
associatedMasterId = "32649BF3-7508-413C-B85E-1CA78B2743BE";
layerId = "47A02E64-1E22-4EC5-94A2-799921B5AEA3";
name = "Apr 25 21, 11:31";
paths = (
{
closed = 1;
nodes = (
"300 700 LINE",
"300 0 LINE",
"700 0 LINE",
"700 100 LINE",
"400 100 LINE",
"400 300 LINE",
"600 300 LINE",
"600 400 LINE",
"400 400 LINE",
"400 600 LINE",
"700 600 LINE",
"700 700 LINE"
);
},
{
closed = 1;
nodes = (
"200 600 LINE",
"300 600 LINE",
"300 700 LINE",
"200 700 LINE"
);
},
{
closed = 1;
nodes = (
"200 100 LINE",
"200 600 LINE",
"100 600 LINE",
"100 100 LINE"
);
},
{
closed = 1;
nodes = (
"300 600 LINE",
"300 100 LINE"
);
},
{
closed = 1;
nodes = (
"300 100 LINE",
"200 100 LINE",
"200 0 LINE",
"300 0 LINE"
);
}
);
width = 700;
}
);
unicode = 0152;
},
{
glyphname = P;
layers = (
{
hints = (
{
horizontal = 1;
place = "{300, 100}";
type = Stem;
},
{
horizontal = 1;
place = "{600, 100}";
type = Stem;
},
{
place = "{100, 100}";
type = Stem;
},
{
place = "{500, 100}";
type = Stem;
},
{
horizontal = 1;
place = "{400, 200}";
type = Stem;
}
);
layerId = "32649BF3-7508-413C-B85E-1CA78B2743BE";
paths = (
{
closed = 1;
nodes = (
"500 400 LINE",
"200 400 LINE",
"200 600 LINE",
"500 600 LINE",
"500 700 LINE",
"100 700 LINE",
"100 0 LINE",
"200 0 LINE",
"200 300 LINE",
"500 300 LINE"
);
},
{
closed = 1;
nodes = (
"500 600 LINE",
"500 400 LINE",
"600 400 LINE",
"600 600 LINE"
);
}
);
width = 700;
}
);
note = P;
unicode = 0050;
},
{
glyphname = Q;
layers = (
{
hints = (
{
horizontal = 1;
place = "{600, 100}";
type = Stem;
},
{
place = "{200, 300}";
type = Stem;
},
{
horizontal = 1;
place = "{200, 100}";
type = Stem;
},
{
place = "{100, 100}";
type = Stem;
},
{
place = "{300, 100}";
type = Stem;
},
{
place = "{500, 100}";
type = Stem;
},
{
horizontal = 1;
place = "{100, 100}";
type = Stem;
},
{
place = "{400, 100}";
type = Stem;
},
{
horizontal = 1;
place = "{0, 100}";
type = Stem;
}
);
layerId = "32649BF3-7508-413C-B85E-1CA78B2743BE";
paths = (
{
closed = 1;
nodes = (
"200 600 LINE",
"500 600 LINE",
"500 700 LINE",
"200 700 LINE"
);
},
{
closed = 1;
nodes = (
"200 100 LINE",
"200 600 LINE",
"100 600 LINE",
"100 100 LINE"
);
},
{
closed = 1;
nodes = (
"500 600 LINE",
"500 200 LINE",
"600 200 LINE",
"600 600 LINE"
);
},
{
closed = 1;
nodes = (
"300 300 LINE",
"300 200 LINE",
"400 200 LINE",
"400 300 LINE"
);
},
{
closed = 1;
nodes = (
"400 100 LINE",
"500 100 LINE",
"500 200 LINE",
"400 200 LINE"
);
},
{
closed = 1;
nodes = (
"200 100 LINE",
"200 0 LINE",
"400 0 LINE",
"400 100 LINE"
);
},
{
closed = 1;
nodes = (
"600 0 LINE",
"600 100 LINE",
"500 100 LINE",
"500 0 LINE"
);
}
);
width = 700;
}
);
note = Q;
unicode = 0051;
},
{
glyphname = R;
layers = (
{
hints = (
{
horizontal = 1;
place = "{100, 100}";
type = Stem;
},
{
horizontal = 1;
place = "{300, 100}";
type = Stem;
},
{
horizontal = 1;
place = "{600, 100}";
type = Stem;
},
{
place = "{400, 100}";
type = Stem;
},
{
place = "{100, 100}";
type = Stem;
},
{
place = "{300, 100}";
type = Stem;
},
{
place = "{500, 100}";
type = Stem;
},
{
horizontal = 1;
place = "{400, 200}";
type = Stem;
},
{
horizontal = 1;
place = "{0, 100}";
type = Stem;
}
);
layerId = "32649BF3-7508-413C-B85E-1CA78B2743BE";
paths = (
{
closed = 1;
nodes = (
"500 400 LINE",
"200 400 LINE",
"200 600 LINE",
"500 600 LINE",
"500 700 LINE",
"100 700 LINE",
"100 0 LINE",
"200 0 LINE",
"200 300 LINE",
"300 300 LINE",
"300 200 LINE",
"400 200 LINE",
"400 300 LINE",
"500 300 LINE"
);
},
{
closed = 1;
nodes = (
"500 600 LINE",
"500 400 LINE",
"600 400 LINE",
"600 600 LINE"
);
},
{
closed = 1;
nodes = (
"500 100 LINE",
"500 200 LINE",
"400 200 LINE",
"400 100 LINE"
);
},
{
closed = 1;
nodes = (
"600 0 LINE",
"600 100 LINE",
"500 100 LINE",
"500 0 LINE"
);
}
);
width = 700;
}
);
note = R;
unicode = 0052;
},
{
glyphname = S;
layers = (
{
hints = (
{
horizontal = 1;
place = "{600, 100}";
type = Stem;
},
{
place = "{200, 300}";
type = Stem;
},
{
horizontal = 1;
place = "{400, 200}";
type = Stem;
},
{
place = "{100, 100}";
type = Stem;
},
{
horizontal = 1;
place = "{500, 100}";
type = Stem;
},
{
place = "{500, 100}";
type = Stem;
},
{
horizontal = 1;
place = "{300, 100}";
type = Stem;
},
{
horizontal = 1;
place = "{100, 200}";
type = Stem;
},
{
horizontal = 1;
place = "{100, 100}";
type = Stem;
},
{
horizontal = 1;
place = "{0, 100}";
type = Stem;
}
);
layerId = "32649BF3-7508-413C-B85E-1CA78B2743BE";
paths = (
{
closed = 1;
nodes = (
"500 700 LINE",
"200 700 LINE",
"200 600 LINE",
"500 600 LINE"
);
},
{
closed = 1;
nodes = (
"100 600 LINE",
"100 400 LINE",
"200 400 LINE",
"200 600 LINE"
);
},
{
closed = 1;
nodes = (
"600 500 LINE",
"600 600 LINE",
"500 600 LINE",
"500 500 LINE"
);
},
{
closed = 1;
nodes = (
"200 300 LINE",
"500 300 LINE",
"500 400 LINE",
"200 400 LINE"
);
},
{
closed = 1;
nodes = (
"500 100 LINE",
"600 100 LINE",
"600 300 LINE",
"500 300 LINE"
);
},
{
closed = 1;
nodes = (
"100 200 LINE",
"100 100 LINE",
"200 100 LINE",
"200 200 LINE"
);
},
{
closed = 1;
nodes = (
"500 100 LINE",
"200 100 LINE",
"200 0 LINE",
"500 0 LINE"
);
}
);
width = 700;
}
);
note = S;
unicode = 0053;
},
{
glyphname = T;
layers = (
{
hints = (
{
horizontal = 1;
place = "{600, 100}";
type = Stem;
},
{
place = "{300, 100}";
type = Stem;
}
);
layerId = "32649BF3-7508-413C-B85E-1CA78B2743BE";
paths = (
{
closed = 1;
nodes = (
"300 600 LINE",
"300 0 LINE",
"400 0 LINE",
"400 600 LINE",
"600 600 LINE",
"600 700 LINE",
"100 700 LINE",
"100 600 LINE"
);
}
);
width = 700;
}
);
note = T;
unicode = 0054;
},
{
glyphname = U;
layers = (
{
hints = (
{
horizontal = 1;
place = "{0, 100}";
type = Stem;
},
{
place = "{100, 100}";
type = Stem;
},
{
place = "{500, 100}";
type = Stem;
},
{
place = "{200, 300}";
type = Stem;
}
);
layerId = "32649BF3-7508-413C-B85E-1CA78B2743BE";
paths = (
{
closed = 1;
nodes = (
"200 100 LINE",
"200 700 LINE",
"100 700 LINE",
"100 100 LINE"
);
},
{
closed = 1;
nodes = (
"500 700 LINE",
"500 100 LINE",
"600 100 LINE",
"600 700 LINE"
);
},
{
closed = 1;
nodes = (
"500 100 LINE",
"200 100 LINE",
"200 0 LINE",
"500 0 LINE"
);
}
);
width = 700;
}
);
note = U;
unicode = 0055;
},
{
glyphname = Uacute;
lastChange = "2021-04-25 09:37:16 +0000";
layers = (
{
layerId = "32649BF3-7508-413C-B85E-1CA78B2743BE";
paths = (
{
closed = 1;
nodes = (
"200 100 LINE",
"200 600 LINE",
"100 600 LINE",
"100 100 LINE"
);
},
{
closed = 1;
nodes = (
"500 600 LINE",
"500 100 LINE",
"600 100 LINE",
"600 600 LINE"
);
},
{
closed = 1;
nodes = (
"500 100 LINE",
"200 100 LINE",
"200 0 LINE",
"500 0 LINE"
);
},
{
closed = 1;
nodes = (
"300 600 LINE",
"400 600 LINE",
"400 700 LINE",
"300 700 LINE"
);
},
{
closed = 1;
nodes = (
"400 700 LINE",
"500 700 LINE",
"500 800 LINE",
"400 800 LINE"
);
}
);
width = 700;
}
);
unicode = 00DA;
},
{
glyphname = Ucircumflex;
lastChange = "2021-04-25 09:37:41 +0000";
layers = (
{
layerId = "32649BF3-7508-413C-B85E-1CA78B2743BE";
paths = (
{
closed = 1;
nodes = (
"200 100 LINE",
"200 600 LINE",
"100 600 LINE",
"100 100 LINE"
);
},
{
closed = 1;
nodes = (
"500 600 LINE",
"500 100 LINE",
"600 100 LINE",
"600 600 LINE"
);
},
{
closed = 1;
nodes = (
"500 100 LINE",
"200 100 LINE",
"200 0 LINE",
"500 0 LINE"
);
},
{
closed = 1;
nodes = (
"300 700 LINE",
"400 700 LINE",
"400 800 LINE",
"300 800 LINE"
);
},
{
closed = 1;
nodes = (
"400 600 LINE",
"500 600 LINE",
"500 700 LINE",
"400 700 LINE"
);
},
{
closed = 1;
nodes = (
"200 600 LINE",
"300 600 LINE",
"300 700 LINE",
"200 700 LINE"
);
}
);
width = 700;
}
);
unicode = 00DB;
},
{
glyphname = Udieresis;
lastChange = "2021-04-25 09:38:02 +0000";
layers = (
{
layerId = "32649BF3-7508-413C-B85E-1CA78B2743BE";
paths = (
{
closed = 1;
nodes = (
"200 100 LINE",
"200 600 LINE",
"100 600 LINE",
"100 100 LINE"
);
},
{
closed = 1;
nodes = (
"500 600 LINE",
"500 100 LINE",
"600 100 LINE",
"600 600 LINE"
);
},
{
closed = 1;
nodes = (
"500 100 LINE",
"200 100 LINE",
"200 0 LINE",
"500 0 LINE"
);
},
{
closed = 1;
nodes = (
"200 700 LINE",
"300 700 LINE",
"300 800 LINE",
"200 800 LINE"
);
},
{
closed = 1;
nodes = (
"400 700 LINE",
"500 700 LINE",
"500 800 LINE",
"400 800 LINE"
);
}
);
width = 700;
}
);
unicode = 00DC;
},
{
glyphname = Ugrave;
lastChange = "2021-04-25 09:38:35 +0000";
layers = (
{
layerId = "32649BF3-7508-413C-B85E-1CA78B2743BE";
paths = (
{
closed = 1;
nodes = (
"200 100 LINE",
"200 600 LINE",
"100 600 LINE",
"100 100 LINE"
);
},
{
closed = 1;
nodes = (
"500 600 LINE",
"500 100 LINE",
"600 100 LINE",
"600 600 LINE"
);
},
{
closed = 1;
nodes = (
"500 100 LINE",
"200 100 LINE",
"200 0 LINE",
"500 0 LINE"
);
},
{
closed = 1;
nodes = (
"300 600 LINE",
"400 600 LINE",
"400 700 LINE",
"300 700 LINE"
);
},
{
closed = 1;
nodes = (
"200 700 LINE",
"300 700 LINE",
"300 800 LINE",
"200 800 LINE"
);
}
);
width = 700;
}
);
unicode = 00D9;
},
{
glyphname = V;
layers = (
{
hints = (
{
horizontal = 1;
place = "{400, 300}";
type = Stem;
},
{
place = "{100, 100}";
type = Stem;
},
{
place = "{300, 100}";
type = Stem;
},
{
place = "{500, 100}";
type = Stem;
},
{
horizontal = 1;
place = "{200, 200}";
type = Stem;
},
{
place = "{200, 100}";
type = Stem;
},
{
place = "{400, 100}";
type = Stem;
},
{
horizontal = 1;
place = "{0, 200}";
type = Stem;
}
);
layerId = "32649BF3-7508-413C-B85E-1CA78B2743BE";
paths = (
{
closed = 1;
nodes = (
"200 400 LINE",
"200 700 LINE",
"100 700 LINE",
"100 400 LINE"
);
},
{
closed = 1;
nodes = (
"500 700 LINE",
"500 400 LINE",
"600 400 LINE",
"600 700 LINE"
);
},
{
closed = 1;
nodes = (
"300 400 LINE",
"200 400 LINE",
"200 200 LINE",
"300 200 LINE"
);
},
{
closed = 1;
nodes = (
"400 400 LINE",
"400 200 LINE",
"500 200 LINE",
"500 400 LINE"
);
},
{
closed = 1;
nodes = (
"300 200 LINE",
"300 0 LINE",
"400 0 LINE",
"400 200 LINE"
);
}
);
width = 700;
}
);
note = V;
unicode = 0056;
},
{
glyphname = W;
layers = (
{
hints = (
{
horizontal = 1;
place = "{0, 100}";
type = Stem;
},
{
place = "{100, 100}";
type = Stem;
},
{
place = "{300, 100}";
type = Stem;
},
{
place = "{500, 100}";
type = Stem;
},
{
horizontal = 1;
place = "{100, 300}";
type = Stem;
},
{
place = "{200, 100}";
type = Stem;
},
{
place = "{400, 100}";
type = Stem;
}
);
layerId = "32649BF3-7508-413C-B85E-1CA78B2743BE";
paths = (
{
closed = 1;
nodes = (
"200 100 LINE",
"200 700 LINE",
"100 700 LINE",
"100 100 LINE"
);
},
{
closed = 1;
nodes = (
"500 700 LINE",
"500 100 LINE",
"600 100 LINE",
"600 700 LINE"
);
},
{
closed = 1;
nodes = (
"400 100 LINE",
"400 400 LINE",
"300 400 LINE",
"300 100 LINE"
);
},
{
closed = 1;
nodes = (
"200 0 LINE",
"300 0 LINE",
"300 100 LINE",
"200 100 LINE"
);
},
{
closed = 1;
nodes = (
"400 0 LINE",
"500 0 LINE",
"500 100 LINE",
"400 100 LINE"
);
}
);
width = 700;
}
);
note = W;
unicode = 0057;
},
{
glyphname = X;
layers = (
{
hints = (
{
horizontal = 1;
place = "{500, 200}";
type = Stem;
},
{
place = "{100, 100}";
type = Stem;
},
{
place = "{500, 100}";
type = Stem;
},
{
horizontal = 1;
place = "{400, 100}";
type = Stem;
},
{
place = "{200, 100}";
type = Stem;
},
{
place = "{400, 100}";
type = Stem;
},
{
horizontal = 1;
place = "{300, 100}";
type = Stem;
},
{
place = "{300, 100}";
type = Stem;
},
{
horizontal = 1;
place = "{200, 100}";
type = Stem;
},
{
horizontal = 1;
place = "{0, 200}";
type = Stem;
}
);
layerId = "32649BF3-7508-413C-B85E-1CA78B2743BE";
paths = (
{
closed = 1;
nodes = (
"200 700 LINE",
"100 700 LINE",
"100 500 LINE",
"200 500 LINE"
);
},
{
closed = 1;
nodes = (
"500 700 LINE",
"500 500 LINE",
"600 500 LINE",
"600 700 LINE"
);
},
{
closed = 1;
nodes = (
"200 500 LINE",
"200 400 LINE",
"300 400 LINE",
"300 500 LINE"
);
},
{
closed = 1;
nodes = (
"400 400 LINE",
"500 400 LINE",
"500 500 LINE",
"400 500 LINE"
);
},
{
closed = 1;
nodes = (
"300 300 LINE",
"400 300 LINE",
"400 400 LINE",
"300 400 LINE"
);
},
{
closed = 1;
nodes = (
"200 200 LINE",
"300 200 LINE",
"300 300 LINE",
"200 300 LINE"
);
},
{
closed = 1;
nodes = (
"500 200 LINE",
"500 300 LINE",
"400 300 LINE",
"400 200 LINE"
);
},
{
closed = 1;
nodes = (
"100 200 LINE",
"100 0 LINE",
"200 0 LINE",
"200 200 LINE"
);
},
{
closed = 1;
nodes = (
"500 0 LINE",
"600 0 LINE",
"600 200 LINE",
"500 200 LINE"
);
}
);
width = 700;
}
);
note = X;
unicode = 0058;
},
{
glyphname = Y;
layers = (
{
hints = (
{
horizontal = 1;
place = "{500, 200}";
type = Stem;
},
{
place = "{100, 100}";
type = Stem;
},
{
place = "{300, 100}";
type = Stem;
},
{
place = "{500, 100}";
type = Stem;
},
{
horizontal = 1;
place = "{400, 100}";
type = Stem;
},
{
place = "{200, 100}";
type = Stem;
}
);
layerId = "32649BF3-7508-413C-B85E-1CA78B2743BE";
paths = (
{
closed = 1;
nodes = (
"200 700 LINE",
"100 700 LINE",
"100 500 LINE",
"200 500 LINE"
);
},
{
closed = 1;
nodes = (
"500 700 LINE",
"500 500 LINE",
"600 500 LINE",
"600 700 LINE"
);
},
{
closed = 1;
nodes = (
"200 500 LINE",
"200 400 LINE",
"300 400 LINE",
"300 500 LINE"
);
},
{
closed = 1;
nodes = (
"400 400 LINE",
"500 400 LINE",
"500 500 LINE",
"400 500 LINE"
);
},
{
closed = 1;
nodes = (
"300 400 LINE",
"300 0 LINE",
"400 0 LINE",
"400 400 LINE"
);
}
);
width = 700;
}
);
note = Y;
unicode = 0059;
},
{
glyphname = Yacute;
lastChange = "2021-04-25 09:45:02 +0000";
layers = (
{
layerId = "32649BF3-7508-413C-B85E-1CA78B2743BE";
paths = (
{
closed = 1;
nodes = (
"200 600 LINE",
"100 600 LINE",
"100 400 LINE",
"200 400 LINE"
);
},
{
closed = 1;
nodes = (
"500 600 LINE",
"500 400 LINE",
"600 400 LINE",
"600 600 LINE"
);
},
{
closed = 1;
nodes = (
"200 400 LINE",
"200 300 LINE",
"300 300 LINE",
"300 400 LINE"
);
},
{
closed = 1;
nodes = (
"400 300 LINE",
"500 300 LINE",
"500 400 LINE",
"400 400 LINE"
);
},
{
closed = 1;
nodes = (
"300 300 LINE",
"300 0 LINE",
"400 0 LINE",
"400 300 LINE"
);
},
{
closed = 1;
nodes = (
"300 600 LINE",
"400 600 LINE",
"400 700 LINE",
"300 700 LINE"
);
},
{
closed = 1;
nodes = (
"400 700 LINE",
"500 700 LINE",
"500 800 LINE",
"400 800 LINE"
);
}
);
width = 700;
}
);
unicode = 00DD;
},
{
glyphname = Ydieresis;
lastChange = "2021-04-25 09:45:33 +0000";
layers = (
{
layerId = "32649BF3-7508-413C-B85E-1CA78B2743BE";
paths = (
{
closed = 1;
nodes = (
"200 600 LINE",
"100 600 LINE",
"100 400 LINE",
"200 400 LINE"
);
},
{
closed = 1;
nodes = (
"500 600 LINE",
"500 400 LINE",
"600 400 LINE",
"600 600 LINE"
);
},
{
closed = 1;
nodes = (
"200 400 LINE",
"200 300 LINE",
"300 300 LINE",
"300 400 LINE"
);
},
{
closed = 1;
nodes = (
"400 300 LINE",
"500 300 LINE",
"500 400 LINE",
"400 400 LINE"
);
},
{
closed = 1;
nodes = (
"300 300 LINE",
"300 0 LINE",
"400 0 LINE",
"400 300 LINE"
);
},
{
closed = 1;
nodes = (
"200 600 LINE",
"300 600 LINE",
"300 700 LINE",
"200 700 LINE"
);
},
{
closed = 1;
nodes = (
"300 700 LINE",
"400 700 LINE",
"400 800 LINE",
"300 800 LINE"
);
},
{
closed = 1;
nodes = (
"400 600 LINE",
"500 600 LINE",
"500 700 LINE",
"400 700 LINE"
);
}
);
width = 700;
}
);
unicode = 0178;
},
{
glyphname = Z;
layers = (
{
hints = (
{
horizontal = 1;
place = "{0, 100}";
type = Stem;
},
{
horizontal = 1;
place = "{200, 100}";
type = Stem;
},
{
horizontal = 1;
place = "{400, 100}";
type = Stem;
},
{
horizontal = 1;
place = "{600, 100}";
type = Stem;
},
{
place = "{100, 100}";
type = Stem;
},
{
place = "{300, 100}";
type = Stem;
},
{
place = "{500, 100}";
type = Stem;
},
{
place = "{400, 100}";
type = Stem;
},
{
horizontal = 1;
place = "{300, 100}";
type = Stem;
},
{
place = "{200, 100}";
type = Stem;
}
);
layerId = "32649BF3-7508-413C-B85E-1CA78B2743BE";
paths = (
{
closed = 1;
nodes = (
"600 700 LINE",
"100 700 LINE",
"100 600 LINE",
"500 600 LINE",
"500 500 LINE",
"600 500 LINE"
);
},
{
closed = 1;
nodes = (
"400 400 LINE",
"500 400 LINE",
"500 500 LINE",
"400 500 LINE"
);
},
{
closed = 1;
nodes = (
"300 300 LINE",
"400 300 LINE",
"400 400 LINE",
"300 400 LINE"
);
},
{
closed = 1;
nodes = (
"200 200 LINE",
"300 200 LINE",
"300 300 LINE",
"200 300 LINE"
);
},
{
closed = 1;
nodes = (
"100 200 LINE",
"100 0 LINE",
"600 0 LINE",
"600 100 LINE",
"200 100 LINE",
"200 200 LINE"
);
}
);
width = 700;
}
);
note = Z;
unicode = 005A;
},
{
glyphname = Aacute.ss01;
lastChange = "2021-05-02 17:20:13 +0000";
layers = (
{
layerId = "32649BF3-7508-413C-B85E-1CA78B2743BE";
paths = (
{
closed = 1;
nodes = (
"200 700 LINE",
"200 600 LINE",
"500 600 LINE",
"500 700 LINE"
);
},
{
closed = 1;
nodes = (
"100 600 LINE",
"100 0 LINE",
"200 0 LINE",
"200 200 LINE",
"500 200 LINE",
"500 0 LINE",
"600 0 LINE",
"600 600 LINE",
"500 600 LINE",
"500 300 LINE",
"200 300 LINE",
"200 600 LINE"
);
},
{
closed = 1;
nodes = (
"400 900 LINE",
"500 900 LINE",
"500 1000 LINE",
"400 1000 LINE"
);
},
{
closed = 1;
nodes = (
"300 800 LINE",
"400 800 LINE",
"400 900 LINE",
"300 900 LINE"
);
}
);
width = 700;
}
);
},
{
glyphname = Acircumflex.ss01;
lastChange = "2021-05-02 17:20:18 +0000";
layers = (
{
layerId = "32649BF3-7508-413C-B85E-1CA78B2743BE";
paths = (
{
closed = 1;
nodes = (
"200 700 LINE",
"200 600 LINE",
"500 600 LINE",
"500 700 LINE"
);
},
{
closed = 1;
nodes = (
"100 600 LINE",
"100 0 LINE",
"200 0 LINE",
"200 200 LINE",
"500 200 LINE",
"500 0 LINE",
"600 0 LINE",
"600 600 LINE",
"500 600 LINE",
"500 300 LINE",
"200 300 LINE",
"200 600 LINE"
);
},
{
closed = 1;
nodes = (
"300 900 LINE",
"400 900 LINE",
"400 1000 LINE",
"300 1000 LINE"
);
},
{
closed = 1;
nodes = (
"400 800 LINE",
"500 800 LINE",
"500 900 LINE",
"400 900 LINE"
);
},
{
closed = 1;
nodes = (
"200 800 LINE",
"300 800 LINE",
"300 900 LINE",
"200 900 LINE"
);
}
);
width = 700;
}
);
},
{
glyphname = Adieresis.ss01;
lastChange = "2021-05-02 17:20:22 +0000";
layers = (
{
layerId = "32649BF3-7508-413C-B85E-1CA78B2743BE";
paths = (
{
closed = 1;
nodes = (
"200 700 LINE",
"200 600 LINE",
"500 600 LINE",
"500 700 LINE"
);
},
{
closed = 1;
nodes = (
"100 600 LINE",
"100 0 LINE",
"200 0 LINE",
"200 200 LINE",
"500 200 LINE",
"500 0 LINE",
"600 0 LINE",
"600 600 LINE",
"500 600 LINE",
"500 300 LINE",
"200 300 LINE",
"200 600 LINE"
);
},
{
closed = 1;
nodes = (
"400 800 LINE",
"500 800 LINE",
"500 900 LINE",
"400 900 LINE"
);
},
{
closed = 1;
nodes = (
"200 800 LINE",
"300 800 LINE",
"300 900 LINE",
"200 900 LINE"
);
}
);
width = 700;
}
);
},
{
glyphname = Agrave.ss01;
lastChange = "2021-05-02 17:20:24 +0000";
layers = (
{
layerId = "32649BF3-7508-413C-B85E-1CA78B2743BE";
paths = (
{
closed = 1;
nodes = (
"200 700 LINE",
"200 600 LINE",
"500 600 LINE",
"500 700 LINE"
);
},
{
closed = 1;
nodes = (
"100 600 LINE",
"100 0 LINE",
"200 0 LINE",
"200 200 LINE",
"500 200 LINE",
"500 0 LINE",
"600 0 LINE",
"600 600 LINE",
"500 600 LINE",
"500 300 LINE",
"200 300 LINE",
"200 600 LINE"
);
},
{
closed = 1;
nodes = (
"200 900 LINE",
"300 900 LINE",
"300 1000 LINE",
"200 1000 LINE"
);
},
{
closed = 1;
nodes = (
"300 800 LINE",
"400 800 LINE",
"400 900 LINE",
"300 900 LINE"
);
}
);
width = 700;
}
);
},
{
glyphname = Aring.ss01;
lastChange = "2021-05-02 17:20:27 +0000";
layers = (
{
layerId = "32649BF3-7508-413C-B85E-1CA78B2743BE";
paths = (
{
closed = 1;
nodes = (
"200 700 LINE",
"200 600 LINE",
"500 600 LINE",
"500 700 LINE"
);
},
{
closed = 1;
nodes = (
"100 600 LINE",
"100 0 LINE",
"200 0 LINE",
"200 200 LINE",
"500 200 LINE",
"500 0 LINE",
"600 0 LINE",
"600 600 LINE",
"500 600 LINE",
"500 300 LINE",
"200 300 LINE",
"200 600 LINE"
);
},
{
closed = 1;
nodes = (
"500 900 LINE"
);
},
{
closed = 1;
nodes = (
"400 800 LINE",
"500 800 LINE",
"500 900 LINE",
"400 900 LINE"
);
},
{
closed = 1;
nodes = (
"200 800 LINE",
"300 800 LINE",
"300 900 LINE",
"200 900 LINE"
);
},
{
closed = 1;
nodes = (
"300 900 LINE",
"400 900 LINE",
"400 1000 LINE",
"300 1000 LINE"
);
},
{
closed = 1;
nodes = (
"300 700 LINE",
"400 700 LINE",
"400 800 LINE",
"300 800 LINE"
);
}
);
width = 700;
}
);
},
{
glyphname = Atilde.ss01;
lastChange = "2021-05-02 17:20:29 +0000";
layers = (
{
layerId = "32649BF3-7508-413C-B85E-1CA78B2743BE";
paths = (
{
closed = 1;
nodes = (
"200 700 LINE",
"200 600 LINE",
"500 600 LINE",
"500 700 LINE"
);
},
{
closed = 1;
nodes = (
"100 600 LINE",
"100 0 LINE",
"200 0 LINE",
"200 200 LINE",
"500 200 LINE",
"500 0 LINE",
"600 0 LINE",
"600 600 LINE",
"500 600 LINE",
"500 300 LINE",
"200 300 LINE",
"200 600 LINE"
);
},
{
closed = 1;
nodes = (
"200 800 LINE",
"300 800 LINE",
"300 900 LINE",
"200 900 LINE"
);
},
{
closed = 1;
nodes = (
"300 900 LINE",
"400 900 LINE",
"400 1000 LINE",
"300 1000 LINE"
);
},
{
closed = 1;
nodes = (
"400 800 LINE",
"500 800 LINE",
"500 900 LINE",
"400 900 LINE"
);
},
{
closed = 1;
nodes = (
"500 900 LINE",
"600 900 LINE",
"600 1000 LINE",
"500 1000 LINE"
);
}
);
width = 700;
}
);
},
{
glyphname = Eacute.ss01;
lastChange = "2021-05-02 17:20:31 +0000";
layers = (
{
layerId = "32649BF3-7508-413C-B85E-1CA78B2743BE";
paths = (
{
closed = 1;
nodes = (
"100 700 LINE",
"100 0 LINE",
"600 0 LINE",
"600 100 LINE",
"200 100 LINE",
"200 300 LINE",
"400 300 LINE",
"400 400 LINE",
"200 400 LINE",
"200 600 LINE",
"600 600 LINE",
"600 700 LINE"
);
},
{
closed = 1;
nodes = (
"400 900 LINE",
"500 900 LINE",
"500 1000 LINE",
"400 1000 LINE"
);
},
{
closed = 1;
nodes = (
"300 800 LINE",
"400 800 LINE",
"400 900 LINE",
"300 900 LINE"
);
}
);
width = 700;
}
);
},
{
glyphname = Ecircumflex.ss01;
lastChange = "2021-05-02 17:20:36 +0000";
layers = (
{
layerId = "32649BF3-7508-413C-B85E-1CA78B2743BE";
paths = (
{
closed = 1;
nodes = (
"100 700 LINE",
"100 0 LINE",
"600 0 LINE",
"600 100 LINE",
"200 100 LINE",
"200 300 LINE",
"400 300 LINE",
"400 400 LINE",
"200 400 LINE",
"200 600 LINE",
"600 600 LINE",
"600 700 LINE"
);
},
{
closed = 1;
nodes = (
"300 900 LINE",
"400 900 LINE",
"400 1000 LINE",
"300 1000 LINE"
);
},
{
closed = 1;
nodes = (
"200 800 LINE",
"300 800 LINE",
"300 900 LINE",
"200 900 LINE"
);
},
{
closed = 1;
nodes = (
"400 800 LINE",
"500 800 LINE",
"500 900 LINE",
"400 900 LINE"
);
}
);
width = 700;
}
);
},
{
glyphname = Edieresis.ss01;
lastChange = "2021-05-02 17:20:39 +0000";
layers = (
{
layerId = "32649BF3-7508-413C-B85E-1CA78B2743BE";
paths = (
{
closed = 1;
nodes = (
"100 700 LINE",
"100 0 LINE",
"600 0 LINE",
"600 100 LINE",
"200 100 LINE",
"200 300 LINE",
"400 300 LINE",
"400 400 LINE",
"200 400 LINE",
"200 600 LINE",
"600 600 LINE",
"600 700 LINE"
);
},
{
closed = 1;
nodes = (
"400 800 LINE",
"500 800 LINE",
"500 900 LINE",
"400 900 LINE"
);
},
{
closed = 1;
nodes = (
"200 800 LINE",
"300 800 LINE",
"300 900 LINE",
"200 900 LINE"
);
}
);
width = 700;
}
);
},
{
glyphname = Egrave.ss01;
lastChange = "2021-05-02 17:20:41 +0000";
layers = (
{
layerId = "32649BF3-7508-413C-B85E-1CA78B2743BE";
paths = (
{
closed = 1;
nodes = (
"100 700 LINE",
"100 0 LINE",
"600 0 LINE",
"600 100 LINE",
"200 100 LINE",
"200 300 LINE",
"400 300 LINE",
"400 400 LINE",
"200 400 LINE",
"200 600 LINE",
"600 600 LINE",
"600 700 LINE"
);
},
{
closed = 1;
nodes = (
"300 800 LINE",
"400 800 LINE",
"400 900 LINE",
"300 900 LINE"
);
},
{
closed = 1;
nodes = (
"200 900 LINE",
"300 900 LINE",
"300 1000 LINE",
"200 1000 LINE"
);
}
);
width = 700;
}
);
},
{
glyphname = Iacute.ss01;
lastChange = "2021-05-02 17:20:44 +0000";
layers = (
{
layerId = "32649BF3-7508-413C-B85E-1CA78B2743BE";
paths = (
{
closed = 1;
nodes = (
"200 100 LINE",
"200 0 LINE",
"500 0 LINE",
"500 100 LINE",
"400 100 LINE",
"400 600 LINE",
"500 600 LINE",
"500 700 LINE",
"200 700 LINE",
"200 600 LINE",
"300 600 LINE",
"300 100 LINE"
);
},
{
closed = 1;
nodes = (
"300 800 LINE",
"400 800 LINE",
"400 900 LINE",
"300 900 LINE"
);
},
{
closed = 1;
nodes = (
"400 900 LINE",
"500 900 LINE",
"500 1000 LINE",
"400 1000 LINE"
);
}
);
width = 700;
}
);
},
{
glyphname = Icircumflex.ss01;
lastChange = "2021-05-02 17:20:48 +0000";
layers = (
{
layerId = "32649BF3-7508-413C-B85E-1CA78B2743BE";
paths = (
{
closed = 1;
nodes = (
"200 100 LINE",
"200 0 LINE",
"500 0 LINE",
"500 100 LINE",
"400 100 LINE",
"400 600 LINE",
"500 600 LINE",
"500 700 LINE",
"200 700 LINE",
"200 600 LINE",
"300 600 LINE",
"300 100 LINE"
);
},
{
closed = 1;
nodes = (
"300 900 LINE",
"400 900 LINE",
"400 1000 LINE",
"300 1000 LINE"
);
},
{
closed = 1;
nodes = (
"200 800 LINE",
"300 800 LINE",
"300 900 LINE",
"200 900 LINE"
);
},
{
closed = 1;
nodes = (
"400 800 LINE",
"500 800 LINE",
"500 900 LINE",
"400 900 LINE"
);
}
);
width = 700;
}
);
},
{
glyphname = Idieresis.ss01;
lastChange = "2021-05-02 17:20:51 +0000";
layers = (
{
layerId = "32649BF3-7508-413C-B85E-1CA78B2743BE";
paths = (
{
closed = 1;
nodes = (
"200 100 LINE",
"200 0 LINE",
"500 0 LINE",
"500 100 LINE",
"400 100 LINE",
"400 600 LINE",
"500 600 LINE",
"500 700 LINE",
"200 700 LINE",
"200 600 LINE",
"300 600 LINE",
"300 100 LINE"
);
},
{
closed = 1;
nodes = (
"200 800 LINE",
"300 800 LINE",
"300 900 LINE",
"200 900 LINE"
);
},
{
closed = 1;
nodes = (
"400 800 LINE",
"500 800 LINE",
"500 900 LINE",
"400 900 LINE"
);
}
);
width = 700;
}
);
},
{
glyphname = Igrave.ss01;
lastChange = "2021-05-02 17:20:54 +0000";
layers = (
{
layerId = "32649BF3-7508-413C-B85E-1CA78B2743BE";
paths = (
{
closed = 1;
nodes = (
"200 100 LINE",
"200 0 LINE",
"500 0 LINE",
"500 100 LINE",
"400 100 LINE",
"400 600 LINE",
"500 600 LINE",
"500 700 LINE",
"200 700 LINE",
"200 600 LINE",
"300 600 LINE",
"300 100 LINE"
);
},
{
closed = 1;
nodes = (
"200 900 LINE",
"300 900 LINE",
"300 1000 LINE",
"200 1000 LINE"
);
},
{
closed = 1;
nodes = (
"300 800 LINE",
"400 800 LINE",
"400 900 LINE",
"300 900 LINE"
);
}
);
width = 700;
}
);
},
{
glyphname = Ntilde.ss01;
lastChange = "2021-05-02 17:20:56 +0000";
layers = (
{
layerId = "32649BF3-7508-413C-B85E-1CA78B2743BE";
paths = (
{
closed = 1;
nodes = (
"100 700 LINE",
"100 0 LINE",
"200 0 LINE",
"200 400 LINE",
"300 400 LINE",
"300 500 LINE",
"200 500 LINE",
"200 700 LINE"
);
},
{
closed = 1;
nodes = (
"400 300 LINE",
"400 200 LINE",
"500 200 LINE",
"500 0 LINE",
"600 0 LINE",
"600 700 LINE",
"500 700 LINE",
"500 300 LINE"
);
},
{
closed = 1;
nodes = (
"300 400 LINE",
"300 300 LINE",
"400 300 LINE",
"400 400 LINE"
);
},
{
closed = 1;
nodes = (
"200 800 LINE",
"300 800 LINE",
"300 900 LINE",
"200 900 LINE"
);
},
{
closed = 1;
nodes = (
"300 900 LINE",
"400 900 LINE",
"400 1000 LINE",
"300 1000 LINE"
);
},
{
closed = 1;
nodes = (
"400 800 LINE",
"500 800 LINE",
"500 900 LINE",
"400 900 LINE"
);
},
{
closed = 1;
nodes = (
"500 900 LINE",
"600 900 LINE",
"600 1000 LINE",
"500 1000 LINE"
);
}
);
width = 700;
},
{
associatedMasterId = "32649BF3-7508-413C-B85E-1CA78B2743BE";
layerId = "EF9B1BE1-72B1-4DB0-A383-A366E709F4DF";
name = "Apr 25 21, 11:12";
paths = (
{
closed = 1;
nodes = (
"100 600 LINE",
"100 0 LINE",
"200 0 LINE",
"200 400 LINE",
"300 400 LINE",
"300 500 LINE",
"200 500 LINE",
"200 600 LINE"
);
},
{
closed = 1;
nodes = (
"400 300 LINE",
"400 200 LINE",
"500 200 LINE",
"500 0 LINE",
"600 0 LINE",
"600 600 LINE",
"500 600 LINE",
"500 300 LINE"
);
},
{
closed = 1;
nodes = (
"300 400 LINE",
"300 300 LINE",
"400 300 LINE",
"400 400 LINE"
);
},
{
closed = 1;
nodes = (
"200 600 LINE",
"300 600 LINE",
"300 700 LINE",
"200 700 LINE"
);
},
{
closed = 1;
nodes = (
"300 700 LINE",
"400 700 LINE",
"400 800 LINE",
"300 800 LINE"
);
},
{
closed = 1;
nodes = (
"400 600 LINE",
"500 600 LINE",
"500 700 LINE",
"400 700 LINE"
);
},
{
closed = 1;
nodes = (
"500 700 LINE",
"600 700 LINE",
"600 800 LINE",
"500 800 LINE"
);
}
);
width = 700;
}
);
},
{
glyphname = Oacute.ss01;
lastChange = "2021-05-02 17:20:58 +0000";
layers = (
{
layerId = "32649BF3-7508-413C-B85E-1CA78B2743BE";
paths = (
{
closed = 1;
nodes = (
"200 600 LINE",
"500 600 LINE",
"500 700 LINE",
"200 700 LINE"
);
},
{
closed = 1;
nodes = (
"200 100 LINE",
"200 600 LINE",
"100 600 LINE",
"100 100 LINE"
);
},
{
closed = 1;
nodes = (
"500 600 LINE",
"500 100 LINE",
"600 100 LINE",
"600 600 LINE"
);
},
{
closed = 1;
nodes = (
"500 100 LINE",
"200 100 LINE",
"200 0 LINE",
"500 0 LINE"
);
},
{
closed = 1;
nodes = (
"300 800 LINE",
"400 800 LINE",
"400 900 LINE",
"300 900 LINE"
);
},
{
closed = 1;
nodes = (
"400 900 LINE",
"500 900 LINE",
"500 1000 LINE",
"400 1000 LINE"
);
}
);
width = 700;
}
);
},
{
glyphname = Ocircumflex.ss01;
lastChange = "2021-05-02 17:21:02 +0000";
layers = (
{
layerId = "32649BF3-7508-413C-B85E-1CA78B2743BE";
paths = (
{
closed = 1;
nodes = (
"200 600 LINE",
"500 600 LINE",
"500 700 LINE",
"200 700 LINE"
);
},
{
closed = 1;
nodes = (
"200 100 LINE",
"200 600 LINE",
"100 600 LINE",
"100 100 LINE"
);
},
{
closed = 1;
nodes = (
"500 600 LINE",
"500 100 LINE",
"600 100 LINE",
"600 600 LINE"
);
},
{
closed = 1;
nodes = (
"500 100 LINE",
"200 100 LINE",
"200 0 LINE",
"500 0 LINE"
);
},
{
closed = 1;
nodes = (
"200 800 LINE",
"300 800 LINE",
"300 900 LINE",
"200 900 LINE"
);
},
{
closed = 1;
nodes = (
"300 900 LINE",
"400 900 LINE",
"400 1000 LINE",
"300 1000 LINE"
);
},
{
closed = 1;
nodes = (
"400 800 LINE",
"500 800 LINE",
"500 900 LINE",
"400 900 LINE"
);
}
);
width = 700;
}
);
},
{
glyphname = Ograve.ss01;
lastChange = "2021-05-02 17:21:04 +0000";
layers = (
{
layerId = "32649BF3-7508-413C-B85E-1CA78B2743BE";
paths = (
{
closed = 1;
nodes = (
"200 600 LINE",
"500 600 LINE",
"500 700 LINE",
"200 700 LINE"
);
},
{
closed = 1;
nodes = (
"200 100 LINE",
"200 600 LINE",
"100 600 LINE",
"100 100 LINE"
);
},
{
closed = 1;
nodes = (
"500 600 LINE",
"500 100 LINE",
"600 100 LINE",
"600 600 LINE"
);
},
{
closed = 1;
nodes = (
"500 100 LINE",
"200 100 LINE",
"200 0 LINE",
"500 0 LINE"
);
},
{
closed = 1;
nodes = (
"300 800 LINE",
"400 800 LINE",
"400 900 LINE",
"300 900 LINE"
);
},
{
closed = 1;
nodes = (
"200 900 LINE",
"300 900 LINE",
"300 1000 LINE",
"200 1000 LINE"
);
}
);
width = 700;
}
);
},
{
glyphname = Uacute.ss01;
lastChange = "2021-05-02 17:21:07 +0000";
layers = (
{
layerId = "32649BF3-7508-413C-B85E-1CA78B2743BE";
paths = (
{
closed = 1;
nodes = (
"200 100 LINE",
"200 700 LINE",
"100 700 LINE",
"100 100 LINE"
);
},
{
closed = 1;
nodes = (
"500 700 LINE",
"500 100 LINE",
"600 100 LINE",
"600 700 LINE"
);
},
{
closed = 1;
nodes = (
"500 100 LINE",
"200 100 LINE",
"200 0 LINE",
"500 0 LINE"
);
},
{
closed = 1;
nodes = (
"300 800 LINE",
"400 800 LINE",
"400 900 LINE",
"300 900 LINE"
);
},
{
closed = 1;
nodes = (
"400 900 LINE",
"500 900 LINE",
"500 1000 LINE",
"400 1000 LINE"
);
}
);
width = 700;
}
);
},
{
glyphname = Ucircumflex.ss01;
lastChange = "2021-05-02 17:21:10 +0000";
layers = (
{
layerId = "32649BF3-7508-413C-B85E-1CA78B2743BE";
paths = (
{
closed = 1;
nodes = (
"200 100 LINE",
"200 700 LINE",
"100 700 LINE",
"100 100 LINE"
);
},
{
closed = 1;
nodes = (
"500 700 LINE",
"500 100 LINE",
"600 100 LINE",
"600 700 LINE"
);
},
{
closed = 1;
nodes = (
"500 100 LINE",
"200 100 LINE",
"200 0 LINE",
"500 0 LINE"
);
},
{
closed = 1;
nodes = (
"300 900 LINE",
"400 900 LINE",
"400 1000 LINE",
"300 1000 LINE"
);
},
{
closed = 1;
nodes = (
"400 800 LINE",
"500 800 LINE",
"500 900 LINE",
"400 900 LINE"
);
},
{
closed = 1;
nodes = (
"200 800 LINE",
"300 800 LINE",
"300 900 LINE",
"200 900 LINE"
);
}
);
width = 700;
}
);
},
{
glyphname = Udieresis.ss01;
lastChange = "2021-05-02 17:21:15 +0000";
layers = (
{
layerId = "32649BF3-7508-413C-B85E-1CA78B2743BE";
paths = (
{
closed = 1;
nodes = (
"200 100 LINE",
"200 700 LINE",
"100 700 LINE",
"100 100 LINE"
);
},
{
closed = 1;
nodes = (
"500 700 LINE",
"500 100 LINE",
"600 100 LINE",
"600 700 LINE"
);
},
{
closed = 1;
nodes = (
"500 100 LINE",
"200 100 LINE",
"200 0 LINE",
"500 0 LINE"
);
},
{
closed = 1;
nodes = (
"200 800 LINE",
"300 800 LINE",
"300 900 LINE",
"200 900 LINE"
);
},
{
closed = 1;
nodes = (
"400 800 LINE",
"500 800 LINE",
"500 900 LINE",
"400 900 LINE"
);
}
);
width = 700;
}
);
},
{
glyphname = Ugrave.ss01;
lastChange = "2021-05-02 17:21:20 +0000";
layers = (
{
layerId = "32649BF3-7508-413C-B85E-1CA78B2743BE";
paths = (
{
closed = 1;
nodes = (
"200 100 LINE",
"200 700 LINE",
"100 700 LINE",
"100 100 LINE"
);
},
{
closed = 1;
nodes = (
"500 700 LINE",
"500 100 LINE",
"600 100 LINE",
"600 700 LINE"
);
},
{
closed = 1;
nodes = (
"500 100 LINE",
"200 100 LINE",
"200 0 LINE",
"500 0 LINE"
);
},
{
closed = 1;
nodes = (
"300 800 LINE",
"400 800 LINE",
"400 900 LINE",
"300 900 LINE"
);
},
{
closed = 1;
nodes = (
"200 900 LINE",
"300 900 LINE",
"300 1000 LINE",
"200 1000 LINE"
);
}
);
width = 700;
}
);
},
{
glyphname = Yacute.ss01;
lastChange = "2021-05-02 17:21:23 +0000";
layers = (
{
layerId = "32649BF3-7508-413C-B85E-1CA78B2743BE";
paths = (
{
closed = 1;
nodes = (
"200 700 LINE",
"100 700 LINE",
"100 400 LINE",
"200 400 LINE"
);
},
{
closed = 1;
nodes = (
"500 700 LINE",
"500 400 LINE",
"600 400 LINE",
"600 700 LINE"
);
},
{
closed = 1;
nodes = (
"200 400 LINE",
"200 300 LINE",
"300 300 LINE",
"300 400 LINE"
);
},
{
closed = 1;
nodes = (
"400 300 LINE",
"500 300 LINE",
"500 400 LINE",
"400 400 LINE"
);
},
{
closed = 1;
nodes = (
"300 300 LINE",
"300 0 LINE",
"400 0 LINE",
"400 300 LINE"
);
},
{
closed = 1;
nodes = (
"300 800 LINE",
"400 800 LINE",
"400 900 LINE",
"300 900 LINE"
);
},
{
closed = 1;
nodes = (
"400 900 LINE",
"500 900 LINE",
"500 1000 LINE",
"400 1000 LINE"
);
}
);
width = 700;
}
);
},
{
glyphname = Ydieresis.ss01;
lastChange = "2021-05-02 17:21:25 +0000";
layers = (
{
layerId = "32649BF3-7508-413C-B85E-1CA78B2743BE";
paths = (
{
closed = 1;
nodes = (
"200 700 LINE",
"100 700 LINE",
"100 400 LINE",
"200 400 LINE"
);
},
{
closed = 1;
nodes = (
"500 700 LINE",
"500 400 LINE",
"600 400 LINE",
"600 700 LINE"
);
},
{
closed = 1;
nodes = (
"200 400 LINE",
"200 300 LINE",
"300 300 LINE",
"300 400 LINE"
);
},
{
closed = 1;
nodes = (
"400 300 LINE",
"500 300 LINE",
"500 400 LINE",
"400 400 LINE"
);
},
{
closed = 1;
nodes = (
"300 300 LINE",
"300 0 LINE",
"400 0 LINE",
"400 300 LINE"
);
},
{
closed = 1;
nodes = (
"200 800 LINE",
"300 800 LINE",
"300 900 LINE",
"200 900 LINE"
);
},
{
closed = 1;
nodes = (
"300 900 LINE",
"400 900 LINE",
"400 1000 LINE",
"300 1000 LINE"
);
},
{
closed = 1;
nodes = (
"400 800 LINE",
"500 800 LINE",
"500 900 LINE",
"400 900 LINE"
);
}
);
width = 700;
}
);
},
{
glyphname = a;
layers = (
{
hints = (
{
horizontal = 1;
place = "{0, 100}";
type = Stem;
},
{
horizontal = 1;
place = "{400, 100}";
type = Stem;
},
{
place = "{200, 200}";
type = Stem;
},
{
place = "{500, 100}";
type = Stem;
},
{
horizontal = 1;
place = "{100, 100}";
type = Stem;
},
{
horizontal = 1;
place = "{300, 100}";
type = Stem;
},
{
horizontal = 1;
place = "{100, 300}";
type = Stem;
},
{
place = "{100, 100}";
type = Stem;
}
);
layerId = "32649BF3-7508-413C-B85E-1CA78B2743BE";
paths = (
{
closed = 1;
nodes = (
"400 400 LINE",
"400 500 LINE",
"200 500 LINE",
"200 400 LINE"
);
},
{
closed = 1;
nodes = (
"500 500 LINE",
"500 400 LINE",
"400 400 LINE",
"400 300 LINE",
"500 300 LINE",
"500 200 LINE",
"400 200 LINE",
"400 100 LINE",
"500 100 LINE",
"500 0 LINE",
"600 0 LINE",
"600 500 LINE"
);
},
{
closed = 1;
nodes = (
"200 100 LINE",
"200 400 LINE",
"100 400 LINE",
"100 100 LINE"
);
},
{
closed = 1;
nodes = (
"200 0 LINE",
"400 0 LINE",
"400 100 LINE",
"200 100 LINE"
);
}
);
width = 700;
}
);
note = a;
unicode = 0061;
},
{
glyphname = aacute;
lastChange = "2021-04-25 09:49:54 +0000";
layers = (
{
layerId = "32649BF3-7508-413C-B85E-1CA78B2743BE";
paths = (
{
closed = 1;
nodes = (
"400 700 LINE",
"400 600 LINE",
"500 600 LINE",
"500 700 LINE"
);
},
{
closed = 1;
nodes = (
"400 400 LINE",
"400 600 LINE",
"300 600 LINE",
"300 500 LINE",
"200 500 LINE",
"200 400 LINE"
);
},
{
closed = 1;
nodes = (
"500 500 LINE",
"500 400 LINE",
"400 400 LINE",
"400 300 LINE",
"500 300 LINE",
"500 200 LINE",
"400 200 LINE",
"400 100 LINE",
"500 100 LINE",
"500 0 LINE",
"600 0 LINE",
"600 500 LINE"
);
},
{
closed = 1;
nodes = (
"100 400 LINE",
"100 100 LINE",
"200 100 LINE",
"200 400 LINE"
);
},
{
closed = 1;
nodes = (
"200 0 LINE",
"400 0 LINE",
"400 100 LINE",
"200 100 LINE"
);
}
);
width = 700;
}
);
unicode = 00E1;
},
{
glyphname = acircumflex;
lastChange = "2021-04-25 09:51:46 +0000";
layers = (
{
layerId = "32649BF3-7508-413C-B85E-1CA78B2743BE";
paths = (
{
closed = 1;
nodes = (
"300 700 LINE",
"300 600 LINE",
"400 600 LINE",
"400 700 LINE"
);
},
{
closed = 1;
nodes = (
"400 400 LINE",
"400 500 LINE",
"200 500 LINE",
"200 400 LINE"
);
},
{
closed = 1;
nodes = (
"500 500 LINE",
"500 400 LINE",
"400 400 LINE",
"400 300 LINE",
"500 300 LINE",
"500 200 LINE",
"400 200 LINE",
"400 100 LINE",
"500 100 LINE",
"500 0 LINE",
"600 0 LINE",
"600 500 LINE"
);
},
{
closed = 1;
nodes = (
"100 400 LINE",
"100 100 LINE",
"200 100 LINE",
"200 400 LINE"
);
},
{
closed = 1;
nodes = (
"200 0 LINE",
"400 0 LINE",
"400 100 LINE",
"200 100 LINE"
);
},
{
closed = 1;
nodes = (
"200 600 LINE",
"200 500 LINE",
"300 500 LINE",
"300 600 LINE"
);
},
{
closed = 1;
nodes = (
"400 600 LINE",
"400 500 LINE",
"500 500 LINE",
"500 600 LINE"
);
}
);
width = 700;
}
);
unicode = 00E2;
},
{
glyphname = adieresis;
lastChange = "2021-04-25 09:52:16 +0000";
layers = (
{
layerId = "32649BF3-7508-413C-B85E-1CA78B2743BE";
paths = (
{
closed = 1;
nodes = (
"400 400 LINE",
"400 500 LINE",
"200 500 LINE",
"200 400 LINE"
);
},
{
closed = 1;
nodes = (
"500 500 LINE",
"500 400 LINE",
"400 400 LINE",
"400 300 LINE",
"500 300 LINE",
"500 200 LINE",
"400 200 LINE",
"400 100 LINE",
"500 100 LINE",
"500 0 LINE",
"600 0 LINE",
"600 500 LINE"
);
},
{
closed = 1;
nodes = (
"100 400 LINE",
"100 100 LINE",
"200 100 LINE",
"200 400 LINE"
);
},
{
closed = 1;
nodes = (
"200 0 LINE",
"400 0 LINE",
"400 100 LINE",
"200 100 LINE"
);
},
{
closed = 1;
nodes = (
"200 700 LINE",
"200 600 LINE",
"300 600 LINE",
"300 700 LINE"
);
},
{
closed = 1;
nodes = (
"400 700 LINE",
"400 600 LINE",
"500 600 LINE",
"500 700 LINE"
);
}
);
width = 700;
}
);
unicode = 00E4;
},
{
glyphname = agrave;
layers = (
{
hints = (
{
horizontal = 1;
place = "{0, 100}";
type = Stem;
},
{
horizontal = 1;
place = "{400, 100}";
type = Stem;
},
{
horizontal = 1;
place = "{600, 100}";
type = Stem;
},
{
place = "{200, 100}";
type = Stem;
},
{
place = "{500, 100}";
type = Stem;
},
{
place = "{100, 100}";
type = Stem;
},
{
place = "{300, 100}";
type = Stem;
},
{
horizontal = 1;
place = "{100, 100}";
type = Stem;
},
{
horizontal = 1;
place = "{300, 100}";
type = Stem;
},
{
horizontal = 1;
place = "{100, 300}";
type = Stem;
},
{
place = "{200, 200}";
type = Stem;
}
);
layerId = "32649BF3-7508-413C-B85E-1CA78B2743BE";
paths = (
{
closed = 1;
nodes = (
"200 700 LINE",
"200 600 LINE",
"300 600 LINE",
"300 700 LINE"
);
},
{
closed = 1;
nodes = (
"400 400 LINE",
"400 600 LINE",
"300 600 LINE",
"300 500 LINE",
"200 500 LINE",
"200 400 LINE"
);
},
{
closed = 1;
nodes = (
"500 500 LINE",
"500 400 LINE",
"400 400 LINE",
"400 300 LINE",
"500 300 LINE",
"500 200 LINE",
"400 200 LINE",
"400 100 LINE",
"500 100 LINE",
"500 0 LINE",
"600 0 LINE",
"600 500 LINE"
);
},
{
closed = 1;
nodes = (
"100 400 LINE",
"100 100 LINE",
"200 100 LINE",
"200 400 LINE"
);
},
{
closed = 1;
nodes = (
"200 0 LINE",
"400 0 LINE",
"400 100 LINE",
"200 100 LINE"
);
}
);
width = 700;
}
);
note = agrave;
unicode = 00E0;
},
{
glyphname = aring;
lastChange = "2021-04-25 09:54:08 +0000";
layers = (
{
layerId = "32649BF3-7508-413C-B85E-1CA78B2743BE";
paths = (
{
closed = 1;
nodes = (
"400 400 LINE",
"400 500 LINE",
"200 500 LINE",
"200 400 LINE"
);
},
{
closed = 1;
nodes = (
"500 500 LINE",
"500 400 LINE",
"400 400 LINE",
"400 300 LINE",
"500 300 LINE",
"500 200 LINE",
"400 200 LINE",
"400 100 LINE",
"500 100 LINE",
"500 0 LINE",
"600 0 LINE",
"600 500 LINE"
);
},
{
closed = 1;
nodes = (
"100 400 LINE",
"100 100 LINE",
"200 100 LINE",
"200 400 LINE"
);
},
{
closed = 1;
nodes = (
"200 0 LINE",
"400 0 LINE",
"400 100 LINE",
"200 100 LINE"
);
},
{
closed = 1;
nodes = (
"200 700 LINE",
"200 600 LINE",
"500 600 LINE",
"500 700 LINE"
);
},
{
closed = 1;
nodes = (
"200 500 LINE",
"300 500 LINE",
"300 600 LINE",
"200 600 LINE"
);
},
{
closed = 1;
nodes = (
"400 500 LINE",
"500 500 LINE",
"500 600 LINE",
"400 600 LINE"
);
}
);
width = 700;
}
);
unicode = 00E5;
},
{
glyphname = atilde;
lastChange = "2021-04-25 09:54:42 +0000";
layers = (
{
layerId = "32649BF3-7508-413C-B85E-1CA78B2743BE";
paths = (
{
closed = 1;
nodes = (
"400 400 LINE",
"400 500 LINE",
"200 500 LINE",
"200 400 LINE"
);
},
{
closed = 1;
nodes = (
"500 500 LINE",
"500 400 LINE",
"400 400 LINE",
"400 300 LINE",
"500 300 LINE",
"500 200 LINE",
"400 200 LINE",
"400 100 LINE",
"500 100 LINE",
"500 0 LINE",
"600 0 LINE",
"600 500 LINE"
);
},
{
closed = 1;
nodes = (
"100 400 LINE",
"100 100 LINE",
"200 100 LINE",
"200 400 LINE"
);
},
{
closed = 1;
nodes = (
"200 0 LINE",
"400 0 LINE",
"400 100 LINE",
"200 100 LINE"
);
},
{
closed = 1;
nodes = (
"300 700 LINE",
"300 600 LINE",
"400 600 LINE",
"400 700 LINE"
);
},
{
closed = 1;
nodes = (
"200 500 LINE",
"300 500 LINE",
"300 600 LINE",
"200 600 LINE"
);
},
{
closed = 1;
nodes = (
"400 500 LINE",
"500 500 LINE",
"500 600 LINE",
"400 600 LINE"
);
},
{
closed = 1;
nodes = (
"500 600 LINE",
"600 600 LINE",
"600 700 LINE",
"500 700 LINE"
);
}
);
width = 700;
}
);
unicode = 00E3;
},
{
glyphname = ae;
lastChange = "2021-04-25 10:07:27 +0000";
layers = (
{
layerId = "32649BF3-7508-413C-B85E-1CA78B2743BE";
paths = (
{
closed = 1;
nodes = (
"200 400 LINE",
"200 500 LINE",
"100 500 LINE",
"100 400 LINE"
);
},
{
closed = 1;
nodes = (
"300 500 LINE",
"300 400 LINE",
"200 400 LINE",
"200 300 LINE",
"300 300 LINE",
"300 200 LINE",
"200 200 LINE",
"200 100 LINE",
"300 100 LINE",
"300 0 LINE",
"400 0 LINE",
"400 500 LINE"
);
},
{
closed = 1;
nodes = (
"100 100 LINE",
"100 400 LINE",
"0 400 LINE",
"0 100 LINE"
);
},
{
closed = 1;
nodes = (
"100 0 LINE",
"200 0 LINE",
"200 100 LINE",
"100 100 LINE"
);
},
{
closed = 1;
nodes = (
"400 500 LINE",
"400 400 LINE",
"600 400 LINE",
"600 500 LINE"
);
},
{
closed = 1;
nodes = (
"700 200 LINE",
"700 400 LINE",
"600 400 LINE",
"600 300 LINE",
"400 300 LINE",
"400 400 LINE",
"400 200 LINE"
);
},
{
closed = 1;
nodes = (
"400 0 LINE",
"600 0 LINE",
"600 100 LINE",
"400 100 LINE"
);
}
);
width = 700;
},
{
associatedMasterId = "32649BF3-7508-413C-B85E-1CA78B2743BE";
layerId = "297D9B36-1C50-491B-B814-15BA33F4B957";
name = "Apr 25 21, 11:58";
paths = (
{
closed = 1;
nodes = (
"300 400 LINE",
"300 500 LINE",
"200 500 LINE",
"200 400 LINE"
);
},
{
closed = 1;
nodes = (
"400 500 LINE",
"400 400 LINE",
"300 400 LINE",
"300 300 LINE",
"400 300 LINE",
"400 200 LINE",
"300 200 LINE",
"300 100 LINE",
"400 100 LINE",
"400 0 LINE",
"500 0 LINE",
"500 500 LINE"
);
},
{
closed = 1;
nodes = (
"200 100 LINE",
"200 400 LINE",
"100 400 LINE",
"100 100 LINE"
);
},
{
closed = 1;
nodes = (
"200 0 LINE",
"300 0 LINE",
"300 100 LINE",
"200 100 LINE"
);
},
{
closed = 1;
nodes = (
"500 500 LINE",
"500 400 LINE",
"600 400 LINE",
"600 500 LINE"
);
},
{
closed = 1;
nodes = (
"500 100 LINE",
"500 200 LINE",
"700 200 LINE",
"700 400 LINE",
"600 400 LINE",
"600 300 LINE",
"500 300 LINE",
"500 400 LINE",
"400 400 LINE",
"400 100 LINE"
);
},
{
closed = 1;
nodes = (
"500 0 LINE",
"600 0 LINE",
"600 100 LINE",
"500 100 LINE"
);
}
);
width = 700;
},
{
associatedMasterId = "32649BF3-7508-413C-B85E-1CA78B2743BE";
layerId = "5A640F1B-365E-4D22-94E5-68CE4E254E2A";
name = "Apr 25 21, 12:03";
paths = (
{
closed = 1;
nodes = (
"200 400 LINE",
"200 500 LINE",
"100 500 LINE",
"100 400 LINE"
);
},
{
closed = 1;
nodes = (
"300 500 LINE",
"300 400 LINE",
"200 400 LINE",
"200 300 LINE",
"300 300 LINE",
"300 200 LINE",
"200 200 LINE",
"200 100 LINE",
"300 100 LINE",
"300 0 LINE",
"400 0 LINE",
"400 500 LINE"
);
},
{
closed = 1;
nodes = (
"100 100 LINE",
"100 400 LINE",
"0 400 LINE",
"0 100 LINE"
);
},
{
closed = 1;
nodes = (
"100 0 LINE",
"200 0 LINE",
"200 100 LINE",
"100 100 LINE"
);
},
{
closed = 1;
nodes = (
"400 500 LINE",
"400 400 LINE",
"600 400 LINE",
"600 500 LINE"
);
},
{
closed = 1;
nodes = (
"400 100 LINE",
"400 200 LINE",
"700 200 LINE",
"700 400 LINE",
"600 400 LINE",
"600 300 LINE",
"400 300 LINE",
"400 400 LINE",
"400 400 LINE",
"400 100 LINE"
);
},
{
closed = 1;
nodes = (
"400 0 LINE",
"600 0 LINE",
"600 100 LINE",
"400 100 LINE"
);
}
);
width = 700;
}
);
unicode = 00E6;
},
{
glyphname = b;
layers = (
{
hints = (
{
horizontal = 1;
place = "{0, 100}";
type = Stem;
},
{
horizontal = 1;
place = "{400, 100}";
type = Stem;
},
{
place = "{100, 100}";
type = Stem;
},
{
place = "{500, 100}";
type = Stem;
},
{
horizontal = 1;
place = "{100, 300}";
type = Stem;
}
);
layerId = "32649BF3-7508-413C-B85E-1CA78B2743BE";
paths = (
{
closed = 1;
nodes = (
"100 700 LINE",
"100 0 LINE",
"500 0 LINE",
"500 100 LINE",
"200 100 LINE",
"200 400 LINE",
"500 400 LINE",
"500 500 LINE",
"200 500 LINE",
"200 700 LINE"
);
},
{
closed = 1;
nodes = (
"500 400 LINE",
"500 100 LINE",
"600 100 LINE",
"600 400 LINE"
);
}
);
width = 700;
}
);
note = b;
unicode = 0062;
},
{
glyphname = c;
layers = (
{
hints = (
{
horizontal = 1;
place = "{0, 100}";
type = Stem;
},
{
horizontal = 1;
place = "{400, 100}";
type = Stem;
},
{
place = "{200, 300}";
type = Stem;
},
{
horizontal = 1;
place = "{100, 300}";
type = Stem;
},
{
place = "{100, 100}";
type = Stem;
}
);
layerId = "32649BF3-7508-413C-B85E-1CA78B2743BE";
paths = (
{
closed = 1;
nodes = (
"200 500 LINE",
"200 400 LINE",
"500 400 LINE",
"500 500 LINE"
);
},
{
closed = 1;
nodes = (
"200 100 LINE",
"200 400 LINE",
"100 400 LINE",
"100 100 LINE"
);
},
{
closed = 1;
nodes = (
"200 0 LINE",
"500 0 LINE",
"500 100 LINE",
"200 100 LINE"
);
}
);
width = 700;
}
);
note = c;
unicode = 0063;
},
{
glyphname = ccedilla;
layers = (
{
hints = (
{
horizontal = 1;
place = "{-201, 100}";
type = Stem;
},
{
horizontal = 1;
place = "{0, 100}";
type = Stem;
},
{
horizontal = 1;
place = "{400, 100}";
type = Stem;
},
{
place = "{200, 300}";
type = Stem;
},
{
horizontal = 1;
place = "{100, 300}";
type = Stem;
},
{
place = "{100, 100}";
type = Stem;
},
{
place = "{300, 100}";
type = Stem;
},
{
place = "{200, 100}";
type = Stem;
},
{
horizontal = 1;
place = "{-101, 100}";
type = Stem;
}
);
layerId = "32649BF3-7508-413C-B85E-1CA78B2743BE";
paths = (
{
closed = 1;
nodes = (
"200 500 LINE",
"200 400 LINE",
"500 400 LINE",
"500 500 LINE"
);
},
{
closed = 1;
nodes = (
"200 100 LINE",
"200 400 LINE",
"100 400 LINE",
"100 100 LINE"
);
},
{
closed = 1;
nodes = (
"200 0 LINE",
"500 0 LINE",
"500 100 LINE",
"200 100 LINE"
);
},
{
closed = 1;
nodes = (
"300 -1 LINE",
"300 -101 LINE",
"400 -101 LINE",
"400 -1 LINE"
);
},
{
closed = 1;
nodes = (
"200 -101 LINE",
"200 -201 LINE",
"300 -201 LINE",
"300 -101 LINE"
);
}
);
width = 700;
}
);
note = ccedilla;
unicode = 00E7;
},
{
glyphname = d;
layers = (
{
hints = (
{
horizontal = 1;
place = "{0, 100}";
type = Stem;
},
{
horizontal = 1;
place = "{400, 100}";
type = Stem;
},
{
place = "{100, 100}";
type = Stem;
},
{
place = "{500, 100}";
type = Stem;
},
{
horizontal = 1;
place = "{100, 300}";
type = Stem;
}
);
layerId = "32649BF3-7508-413C-B85E-1CA78B2743BE";
paths = (
{
closed = 1;
nodes = (
"500 700 LINE",
"500 500 LINE",
"200 500 LINE",
"200 400 LINE",
"500 400 LINE",
"500 100 LINE",
"200 100 LINE",
"200 0 LINE",
"600 0 LINE",
"600 700 LINE"
);
},
{
closed = 1;
nodes = (
"200 100 LINE",
"200 400 LINE",
"100 400 LINE",
"100 100 LINE"
);
}
);
width = 700;
}
);
note = d;
unicode = 0064;
},
{
glyphname = e;
layers = (
{
hints = (
{
horizontal = 1;
place = "{0, 100}";
type = Stem;
},
{
horizontal = 1;
place = "{200, 100}";
type = Stem;
},
{
horizontal = 1;
place = "{400, 100}";
type = Stem;
},
{
place = "{200, 300}";
type = Stem;
},
{
place = "{100, 100}";
type = Stem;
},
{
place = "{500, 100}";
type = Stem;
}
);
layerId = "32649BF3-7508-413C-B85E-1CA78B2743BE";
paths = (
{
closed = 1;
nodes = (
"200 500 LINE",
"200 400 LINE",
"500 400 LINE",
"500 500 LINE"
);
},
{
closed = 1;
nodes = (
"200 100 LINE",
"200 200 LINE",
"600 200 LINE",
"600 400 LINE",
"500 400 LINE",
"500 300 LINE",
"200 300 LINE",
"200 400 LINE",
"100 400 LINE",
"100 100 LINE"
);
},
{
closed = 1;
nodes = (
"200 0 LINE",
"500 0 LINE",
"500 100 LINE",
"200 100 LINE"
);
}
);
width = 700;
}
);
note = e;
unicode = 0065;
},
{
glyphname = eacute;
lastChange = "2021-04-25 09:51:28 +0000";
layers = (
{
hints = (
{
horizontal = 1;
place = "{0, 100}";
type = Stem;
},
{
horizontal = 1;
place = "{200, 100}";
type = Stem;
},
{
horizontal = 1;
place = "{400, 100}";
type = Stem;
},
{
horizontal = 1;
place = "{600, 100}";
type = Stem;
},
{
place = "{100, 100}";
type = Stem;
},
{
place = "{400, 100}";
type = Stem;
},
{
place = "{300, 100}";
type = Stem;
},
{
place = "{500, 100}";
type = Stem;
},
{
place = "{200, 300}";
type = Stem;
}
);
layerId = "32649BF3-7508-413C-B85E-1CA78B2743BE";
paths = (
{
closed = 1;
nodes = (
"400 700 LINE",
"400 600 LINE",
"500 600 LINE",
"500 700 LINE"
);
},
{
closed = 1;
nodes = (
"200 500 LINE",
"200 400 LINE",
"500 400 LINE",
"500 500 LINE",
"400 500 LINE",
"400 600 LINE",
"300 600 LINE",
"300 500 LINE"
);
},
{
closed = 1;
nodes = (
"200 100 LINE",
"200 200 LINE",
"600 200 LINE",
"600 400 LINE",
"500 400 LINE",
"500 300 LINE",
"200 300 LINE",
"200 400 LINE",
"100 400 LINE",
"100 100 LINE"
);
},
{
closed = 1;
nodes = (
"200 0 LINE",
"500 0 LINE",
"500 100 LINE",
"200 100 LINE"
);
}
);
width = 700;
}
);
note = eacute;
unicode = 00E9;
},
{
glyphname = ecircumflex;
lastChange = "2021-04-25 10:08:11 +0000";
layers = (
{
hints = (
{
horizontal = 1;
place = "{0, 100}";
type = Stem;
},
{
horizontal = 1;
place = "{200, 100}";
type = Stem;
},
{
horizontal = 1;
place = "{600, 100}";
type = Stem;
},
{
place = "{100, 100}";
type = Stem;
},
{
place = "{300, 100}";
type = Stem;
},
{
place = "{500, 100}";
type = Stem;
},
{
horizontal = 1;
place = "{500, 100}";
type = Stem;
},
{
place = "{200, 100}";
type = Stem;
},
{
horizontal = 1;
place = "{400, 100}";
type = Stem;
},
{
place = "{400, 100}";
type = Stem;
},
{
place = "{200, 300}";
type = Stem;
}
);
layerId = "32649BF3-7508-413C-B85E-1CA78B2743BE";
paths = (
{
closed = 1;
nodes = (
"300 700 LINE",
"300 600 LINE",
"400 600 LINE",
"400 700 LINE"
);
},
{
closed = 1;
nodes = (
"200 400 LINE",
"500 400 LINE",
"500 500 LINE",
"500 600 LINE",
"400 600 LINE",
"400 500 LINE",
"300 500 LINE",
"300 600 LINE",
"200 600 LINE",
"200 500 LINE"
);
},
{
closed = 1;
nodes = (
"200 100 LINE",
"200 200 LINE",
"600 200 LINE",
"600 400 LINE",
"500 400 LINE",
"500 300 LINE",
"200 300 LINE",
"200 400 LINE",
"100 400 LINE",
"100 100 LINE"
);
},
{
closed = 1;
nodes = (
"200 0 LINE",
"500 0 LINE",
"500 100 LINE",
"200 100 LINE"
);
}
);
width = 700;
},
{
associatedMasterId = "32649BF3-7508-413C-B85E-1CA78B2743BE";
hints = (
{
horizontal = 1;
place = "{0, 100}";
type = Stem;
},
{
horizontal = 1;
place = "{200, 100}";
type = Stem;
},
{
horizontal = 1;
place = "{600, 100}";
type = Stem;
},
{
place = "{100, 100}";
type = Stem;
},
{
place = "{300, 100}";
type = Stem;
},
{
place = "{500, 100}";
type = Stem;
},
{
horizontal = 1;
place = "{500, 100}";
type = Stem;
},
{
place = "{200, 100}";
type = Stem;
},
{
horizontal = 1;
place = "{400, 100}";
type = Stem;
},
{
place = "{400, 100}";
type = Stem;
},
{
place = "{200, 300}";
type = Stem;
}
);
layerId = "961451AF-E74F-447A-8960-217077C684F2";
name = "Apr 25 21, 10:54";
paths = (
{
closed = 1;
nodes = (
"300 700 LINE",
"300 600 LINE",
"400 600 LINE",
"400 700 LINE"
);
},
{
closed = 1;
nodes = (
"200 500 LINE",
"200 400 LINE",
"500 400 LINE",
"500 500 LINE",
"600 500 LINE",
"600 600 LINE",
"400 600 LINE",
"400 500 LINE",
"300 500 LINE",
"300 600 LINE",
"100 600 LINE",
"100 500 LINE"
);
},
{
closed = 1;
nodes = (
"200 100 LINE",
"200 200 LINE",
"600 200 LINE",
"600 400 LINE",
"500 400 LINE",
"500 300 LINE",
"200 300 LINE",
"200 400 LINE",
"100 400 LINE",
"100 100 LINE"
);
},
{
closed = 1;
nodes = (
"200 0 LINE",
"500 0 LINE",
"500 100 LINE",
"200 100 LINE"
);
}
);
width = 700;
}
);
note = ecircumflex;
unicode = 00EA;
},
{
glyphname = edieresis;
lastChange = "2021-04-25 10:08:50 +0000";
layers = (
{
layerId = "32649BF3-7508-413C-B85E-1CA78B2743BE";
paths = (
{
closed = 1;
nodes = (
"200 400 LINE",
"500 400 LINE",
"500 500 LINE",
"200 500 LINE"
);
},
{
closed = 1;
nodes = (
"200 100 LINE",
"200 200 LINE",
"600 200 LINE",
"600 400 LINE",
"500 400 LINE",
"500 300 LINE",
"200 300 LINE",
"200 400 LINE",
"100 400 LINE",
"100 100 LINE"
);
},
{
closed = 1;
nodes = (
"200 0 LINE",
"500 0 LINE",
"500 100 LINE",
"200 100 LINE"
);
},
{
closed = 1;
nodes = (
"200 600 LINE",
"300 600 LINE",
"300 700 LINE",
"200 700 LINE"
);
},
{
closed = 1;
nodes = (
"400 600 LINE",
"500 600 LINE",
"500 700 LINE",
"400 700 LINE"
);
}
);
width = 700;
}
);
unicode = 00EB;
},
{
glyphname = egrave;
layers = (
{
hints = (
{
horizontal = 1;
place = "{0, 100}";
type = Stem;
},
{
horizontal = 1;
place = "{200, 100}";
type = Stem;
},
{
horizontal = 1;
place = "{400, 100}";
type = Stem;
},
{
horizontal = 1;
place = "{600, 100}";
type = Stem;
},
{
place = "{200, 100}";
type = Stem;
},
{
place = "{500, 100}";
type = Stem;
},
{
place = "{100, 100}";
type = Stem;
},
{
place = "{300, 100}";
type = Stem;
},
{
place = "{200, 300}";
type = Stem;
}
);
layerId = "32649BF3-7508-413C-B85E-1CA78B2743BE";
paths = (
{
closed = 1;
nodes = (
"300 600 LINE",
"300 700 LINE",
"200 700 LINE",
"200 600 LINE"
);
},
{
closed = 1;
nodes = (
"200 500 LINE",
"200 400 LINE",
"500 400 LINE",
"500 500 LINE",
"400 500 LINE",
"400 600 LINE",
"300 600 LINE",
"300 500 LINE"
);
},
{
closed = 1;
nodes = (
"200 100 LINE",
"200 200 LINE",
"600 200 LINE",
"600 400 LINE",
"500 400 LINE",
"500 300 LINE",
"200 300 LINE",
"200 400 LINE",
"100 400 LINE",
"100 100 LINE"
);
},
{
closed = 1;
nodes = (
"200 0 LINE",
"500 0 LINE",
"500 100 LINE",
"200 100 LINE"
);
}
);
width = 700;
}
);
note = egrave;
unicode = 00E8;
},
{
glyphname = f;
layers = (
{
hints = (
{
horizontal = 1;
place = "{300, 100}";
type = Stem;
},
{
horizontal = 1;
place = "{600, 100}";
type = Stem;
},
{
place = "{400, 200}";
type = Stem;
},
{
horizontal = 1;
place = "{500, 100}";
type = Stem;
},
{
place = "{300, 100}";
type = Stem;
},
{
place = "{600, 100}";
type = Stem;
}
);
layerId = "32649BF3-7508-413C-B85E-1CA78B2743BE";
paths = (
{
closed = 1;
nodes = (
"400 700 LINE",
"400 600 LINE",
"600 600 LINE",
"600 700 LINE"
);
},
{
closed = 1;
nodes = (
"200 400 LINE",
"200 300 LINE",
"300 300 LINE",
"300 0 LINE",
"400 0 LINE",
"400 300 LINE",
"500 300 LINE",
"500 400 LINE",
"400 400 LINE",
"400 600 LINE",
"300 600 LINE",
"300 400 LINE"
);
},
{
closed = 1;
nodes = (
"600 600 LINE",
"600 500 LINE",
"700 500 LINE",
"700 600 LINE"
);
}
);
width = 700;
}
);
note = f;
unicode = 0066;
},
{
glyphname = g;
layers = (
{
hints = (
{
horizontal = 1;
place = "{-200, 100}";
type = Stem;
},
{
horizontal = 1;
place = "{100, 100}";
type = Stem;
},
{
horizontal = 1;
place = "{400, 100}";
type = Stem;
},
{
place = "{500, 100}";
type = Stem;
},
{
horizontal = 1;
place = "{-100, 100}";
type = Stem;
},
{
horizontal = 1;
place = "{200, 200}";
type = Stem;
}
);
layerId = "32649BF3-7508-413C-B85E-1CA78B2743BE";
paths = (
{
closed = 1;
nodes = (
"200 500 LINE",
"200 400 LINE",
"500 400 LINE",
"500 200 LINE",
"200 200 LINE",
"200 100 LINE",
"500 100 LINE",
"500 -100 LINE",
"600 -100 LINE",
"600 500 LINE"
);
},
{
closed = 1;
nodes = (
"100 400 LINE",
"100 200 LINE",
"200 200 LINE",
"200 400 LINE"
);
},
{
closed = 1;
nodes = (
"100 0 LINE",
"100 -100 LINE",
"200 -100 LINE",
"200 0 LINE"
);
},
{
closed = 1;
nodes = (
"200 -100 LINE",
"200 -200 LINE",
"500 -200 LINE",
"500 -100 LINE"
);
}
);
width = 700;
}
);
note = g;
unicode = 0067;
},
{
glyphname = h;
layers = (
{
hints = (
{
horizontal = 1;
place = "{400, 100}";
type = Stem;
},
{
place = "{100, 100}";
type = Stem;
},
{
place = "{500, 100}";
type = Stem;
},
{
horizontal = 1;
place = "{300, 100}";
type = Stem;
},
{
place = "{300, 200}";
type = Stem;
}
);
layerId = "32649BF3-7508-413C-B85E-1CA78B2743BE";
paths = (
{
closed = 1;
nodes = (
"100 700 LINE",
"100 0 LINE",
"200 0 LINE",
"200 300 LINE",
"300 300 LINE",
"300 400 LINE",
"200 400 LINE",
"200 700 LINE"
);
},
{
closed = 1;
nodes = (
"300 500 LINE",
"300 400 LINE",
"500 400 LINE",
"500 500 LINE"
);
},
{
closed = 1;
nodes = (
"500 400 LINE",
"500 0 LINE",
"600 0 LINE",
"600 400 LINE"
);
}
);
width = 700;
}
);
note = h;
unicode = 0068;
},
{
glyphname = i;
layers = (
{
hints = (
{
horizontal = 1;
place = "{0, 100}";
type = Stem;
},
{
horizontal = 1;
place = "{400, 100}";
type = Stem;
},
{
horizontal = 1;
place = "{600, 100}";
type = Stem;
},
{
place = "{300, 100}";
type = Stem;
},
{
place = "{200, 200}";
type = Stem;
}
);
layerId = "32649BF3-7508-413C-B85E-1CA78B2743BE";
paths = (
{
closed = 1;
nodes = (
"300 700 LINE",
"300 600 LINE",
"400 600 LINE",
"400 700 LINE"
);
},
{
closed = 1;
nodes = (
"200 500 LINE",
"200 400 LINE",
"300 400 LINE",
"300 100 LINE",
"200 100 LINE",
"200 0 LINE",
"500 0 LINE",
"500 100 LINE",
"400 100 LINE",
"400 500 LINE"
);
}
);
width = 700;
}
);
note = i;
unicode = 0069;
},
{
glyphname = idotless;
lastChange = "2021-04-27 07:16:08 +0000";
layers = (
{
layerId = "32649BF3-7508-413C-B85E-1CA78B2743BE";
paths = (
{
closed = 1;
nodes = (
"200 500 LINE",
"200 400 LINE",
"300 400 LINE",
"300 100 LINE",
"200 100 LINE",
"200 0 LINE",
"500 0 LINE",
"500 100 LINE",
"400 100 LINE",
"400 500 LINE"
);
}
);
width = 700;
}
);
unicode = 0131;
},
{
glyphname = iacute;
lastChange = "2021-04-25 10:09:30 +0000";
layers = (
{
layerId = "32649BF3-7508-413C-B85E-1CA78B2743BE";
paths = (
{
closed = 1;
nodes = (
"200 500 LINE",
"200 400 LINE",
"300 400 LINE",
"300 100 LINE",
"200 100 LINE",
"200 0 LINE",
"500 0 LINE",
"500 100 LINE",
"400 100 LINE",
"400 500 LINE"
);
},
{
closed = 1;
nodes = (
"300 500 LINE",
"400 500 LINE",
"400 600 LINE",
"300 600 LINE"
);
},
{
closed = 1;
nodes = (
"400 600 LINE",
"500 600 LINE",
"500 700 LINE",
"400 700 LINE"
);
}
);
width = 700;
}
);
unicode = 00ED;
},
{
glyphname = icircumflex;
lastChange = "2021-04-25 10:09:53 +0000";
layers = (
{
layerId = "32649BF3-7508-413C-B85E-1CA78B2743BE";
paths = (
{
closed = 1;
nodes = (
"200 500 LINE",
"200 400 LINE",
"300 400 LINE",
"300 100 LINE",
"200 100 LINE",
"200 0 LINE",
"500 0 LINE",
"500 100 LINE",
"400 100 LINE",
"400 500 LINE"
);
},
{
closed = 1;
nodes = (
"300 600 LINE",
"400 600 LINE",
"400 700 LINE",
"300 700 LINE"
);
},
{
closed = 1;
nodes = (
"400 500 LINE",
"500 500 LINE",
"500 600 LINE",
"400 600 LINE"
);
},
{
closed = 1;
nodes = (
"200 500 LINE",
"300 500 LINE",
"300 600 LINE",
"200 600 LINE"
);
}
);
width = 700;
}
);
unicode = 00EE;
},
{
glyphname = idieresis;
lastChange = "2021-04-25 10:10:08 +0000";
layers = (
{
layerId = "32649BF3-7508-413C-B85E-1CA78B2743BE";
paths = (
{
closed = 1;
nodes = (
"200 500 LINE",
"200 400 LINE",
"300 400 LINE",
"300 100 LINE",
"200 100 LINE",
"200 0 LINE",
"500 0 LINE",
"500 100 LINE",
"400 100 LINE",
"400 500 LINE"
);
},
{
closed = 1;
nodes = (
"200 600 LINE",
"300 600 LINE",
"300 700 LINE",
"200 700 LINE"
);
},
{
closed = 1;
nodes = (
"400 600 LINE",
"500 600 LINE",
"500 700 LINE",
"400 700 LINE"
);
}
);
width = 700;
}
);
unicode = 00EF;
},
{
glyphname = igrave;
lastChange = "2021-04-25 10:10:22 +0000";
layers = (
{
layerId = "32649BF3-7508-413C-B85E-1CA78B2743BE";
paths = (
{
closed = 1;
nodes = (
"200 500 LINE",
"200 400 LINE",
"300 400 LINE",
"300 100 LINE",
"200 100 LINE",
"200 0 LINE",
"500 0 LINE",
"500 100 LINE",
"400 100 LINE",
"400 500 LINE"
);
},
{
closed = 1;
nodes = (
"300 500 LINE",
"400 500 LINE",
"400 600 LINE",
"300 600 LINE"
);
},
{
closed = 1;
nodes = (
"200 600 LINE",
"300 600 LINE",
"300 700 LINE",
"200 700 LINE"
);
}
);
width = 700;
}
);
unicode = 00EC;
},
{
glyphname = ij;
lastChange = "2021-04-25 08:49:25 +0000";
layers = (
{
layerId = "32649BF3-7508-413C-B85E-1CA78B2743BE";
paths = (
{
closed = 1;
nodes = (
"200 700 LINE",
"200 600 LINE",
"300 600 LINE",
"300 700 LINE"
);
},
{
closed = 1;
nodes = (
"400 500 LINE",
"400 400 LINE",
"500 400 LINE",
"500 -100 LINE",
"600 -100 LINE",
"600 500 LINE"
);
},
{
closed = 1;
nodes = (
"500 -100 LINE",
"300 -100 LINE",
"300 -200 LINE",
"500 -200 LINE"
);
},
{
closed = 1;
nodes = (
"300 100 LINE",
"300 500 LINE",
"100 500 LINE",
"100 400 LINE",
"200 400 LINE",
"200 100 LINE"
);
},
{
closed = 1;
nodes = (
"500 700 LINE",
"500 600 LINE",
"600 600 LINE",
"600 700 LINE"
);
},
{
closed = 1;
nodes = (
"200 -100 LINE",
"300 -100 LINE",
"300 0 LINE",
"200 0 LINE"
);
}
);
width = 700;
},
{
associatedMasterId = "32649BF3-7508-413C-B85E-1CA78B2743BE";
layerId = "92E057DA-94D4-4366-9C8B-BBA632A3DF15";
name = "Apr 25 21, 10:47";
paths = (
{
closed = 1;
nodes = (
"200 700 LINE",
"200 600 LINE",
"300 600 LINE",
"300 700 LINE"
);
},
{
closed = 1;
nodes = (
"400 500 LINE",
"400 400 LINE",
"500 400 LINE",
"500 0 LINE",
"600 0 LINE",
"600 500 LINE"
);
},
{
closed = 1;
nodes = (
"500 0 LINE",
"300 0 LINE",
"300 -100 LINE",
"500 -100 LINE"
);
},
{
closed = 1;
nodes = (
"300 0 LINE",
"300 500 LINE",
"100 500 LINE",
"100 400 LINE",
"200 400 LINE",
"200 100 LINE",
"100 100 LINE",
"100 0 LINE"
);
},
{
closed = 1;
nodes = (
"500 700 LINE",
"500 600 LINE",
"600 600 LINE",
"600 700 LINE"
);
}
);
width = 700;
},
{
associatedMasterId = "32649BF3-7508-413C-B85E-1CA78B2743BE";
layerId = "0D9BDC0E-E8EA-44CC-9CDB-C0FE3DC5E831";
name = "Apr 25 21, 10:48";
paths = (
{
closed = 1;
nodes = (
"200 700 LINE",
"200 600 LINE",
"300 600 LINE",
"300 700 LINE"
);
},
{
closed = 1;
nodes = (
"400 500 LINE",
"400 400 LINE",
"500 400 LINE",
"500 -100 LINE",
"600 -100 LINE",
"600 500 LINE"
);
},
{
closed = 1;
nodes = (
"500 -100 LINE",
"300 -100 LINE",
"300 -200 LINE",
"500 -200 LINE"
);
},
{
closed = 1;
nodes = (
"300 0 LINE",
"300 500 LINE",
"100 500 LINE",
"100 400 LINE",
"200 400 LINE",
"200 100 LINE",
"100 100 LINE",
"100 0 LINE"
);
},
{
closed = 1;
nodes = (
"500 700 LINE",
"500 600 LINE",
"600 600 LINE",
"600 700 LINE"
);
},
{
closed = 1;
nodes = (
"200 -100 LINE",
"300 -100 LINE",
"300 0 LINE",
"200 0 LINE"
);
}
);
width = 700;
}
);
unicode = 0133;
},
{
glyphname = j;
layers = (
{
hints = (
{
horizontal = 1;
place = "{-200, 100}";
type = Stem;
},
{
horizontal = 1;
place = "{400, 100}";
type = Stem;
},
{
horizontal = 1;
place = "{600, 100}";
type = Stem;
},
{
place = "{100, 100}";
type = Stem;
},
{
place = "{400, 100}";
type = Stem;
},
{
horizontal = 1;
place = "{-100, 100}";
type = Stem;
},
{
place = "{200, 200}";
type = Stem;
}
);
layerId = "32649BF3-7508-413C-B85E-1CA78B2743BE";
paths = (
{
closed = 1;
nodes = (
"400 700 LINE",
"400 600 LINE",
"500 600 LINE",
"500 700 LINE"
);
},
{
closed = 1;
nodes = (
"300 500 LINE",
"300 400 LINE",
"400 400 LINE",
"400 -100 LINE",
"500 -100 LINE",
"500 500 LINE"
);
},
{
closed = 1;
nodes = (
"200 -100 LINE",
"200 0 LINE",
"100 0 LINE",
"100 -100 LINE"
);
},
{
closed = 1;
nodes = (
"200 -200 LINE",
"400 -200 LINE",
"400 -100 LINE",
"200 -100 LINE"
);
}
);
width = 700;
}
);
note = j;
unicode = 006A;
},
{
glyphname = k;
layers = (
{
hints = (
{
horizontal = 1;
place = "{0, 100}";
type = Stem;
},
{
horizontal = 1;
place = "{200, 100}";
type = Stem;
},
{
horizontal = 1;
place = "{400, 100}";
type = Stem;
},
{
place = "{100, 100}";
type = Stem;
},
{
place = "{300, 100}";
type = Stem;
},
{
place = "{400, 100}";
type = Stem;
},
{
horizontal = 1;
place = "{100, 100}";
type = Stem;
},
{
horizontal = 1;
place = "{300, 100}";
type = Stem;
}
);
layerId = "32649BF3-7508-413C-B85E-1CA78B2743BE";
paths = (
{
closed = 1;
nodes = (
"200 300 LINE",
"200 700 LINE",
"100 700 LINE",
"100 0 LINE",
"200 0 LINE",
"200 200 LINE",
"300 200 LINE",
"300 300 LINE"
);
},
{
closed = 1;
nodes = (
"500 500 LINE",
"400 500 LINE",
"400 400 LINE",
"500 400 LINE"
);
},
{
closed = 1;
nodes = (
"400 400 LINE",
"300 400 LINE",
"300 300 LINE",
"400 300 LINE"
);
},
{
closed = 1;
nodes = (
"400 100 LINE",
"400 200 LINE",
"300 200 LINE",
"300 100 LINE"
);
},
{
closed = 1;
nodes = (
"500 0 LINE",
"500 100 LINE",
"400 100 LINE",
"400 0 LINE"
);
}
);
width = 700;
}
);
note = k;
unicode = 006B;
},
{
glyphname = l;
layers = (
{
hints = (
{
horizontal = 1;
place = "{0, 100}";
type = Stem;
},
{
horizontal = 1;
place = "{600, 100}";
type = Stem;
},
{
place = "{300, 100}";
type = Stem;
}
);
layerId = "32649BF3-7508-413C-B85E-1CA78B2743BE";
paths = (
{
closed = 1;
nodes = (
"400 100 LINE",
"400 700 LINE",
"200 700 LINE",
"200 600 LINE",
"300 600 LINE",
"300 100 LINE",
"200 100 LINE",
"200 0 LINE",
"500 0 LINE",
"500 100 LINE"
);
}
);
width = 700;
}
);
note = l;
unicode = 006C;
},
{
glyphname = m;
layers = (
{
hints = (
{
horizontal = 1;
place = "{400, 100}";
type = Stem;
},
{
place = "{100, 100}";
type = Stem;
},
{
place = "{300, 100}";
type = Stem;
},
{
place = "{500, 100}";
type = Stem;
},
{
place = "{400, 100}";
type = Stem;
}
);
layerId = "32649BF3-7508-413C-B85E-1CA78B2743BE";
paths = (
{
closed = 1;
nodes = (
"100 500 LINE",
"100 0 LINE",
"200 0 LINE",
"200 400 LINE",
"300 400 LINE",
"300 500 LINE"
);
},
{
closed = 1;
nodes = (
"400 500 LINE",
"400 400 LINE",
"500 400 LINE",
"500 500 LINE"
);
},
{
closed = 1;
nodes = (
"300 400 LINE",
"300 0 LINE",
"400 0 LINE",
"400 400 LINE"
);
},
{
closed = 1;
nodes = (
"500 400 LINE",
"500 0 LINE",
"600 0 LINE",
"600 400 LINE"
);
}
);
width = 700;
}
);
note = m;
unicode = 006D;
},
{
glyphname = n;
layers = (
{
hints = (
{
horizontal = 1;
place = "{400, 100}";
type = Stem;
},
{
place = "{100, 100}";
type = Stem;
},
{
place = "{500, 100}";
type = Stem;
},
{
horizontal = 1;
place = "{300, 100}";
type = Stem;
},
{
place = "{300, 200}";
type = Stem;
}
);
layerId = "32649BF3-7508-413C-B85E-1CA78B2743BE";
paths = (
{
closed = 1;
nodes = (
"100 500 LINE",
"100 0 LINE",
"200 0 LINE",
"200 300 LINE",
"300 300 LINE",
"300 400 LINE",
"200 400 LINE",
"200 500 LINE"
);
},
{
closed = 1;
nodes = (
"500 400 LINE",
"500 500 LINE",
"300 500 LINE",
"300 400 LINE"
);
},
{
closed = 1;
nodes = (
"500 0 LINE",
"600 0 LINE",
"600 400 LINE",
"500 400 LINE"
);
}
);
width = 700;
}
);
note = n;
unicode = 006E;
},
{
glyphname = ntilde;
lastChange = "2021-04-25 11:29:14 +0000";
layers = (
{
layerId = "32649BF3-7508-413C-B85E-1CA78B2743BE";
paths = (
{
closed = 1;
nodes = (
"100 500 LINE",
"100 0 LINE",
"200 0 LINE",
"200 300 LINE",
"300 300 LINE",
"300 400 LINE",
"200 400 LINE",
"200 500 LINE"
);
},
{
closed = 1;
nodes = (
"500 400 LINE",
"500 500 LINE",
"300 500 LINE",
"300 400 LINE"
);
},
{
closed = 1;
nodes = (
"500 0 LINE",
"600 0 LINE",
"600 400 LINE",
"500 400 LINE"
);
},
{
closed = 1;
nodes = (
"200 500 LINE",
"300 500 LINE",
"300 600 LINE",
"200 600 LINE"
);
},
{
closed = 1;
nodes = (
"300 600 LINE",
"400 600 LINE",
"400 700 LINE",
"300 700 LINE"
);
},
{
closed = 1;
nodes = (
"400 500 LINE",
"500 500 LINE",
"500 600 LINE",
"400 600 LINE"
);
},
{
closed = 1;
nodes = (
"500 600 LINE",
"600 600 LINE",
"600 700 LINE",
"500 700 LINE"
);
}
);
width = 700;
}
);
unicode = 00F1;
},
{
glyphname = o;
layers = (
{
hints = (
{
horizontal = 1;
place = "{0, 100}";
type = Stem;
},
{
horizontal = 1;
place = "{400, 100}";
type = Stem;
},
{
place = "{200, 300}";
type = Stem;
},
{
horizontal = 1;
place = "{100, 300}";
type = Stem;
},
{
place = "{100, 100}";
type = Stem;
},
{
place = "{500, 100}";
type = Stem;
}
);
layerId = "32649BF3-7508-413C-B85E-1CA78B2743BE";
paths = (
{
closed = 1;
nodes = (
"200 500 LINE",
"200 400 LINE",
"500 400 LINE",
"500 500 LINE"
);
},
{
closed = 1;
nodes = (
"200 100 LINE",
"200 400 LINE",
"100 400 LINE",
"100 100 LINE"
);
},
{
closed = 1;
nodes = (
"500 400 LINE",
"500 100 LINE",
"600 100 LINE",
"600 400 LINE"
);
},
{
closed = 1;
nodes = (
"200 0 LINE",
"500 0 LINE",
"500 100 LINE",
"200 100 LINE"
);
}
);
width = 700;
}
);
note = o;
unicode = 006F;
},
{
glyphname = oacute;
lastChange = "2021-04-25 11:29:46 +0000";
layers = (
{
layerId = "32649BF3-7508-413C-B85E-1CA78B2743BE";
paths = (
{
closed = 1;
nodes = (
"200 500 LINE",
"200 400 LINE",
"500 400 LINE",
"500 500 LINE"
);
},
{
closed = 1;
nodes = (
"200 100 LINE",
"200 400 LINE",
"100 400 LINE",
"100 100 LINE"
);
},
{
closed = 1;
nodes = (
"500 400 LINE",
"500 100 LINE",
"600 100 LINE",
"600 400 LINE"
);
},
{
closed = 1;
nodes = (
"200 0 LINE",
"500 0 LINE",
"500 100 LINE",
"200 100 LINE"
);
},
{
closed = 1;
nodes = (
"300 500 LINE",
"400 500 LINE",
"400 600 LINE",
"300 600 LINE"
);
},
{
closed = 1;
nodes = (
"400 600 LINE",
"500 600 LINE",
"500 700 LINE",
"400 700 LINE"
);
}
);
width = 700;
}
);
unicode = 00F3;
},
{
glyphname = ocircumflex;
lastChange = "2021-04-25 11:29:58 +0000";
layers = (
{
layerId = "32649BF3-7508-413C-B85E-1CA78B2743BE";
paths = (
{
closed = 1;
nodes = (
"200 500 LINE",
"200 400 LINE",
"500 400 LINE",
"500 500 LINE"
);
},
{
closed = 1;
nodes = (
"200 100 LINE",
"200 400 LINE",
"100 400 LINE",
"100 100 LINE"
);
},
{
closed = 1;
nodes = (
"500 400 LINE",
"500 100 LINE",
"600 100 LINE",
"600 400 LINE"
);
},
{
closed = 1;
nodes = (
"200 0 LINE",
"500 0 LINE",
"500 100 LINE",
"200 100 LINE"
);
},
{
closed = 1;
nodes = (
"300 600 LINE",
"400 600 LINE",
"400 700 LINE",
"300 700 LINE"
);
},
{
closed = 1;
nodes = (
"400 500 LINE",
"500 500 LINE",
"500 600 LINE",
"400 600 LINE"
);
},
{
closed = 1;
nodes = (
"200 500 LINE",
"300 500 LINE",
"300 600 LINE",
"200 600 LINE"
);
}
);
width = 700;
}
);
unicode = 00F4;
},
{
glyphname = ograve;
lastChange = "2021-04-25 11:30:08 +0000";
layers = (
{
layerId = "32649BF3-7508-413C-B85E-1CA78B2743BE";
paths = (
{
closed = 1;
nodes = (
"200 500 LINE",
"200 400 LINE",
"500 400 LINE",
"500 500 LINE"
);
},
{
closed = 1;
nodes = (
"200 100 LINE",
"200 400 LINE",
"100 400 LINE",
"100 100 LINE"
);
},
{
closed = 1;
nodes = (
"500 400 LINE",
"500 100 LINE",
"600 100 LINE",
"600 400 LINE"
);
},
{
closed = 1;
nodes = (
"200 0 LINE",
"500 0 LINE",
"500 100 LINE",
"200 100 LINE"
);
},
{
closed = 1;
nodes = (
"300 500 LINE",
"400 500 LINE",
"400 600 LINE",
"300 600 LINE"
);
},
{
closed = 1;
nodes = (
"200 600 LINE",
"300 600 LINE",
"300 700 LINE",
"200 700 LINE"
);
}
);
width = 700;
}
);
unicode = 00F2;
},
{
glyphname = oslash;
lastChange = "2021-04-25 11:30:23 +0000";
layers = (
{
layerId = "32649BF3-7508-413C-B85E-1CA78B2743BE";
paths = (
{
closed = 1;
nodes = (
"200 500 LINE",
"200 400 LINE",
"500 400 LINE",
"500 500 LINE"
);
},
{
closed = 1;
nodes = (
"200 100 LINE",
"200 400 LINE",
"100 400 LINE",
"100 100 LINE"
);
},
{
closed = 1;
nodes = (
"500 400 LINE",
"500 100 LINE",
"600 100 LINE",
"600 400 LINE"
);
},
{
closed = 1;
nodes = (
"200 0 LINE",
"500 0 LINE",
"500 100 LINE",
"200 100 LINE"
);
},
{
closed = 1;
nodes = (
"200 100 LINE",
"300 100 LINE",
"300 200 LINE",
"200 200 LINE"
);
},
{
closed = 1;
nodes = (
"300 200 LINE",
"400 200 LINE",
"400 300 LINE",
"300 300 LINE"
);
},
{
closed = 1;
nodes = (
"400 300 LINE",
"500 300 LINE",
"500 400 LINE",
"400 400 LINE"
);
}
);
width = 700;
}
);
unicode = 00F8;
},
{
glyphname = oe;
lastChange = "2021-04-25 11:32:04 +0000";
layers = (
{
layerId = "32649BF3-7508-413C-B85E-1CA78B2743BE";
paths = (
{
closed = 1;
nodes = (
"200 500 LINE",
"200 400 LINE",
"300 400 LINE",
"300 500 LINE"
);
},
{
closed = 1;
nodes = (
"200 100 LINE",
"200 400 LINE",
"100 400 LINE",
"100 100 LINE"
);
},
{
closed = 1;
nodes = (
"300 400 LINE",
"300 100 LINE",
"400 100 LINE",
"400 400 LINE"
);
},
{
closed = 1;
nodes = (
"200 0 LINE",
"300 0 LINE",
"300 100 LINE",
"200 100 LINE"
);
},
{
closed = 1;
nodes = (
"400 500 LINE",
"400 400 LINE",
"600 400 LINE",
"600 500 LINE"
);
},
{
closed = 1;
nodes = (
"400 100 LINE",
"400 200 LINE",
"700 200 LINE",
"700 400 LINE",
"600 400 LINE",
"600 300 LINE",
"400 300 LINE",
"400 400 LINE",
"300 400 LINE",
"300 100 LINE"
);
},
{
closed = 1;
nodes = (
"400 0 LINE",
"600 0 LINE",
"600 100 LINE",
"400 100 LINE"
);
}
);
width = 700;
}
);
unicode = 0153;
},
{
glyphname = p;
layers = (
{
hints = (
{
horizontal = 1;
place = "{0, 100}";
type = Stem;
},
{
horizontal = 1;
place = "{400, 100}";
type = Stem;
},
{
place = "{100, 100}";
type = Stem;
},
{
place = "{500, 100}";
type = Stem;
}
);
layerId = "32649BF3-7508-413C-B85E-1CA78B2743BE";
paths = (
{
closed = 1;
nodes = (
"500 400 LINE",
"500 500 LINE",
"100 500 LINE",
"100 -200 LINE",
"200 -200 LINE",
"200 0 LINE",
"500 0 LINE",
"500 100 LINE",
"200 100 LINE",
"200 400 LINE"
);
},
{
closed = 1;
nodes = (
"500 100 LINE",
"600 100 LINE",
"600 400 LINE",
"500 400 LINE"
);
}
);
width = 700;
}
);
note = p;
unicode = 0070;
},
{
glyphname = q;
layers = (
{
hints = (
{
horizontal = 1;
place = "{0, 100}";
type = Stem;
},
{
horizontal = 1;
place = "{400, 100}";
type = Stem;
},
{
place = "{100, 100}";
type = Stem;
},
{
place = "{500, 100}";
type = Stem;
},
{
horizontal = 1;
place = "{100, 300}";
type = Stem;
}
);
layerId = "32649BF3-7508-413C-B85E-1CA78B2743BE";
paths = (
{
closed = 1;
nodes = (
"500 0 LINE",
"500 -200 LINE",
"600 -200 LINE",
"600 500 LINE",
"200 500 LINE",
"200 400 LINE",
"500 400 LINE",
"500 100 LINE",
"200 100 LINE",
"200 0 LINE"
);
},
{
closed = 1;
nodes = (
"200 100 LINE",
"200 400 LINE",
"100 400 LINE",
"100 100 LINE"
);
}
);
width = 700;
}
);
note = q;
unicode = 0071;
},
{
glyphname = r;
layers = (
{
hints = (
{
horizontal = 1;
place = "{400, 100}";
type = Stem;
},
{
place = "{100, 100}";
type = Stem;
},
{
place = "{500, 100}";
type = Stem;
},
{
horizontal = 1;
place = "{300, 100}";
type = Stem;
},
{
place = "{300, 200}";
type = Stem;
}
);
layerId = "32649BF3-7508-413C-B85E-1CA78B2743BE";
paths = (
{
closed = 1;
nodes = (
"100 500 LINE",
"100 0 LINE",
"200 0 LINE",
"200 300 LINE",
"300 300 LINE",
"300 400 LINE",
"200 400 LINE",
"200 500 LINE"
);
},
{
closed = 1;
nodes = (
"300 500 LINE",
"300 400 LINE",
"500 400 LINE",
"500 500 LINE"
);
},
{
closed = 1;
nodes = (
"500 400 LINE",
"500 300 LINE",
"600 300 LINE",
"600 400 LINE"
);
}
);
width = 700;
}
);
note = r;
unicode = 0072;
},
{
glyphname = s;
layers = (
{
hints = (
{
horizontal = 1;
place = "{0, 100}";
type = Stem;
},
{
horizontal = 1;
place = "{200, 100}";
type = Stem;
},
{
horizontal = 1;
place = "{400, 100}";
type = Stem;
},
{
place = "{200, 300}";
type = Stem;
},
{
horizontal = 1;
place = "{300, 100}";
type = Stem;
},
{
place = "{100, 100}";
type = Stem;
},
{
place = "{500, 100}";
type = Stem;
},
{
horizontal = 1;
place = "{100, 100}";
type = Stem;
}
);
layerId = "32649BF3-7508-413C-B85E-1CA78B2743BE";
paths = (
{
closed = 1;
nodes = (
"200 500 LINE",
"200 400 LINE",
"500 400 LINE",
"500 500 LINE"
);
},
{
closed = 1;
nodes = (
"200 300 LINE",
"200 400 LINE",
"100 400 LINE",
"100 300 LINE"
);
},
{
closed = 1;
nodes = (
"500 200 LINE",
"500 300 LINE",
"200 300 LINE",
"200 200 LINE"
);
},
{
closed = 1;
nodes = (
"500 100 LINE",
"600 100 LINE",
"600 200 LINE",
"500 200 LINE"
);
},
{
closed = 1;
nodes = (
"100 100 LINE",
"100 0 LINE",
"500 0 LINE",
"500 100 LINE"
);
}
);
width = 700;
}
);
note = s;
unicode = 0073;
},
{
glyphname = germandbls;
lastChange = "2021-04-25 11:43:31 +0000";
layers = (
{
layerId = "32649BF3-7508-413C-B85E-1CA78B2743BE";
paths = (
{
closed = 1;
nodes = (
"200 700 LINE",
"200 600 LINE",
"400 600 LINE",
"400 700 LINE"
);
},
{
closed = 1;
nodes = (
"400 600 LINE",
"400 400 LINE",
"300 400 LINE",
"300 300 LINE",
"500 300 LINE",
"500 100 LINE",
"600 100 LINE",
"600 400 LINE",
"500 400 LINE",
"500 600 LINE"
);
},
{
closed = 1;
nodes = (
"500 100 LINE",
"300 100 LINE",
"300 0 LINE",
"500 0 LINE"
);
},
{
closed = 1;
nodes = (
"200 600 LINE",
"100 600 LINE",
"100 -100 LINE",
"200 -100 LINE"
);
}
);
width = 700;
},
{
associatedMasterId = "32649BF3-7508-413C-B85E-1CA78B2743BE";
layerId = "2F2A6098-B188-432F-9299-48373A6B7E9D";
name = "Apr 25 21, 13:42";
paths = (
{
closed = 1;
nodes = (
"200 700 LINE",
"200 600 LINE",
"400 600 LINE",
"400 700 LINE"
);
},
{
closed = 1;
nodes = (
"400 600 LINE",
"400 400 LINE",
"300 400 LINE",
"300 300 LINE",
"500 300 LINE",
"500 100 LINE",
"600 100 LINE",
"600 400 LINE",
"500 400 LINE",
"500 600 LINE"
);
},
{
closed = 1;
nodes = (
"500 100 LINE",
"300 100 LINE",
"300 0 LINE",
"500 0 LINE"
);
},
{
closed = 1;
nodes = (
"200 700 LINE",
"100 700 LINE",
"100 -100 LINE",
"200 -100 LINE"
);
}
);
width = 700;
},
{
associatedMasterId = "32649BF3-7508-413C-B85E-1CA78B2743BE";
layerId = "6FD6A3E1-FF75-4EE2-9037-609D2050DB04";
name = "Apr 25 21, 13:42";
paths = (
{
closed = 1;
nodes = (
"200 700 LINE",
"200 600 LINE",
"500 600 LINE",
"500 700 LINE"
);
},
{
closed = 1;
nodes = (
"500 600 LINE",
"500 400 LINE",
"300 400 LINE",
"300 300 LINE",
"500 300 LINE",
"500 100 LINE",
"600 100 LINE",
"600 400 LINE",
"600 400 LINE",
"600 600 LINE"
);
},
{
closed = 1;
nodes = (
"500 100 LINE",
"300 100 LINE",
"300 0 LINE",
"500 0 LINE"
);
},
{
closed = 1;
nodes = (
"200 700 LINE",
"100 700 LINE",
"100 -100 LINE",
"200 -100 LINE"
);
}
);
width = 700;
}
);
unicode = 00DF;
},
{
glyphname = t;
layers = (
{
hints = (
{
horizontal = 1;
place = "{0, 100}";
type = Stem;
},
{
horizontal = 1;
place = "{400, 100}";
type = Stem;
},
{
place = "{200, 100}";
type = Stem;
},
{
place = "{300, 200}";
type = Stem;
}
);
layerId = "32649BF3-7508-413C-B85E-1CA78B2743BE";
paths = (
{
closed = 1;
nodes = (
"300 100 LINE",
"300 400 LINE",
"500 400 LINE",
"500 500 LINE",
"300 500 LINE",
"300 700 LINE",
"200 700 LINE",
"200 100 LINE"
);
},
{
closed = 1;
nodes = (
"300 0 LINE",
"500 0 LINE",
"500 100 LINE",
"300 100 LINE"
);
}
);
width = 700;
}
);
note = t;
unicode = 0074;
},
{
glyphname = u;
layers = (
{
hints = (
{
horizontal = 1;
place = "{0, 100}";
type = Stem;
},
{
place = "{100, 100}";
type = Stem;
},
{
place = "{500, 100}";
type = Stem;
},
{
place = "{200, 200}";
type = Stem;
}
);
layerId = "32649BF3-7508-413C-B85E-1CA78B2743BE";
paths = (
{
closed = 1;
nodes = (
"200 100 LINE",
"200 500 LINE",
"100 500 LINE",
"100 100 LINE"
);
},
{
closed = 1;
nodes = (
"500 100 LINE",
"500 0 LINE",
"600 0 LINE",
"600 500 LINE",
"500 500 LINE",
"500 200 LINE",
"400 200 LINE",
"400 100 LINE"
);
},
{
closed = 1;
nodes = (
"200 0 LINE",
"400 0 LINE",
"400 100 LINE",
"200 100 LINE"
);
}
);
width = 700;
}
);
note = u;
unicode = 0075;
},
{
glyphname = uacute;
lastChange = "2021-04-25 11:44:01 +0000";
layers = (
{
layerId = "32649BF3-7508-413C-B85E-1CA78B2743BE";
paths = (
{
closed = 1;
nodes = (
"500 600 LINE",
"500 700 LINE",
"400 700 LINE",
"400 600 LINE"
);
},
{
closed = 1;
nodes = (
"300 500 LINE",
"400 500 LINE",
"400 600 LINE",
"300 600 LINE"
);
},
{
closed = 1;
nodes = (
"200 100 LINE",
"200 500 LINE",
"100 500 LINE",
"100 100 LINE"
);
},
{
closed = 1;
nodes = (
"500 100 LINE",
"500 0 LINE",
"600 0 LINE",
"600 500 LINE",
"500 500 LINE",
"500 200 LINE",
"400 200 LINE",
"400 100 LINE"
);
},
{
closed = 1;
nodes = (
"200 0 LINE",
"400 0 LINE",
"400 100 LINE",
"200 100 LINE"
);
}
);
width = 700;
}
);
unicode = 00FA;
},
{
glyphname = ucircumflex;
lastChange = "2021-04-25 11:44:24 +0000";
layers = (
{
layerId = "32649BF3-7508-413C-B85E-1CA78B2743BE";
paths = (
{
closed = 1;
nodes = (
"400 600 LINE",
"400 700 LINE",
"300 700 LINE",
"300 600 LINE"
);
},
{
closed = 1;
nodes = (
"400 500 LINE",
"500 500 LINE",
"500 600 LINE",
"400 600 LINE"
);
},
{
closed = 1;
nodes = (
"200 100 LINE",
"200 500 LINE",
"100 500 LINE",
"100 100 LINE"
);
},
{
closed = 1;
nodes = (
"500 100 LINE",
"500 0 LINE",
"600 0 LINE",
"600 500 LINE",
"500 500 LINE",
"500 200 LINE",
"400 200 LINE",
"400 100 LINE"
);
},
{
closed = 1;
nodes = (
"200 0 LINE",
"400 0 LINE",
"400 100 LINE",
"200 100 LINE"
);
},
{
closed = 1;
nodes = (
"200 500 LINE",
"300 500 LINE",
"300 600 LINE",
"200 600 LINE"
);
}
);
width = 700;
}
);
unicode = 00FB;
},
{
glyphname = udieresis;
lastChange = "2021-04-25 11:44:31 +0000";
layers = (
{
layerId = "32649BF3-7508-413C-B85E-1CA78B2743BE";
paths = (
{
closed = 1;
nodes = (
"300 600 LINE",
"300 700 LINE",
"200 700 LINE",
"200 600 LINE"
);
},
{
closed = 1;
nodes = (
"300 500 LINE",
"400 500 LINE",
"400 600 LINE",
"300 600 LINE"
);
},
{
closed = 1;
nodes = (
"200 100 LINE",
"200 500 LINE",
"100 500 LINE",
"100 100 LINE"
);
},
{
closed = 1;
nodes = (
"500 100 LINE",
"500 0 LINE",
"600 0 LINE",
"600 500 LINE",
"500 500 LINE",
"500 200 LINE",
"400 200 LINE",
"400 100 LINE"
);
},
{
closed = 1;
nodes = (
"200 0 LINE",
"400 0 LINE",
"400 100 LINE",
"200 100 LINE"
);
}
);
width = 700;
}
);
unicode = 00FC;
},
{
glyphname = ugrave;
layers = (
{
layerId = "32649BF3-7508-413C-B85E-1CA78B2743BE";
paths = (
{
closed = 1;
nodes = (
"300 600 LINE",
"300 700 LINE",
"200 700 LINE",
"200 600 LINE"
);
},
{
closed = 1;
nodes = (
"300 500 LINE",
"400 500 LINE",
"400 600 LINE",
"300 600 LINE"
);
},
{
closed = 1;
nodes = (
"200 100 LINE",
"200 500 LINE",
"100 500 LINE",
"100 100 LINE"
);
},
{
closed = 1;
nodes = (
"500 100 LINE",
"500 0 LINE",
"600 0 LINE",
"600 500 LINE",
"500 500 LINE",
"500 200 LINE",
"400 200 LINE",
"400 100 LINE"
);
},
{
closed = 1;
nodes = (
"200 0 LINE",
"400 0 LINE",
"400 100 LINE",
"200 100 LINE"
);
}
);
width = 700;
}
);
note = ugrave;
unicode = 00F9;
},
{
glyphname = v;
layers = (
{
hints = (
{
horizontal = 1;
place = "{0, 100}";
type = Stem;
},
{
horizontal = 1;
place = "{300, 200}";
type = Stem;
},
{
place = "{100, 100}";
type = Stem;
},
{
place = "{400, 100}";
type = Stem;
},
{
place = "{500, 100}";
type = Stem;
},
{
horizontal = 1;
place = "{100, 200}";
type = Stem;
},
{
place = "{200, 100}";
type = Stem;
},
{
place = "{300, 100}";
type = Stem;
}
);
layerId = "32649BF3-7508-413C-B85E-1CA78B2743BE";
paths = (
{
closed = 1;
nodes = (
"200 300 LINE",
"200 500 LINE",
"100 500 LINE",
"100 300 LINE"
);
},
{
closed = 1;
nodes = (
"500 500 LINE",
"500 300 LINE",
"600 300 LINE",
"600 500 LINE"
);
},
{
closed = 1;
nodes = (
"300 100 LINE",
"300 300 LINE",
"200 300 LINE",
"200 100 LINE"
);
},
{
closed = 1;
nodes = (
"400 300 LINE",
"400 100 LINE",
"500 100 LINE",
"500 300 LINE"
);
},
{
closed = 1;
nodes = (
"300 0 LINE",
"400 0 LINE",
"400 100 LINE",
"300 100 LINE"
);
}
);
width = 700;
}
);
note = v;
unicode = 0076;
},
{
glyphname = w;
layers = (
{
hints = (
{
horizontal = 1;
place = "{0, 100}";
type = Stem;
},
{
place = "{100, 100}";
type = Stem;
},
{
place = "{300, 100}";
type = Stem;
},
{
place = "{500, 100}";
type = Stem;
},
{
place = "{200, 100}";
type = Stem;
},
{
place = "{400, 100}";
type = Stem;
}
);
layerId = "32649BF3-7508-413C-B85E-1CA78B2743BE";
paths = (
{
closed = 1;
nodes = (
"200 100 LINE",
"200 500 LINE",
"100 500 LINE",
"100 100 LINE"
);
},
{
closed = 1;
nodes = (
"400 100 LINE",
"400 500 LINE",
"300 500 LINE",
"300 100 LINE"
);
},
{
closed = 1;
nodes = (
"500 500 LINE",
"500 100 LINE",
"600 100 LINE",
"600 500 LINE"
);
},
{
closed = 1;
nodes = (
"200 0 LINE",
"300 0 LINE",
"300 100 LINE",
"200 100 LINE"
);
},
{
closed = 1;
nodes = (
"400 0 LINE",
"500 0 LINE",
"500 100 LINE",
"400 100 LINE"
);
}
);
width = 700;
}
);
note = w;
unicode = 0077;
},
{
glyphname = x;
layers = (
{
hints = (
{
horizontal = 1;
place = "{400, 100}";
type = Stem;
},
{
place = "{100, 100}";
type = Stem;
},
{
place = "{500, 100}";
type = Stem;
},
{
horizontal = 1;
place = "{300, 100}";
type = Stem;
},
{
place = "{200, 100}";
type = Stem;
},
{
place = "{400, 100}";
type = Stem;
},
{
horizontal = 1;
place = "{200, 100}";
type = Stem;
},
{
place = "{300, 100}";
type = Stem;
},
{
horizontal = 1;
place = "{100, 100}";
type = Stem;
},
{
horizontal = 1;
place = "{0, 100}";
type = Stem;
}
);
layerId = "32649BF3-7508-413C-B85E-1CA78B2743BE";
paths = (
{
closed = 1;
nodes = (
"200 400 LINE",
"200 500 LINE",
"100 500 LINE",
"100 400 LINE"
);
},
{
closed = 1;
nodes = (
"500 500 LINE",
"500 400 LINE",
"600 400 LINE",
"600 500 LINE"
);
},
{
closed = 1;
nodes = (
"300 300 LINE",
"300 400 LINE",
"200 400 LINE",
"200 300 LINE"
);
},
{
closed = 1;
nodes = (
"400 400 LINE",
"400 300 LINE",
"500 300 LINE",
"500 400 LINE"
);
},
{
closed = 1;
nodes = (
"400 200 LINE",
"400 300 LINE",
"300 300 LINE",
"300 200 LINE"
);
},
{
closed = 1;
nodes = (
"200 200 LINE",
"200 100 LINE",
"300 100 LINE",
"300 200 LINE"
);
},
{
closed = 1;
nodes = (
"500 100 LINE",
"500 200 LINE",
"400 200 LINE",
"400 100 LINE"
);
},
{
closed = 1;
nodes = (
"100 100 LINE",
"100 0 LINE",
"200 0 LINE",
"200 100 LINE"
);
},
{
closed = 1;
nodes = (
"500 0 LINE",
"600 0 LINE",
"600 100 LINE",
"500 100 LINE"
);
}
);
width = 700;
}
);
note = x;
unicode = 0078;
},
{
glyphname = y;
layers = (
{
hints = (
{
horizontal = 1;
place = "{-200, 100}";
type = Stem;
},
{
horizontal = 1;
place = "{200, 300}";
type = Stem;
},
{
place = "{100, 100}";
type = Stem;
},
{
place = "{500, 100}";
type = Stem;
},
{
horizontal = 1;
place = "{200, 100}";
type = Stem;
},
{
place = "{200, 200}";
type = Stem;
},
{
horizontal = 1;
place = "{-100, 100}";
type = Stem;
},
{
horizontal = 1;
place = "{100, 100}";
type = Stem;
},
{
place = "{200, 300}";
type = Stem;
}
);
layerId = "32649BF3-7508-413C-B85E-1CA78B2743BE";
paths = (
{
closed = 1;
nodes = (
"200 200 LINE",
"200 500 LINE",
"100 500 LINE",
"100 200 LINE"
);
},
{
closed = 1;
nodes = (
"500 500 LINE",
"500 300 LINE",
"400 300 LINE",
"400 200 LINE",
"500 200 LINE",
"500 -100 LINE",
"600 -100 LINE",
"600 500 LINE"
);
},
{
closed = 1;
nodes = (
"200 200 LINE",
"200 100 LINE",
"400 100 LINE",
"400 200 LINE"
);
},
{
closed = 1;
nodes = (
"100 0 LINE",
"100 -100 LINE",
"200 -100 LINE",
"200 0 LINE"
);
},
{
closed = 1;
nodes = (
"500 -100 LINE",
"200 -100 LINE",
"200 -200 LINE",
"500 -200 LINE"
);
}
);
width = 700;
}
);
note = y;
unicode = 0079;
},
{
glyphname = yacute;
lastChange = "2021-05-02 11:45:41 +0000";
layers = (
{
layerId = "32649BF3-7508-413C-B85E-1CA78B2743BE";
paths = (
{
closed = 1;
nodes = (
"200 200 LINE",
"200 500 LINE",
"100 500 LINE",
"100 200 LINE"
);
},
{
closed = 1;
nodes = (
"500 500 LINE",
"500 300 LINE",
"400 300 LINE",
"400 200 LINE",
"500 200 LINE",
"500 -100 LINE",
"600 -100 LINE",
"600 500 LINE"
);
},
{
closed = 1;
nodes = (
"200 200 LINE",
"200 100 LINE",
"400 100 LINE",
"400 200 LINE"
);
},
{
closed = 1;
nodes = (
"100 0 LINE",
"100 -100 LINE",
"200 -100 LINE",
"200 0 LINE"
);
},
{
closed = 1;
nodes = (
"500 -100 LINE",
"200 -100 LINE",
"200 -200 LINE",
"500 -200 LINE"
);
},
{
closed = 1;
nodes = (
"300 500 LINE",
"400 500 LINE",
"400 600 LINE",
"300 600 LINE"
);
},
{
closed = 1;
nodes = (
"400 600 LINE",
"500 600 LINE",
"500 700 LINE",
"400 700 LINE"
);
}
);
width = 700;
}
);
unicode = 00FD;
},
{
glyphname = ydieresis;
lastChange = "2021-05-02 11:45:46 +0000";
layers = (
{
layerId = "32649BF3-7508-413C-B85E-1CA78B2743BE";
paths = (
{
closed = 1;
nodes = (
"200 200 LINE",
"200 500 LINE",
"100 500 LINE",
"100 200 LINE"
);
},
{
closed = 1;
nodes = (
"500 500 LINE",
"500 300 LINE",
"400 300 LINE",
"400 200 LINE",
"500 200 LINE",
"500 -100 LINE",
"600 -100 LINE",
"600 500 LINE"
);
},
{
closed = 1;
nodes = (
"200 200 LINE",
"200 100 LINE",
"400 100 LINE",
"400 200 LINE"
);
},
{
closed = 1;
nodes = (
"100 0 LINE",
"100 -100 LINE",
"200 -100 LINE",
"200 0 LINE"
);
},
{
closed = 1;
nodes = (
"500 -100 LINE",
"200 -100 LINE",
"200 -200 LINE",
"500 -200 LINE"
);
},
{
closed = 1;
nodes = (
"200 600 LINE",
"300 600 LINE",
"300 700 LINE",
"200 700 LINE"
);
},
{
closed = 1;
nodes = (
"400 600 LINE",
"500 600 LINE",
"500 700 LINE",
"400 700 LINE"
);
}
);
width = 700;
}
);
unicode = 00FF;
},
{
glyphname = z;
layers = (
{
hints = (
{
horizontal = 1;
place = "{0, 100}";
type = Stem;
},
{
horizontal = 1;
place = "{200, 100}";
type = Stem;
},
{
horizontal = 1;
place = "{400, 100}";
type = Stem;
},
{
place = "{300, 100}";
type = Stem;
},
{
place = "{200, 100}";
type = Stem;
},
{
place = "{400, 100}";
type = Stem;
}
);
layerId = "32649BF3-7508-413C-B85E-1CA78B2743BE";
paths = (
{
closed = 1;
nodes = (
"500 400 LINE",
"600 400 LINE",
"600 500 LINE",
"100 500 LINE",
"100 400 LINE",
"400 400 LINE",
"400 300 LINE",
"500 300 LINE"
);
},
{
closed = 1;
nodes = (
"400 300 LINE",
"300 300 LINE",
"300 200 LINE",
"400 200 LINE"
);
},
{
closed = 1;
nodes = (
"200 200 LINE",
"200 100 LINE",
"100 100 LINE",
"100 0 LINE",
"600 0 LINE",
"600 100 LINE",
"300 100 LINE",
"300 200 LINE"
);
}
);
width = 700;
}
);
note = z;
unicode = 007A;
},
{
glyphname = zero;
layers = (
{
hints = (
{
horizontal = 1;
place = "{0, 100}";
type = Stem;
},
{
horizontal = 1;
place = "{600, 100}";
type = Stem;
},
{
place = "{200, 300}";
type = Stem;
},
{
place = "{100, 100}";
type = Stem;
},
{
place = "{500, 100}";
type = Stem;
}
);
layerId = "32649BF3-7508-413C-B85E-1CA78B2743BE";
paths = (
{
closed = 1;
nodes = (
"200 600 LINE",
"500 600 LINE",
"500 700 LINE",
"200 700 LINE"
);
},
{
closed = 1;
nodes = (
"200 100 LINE",
"200 600 LINE",
"100 600 LINE",
"100 100 LINE"
);
},
{
closed = 1;
nodes = (
"500 600 LINE",
"500 100 LINE",
"600 100 LINE",
"600 600 LINE"
);
},
{
closed = 1;
nodes = (
"500 100 LINE",
"200 100 LINE",
"200 0 LINE",
"500 0 LINE"
);
}
);
width = 700;
}
);
note = zero;
unicode = 0030;
},
{
glyphname = one;
layers = (
{
hints = (
{
horizontal = 1;
place = "{500, 100}";
type = Stem;
},
{
place = "{300, 100}";
type = Stem;
}
);
layerId = "32649BF3-7508-413C-B85E-1CA78B2743BE";
paths = (
{
closed = 1;
nodes = (
"300 700 LINE",
"300 600 LINE",
"200 600 LINE",
"200 500 LINE",
"300 500 LINE",
"300 0 LINE",
"400 0 LINE",
"400 700 LINE"
);
}
);
width = 700;
}
);
note = one;
unicode = 0031;
},
{
glyphname = two;
layers = (
{
hints = (
{
horizontal = 1;
place = "{600, 100}";
type = Stem;
},
{
place = "{200, 300}";
type = Stem;
},
{
horizontal = 1;
place = "{500, 100}";
type = Stem;
},
{
place = "{100, 100}";
type = Stem;
},
{
horizontal = 1;
place = "{400, 200}";
type = Stem;
},
{
place = "{500, 100}";
type = Stem;
},
{
horizontal = 1;
place = "{300, 100}";
type = Stem;
},
{
place = "{400, 100}";
type = Stem;
},
{
horizontal = 1;
place = "{200, 100}";
type = Stem;
},
{
place = "{300, 100}";
type = Stem;
},
{
horizontal = 1;
place = "{0, 100}";
type = Stem;
},
{
place = "{200, 100}";
type = Stem;
}
);
layerId = "32649BF3-7508-413C-B85E-1CA78B2743BE";
paths = (
{
closed = 1;
nodes = (
"500 700 LINE",
"200 700 LINE",
"200 600 LINE",
"500 600 LINE"
);
},
{
closed = 1;
nodes = (
"100 500 LINE",
"200 500 LINE",
"200 600 LINE",
"100 600 LINE"
);
},
{
closed = 1;
nodes = (
"500 600 LINE",
"500 400 LINE",
"600 400 LINE",
"600 600 LINE"
);
},
{
closed = 1;
nodes = (
"400 300 LINE",
"500 300 LINE",
"500 400 LINE",
"400 400 LINE"
);
},
{
closed = 1;
nodes = (
"300 200 LINE",
"400 200 LINE",
"400 300 LINE",
"300 300 LINE"
);
},
{
closed = 1;
nodes = (
"200 100 LINE",
"100 100 LINE",
"100 0 LINE",
"600 0 LINE",
"600 100 LINE",
"300 100 LINE",
"300 200 LINE",
"200 200 LINE"
);
}
);
width = 700;
}
);
note = two;
unicode = 0032;
},
{
glyphname = three;
layers = (
{
hints = (
{
horizontal = 1;
place = "{0, 100}";
type = Stem;
},
{
horizontal = 1;
place = "{300, 100}";
type = Stem;
},
{
horizontal = 1;
place = "{600, 100}";
type = Stem;
},
{
place = "{100, 100}";
type = Stem;
},
{
place = "{500, 100}";
type = Stem;
},
{
place = "{400, 100}";
type = Stem;
},
{
horizontal = 1;
place = "{100, 200}";
type = Stem;
},
{
horizontal = 1;
place = "{100, 100}";
type = Stem;
},
{
place = "{200, 300}";
type = Stem;
}
);
layerId = "32649BF3-7508-413C-B85E-1CA78B2743BE";
paths = (
{
closed = 1;
nodes = (
"600 700 LINE",
"100 700 LINE",
"100 600 LINE",
"500 600 LINE",
"500 500 LINE",
"600 500 LINE"
);
},
{
closed = 1;
nodes = (
"400 400 LINE",
"300 400 LINE",
"300 300 LINE",
"500 300 LINE",
"500 500 LINE",
"400 500 LINE"
);
},
{
closed = 1;
nodes = (
"500 100 LINE",
"600 100 LINE",
"600 300 LINE",
"500 300 LINE"
);
},
{
closed = 1;
nodes = (
"100 200 LINE",
"100 100 LINE",
"200 100 LINE",
"200 200 LINE"
);
},
{
closed = 1;
nodes = (
"500 100 LINE",
"200 100 LINE",
"200 0 LINE",
"500 0 LINE"
);
}
);
width = 700;
}
);
note = three;
unicode = 0033;
},
{
glyphname = four;
layers = (
{
hints = (
{
horizontal = 1;
place = "{200, 100}";
type = Stem;
},
{
horizontal = 1;
place = "{500, 100}";
type = Stem;
},
{
place = "{100, 100}";
type = Stem;
},
{
place = "{400, 100}";
type = Stem;
}
);
layerId = "32649BF3-7508-413C-B85E-1CA78B2743BE";
paths = (
{
closed = 1;
nodes = (
"500 300 LINE",
"500 700 LINE",
"400 700 LINE",
"400 600 LINE",
"300 600 LINE",
"300 500 LINE",
"400 500 LINE",
"400 300 LINE",
"200 300 LINE",
"200 400 LINE",
"100 400 LINE",
"100 200 LINE",
"400 200 LINE",
"400 0 LINE",
"500 0 LINE",
"500 200 LINE",
"600 200 LINE",
"600 300 LINE"
);
},
{
closed = 1;
nodes = (
"300 500 LINE",
"200 500 LINE",
"200 400 LINE",
"300 400 LINE"
);
}
);
width = 700;
}
);
note = four;
unicode = 0034;
},
{
glyphname = five;
layers = (
{
hints = (
{
horizontal = 1;
place = "{0, 100}";
type = Stem;
},
{
horizontal = 1;
place = "{400, 100}";
type = Stem;
},
{
horizontal = 1;
place = "{600, 100}";
type = Stem;
},
{
place = "{100, 100}";
type = Stem;
},
{
place = "{500, 100}";
type = Stem;
},
{
horizontal = 1;
place = "{100, 300}";
type = Stem;
},
{
place = "{200, 300}";
type = Stem;
}
);
layerId = "32649BF3-7508-413C-B85E-1CA78B2743BE";
paths = (
{
closed = 1;
nodes = (
"200 600 LINE",
"600 600 LINE",
"600 700 LINE",
"100 700 LINE",
"100 400 LINE",
"500 400 LINE",
"500 500 LINE",
"200 500 LINE"
);
},
{
closed = 1;
nodes = (
"500 400 LINE",
"500 100 LINE",
"600 100 LINE",
"600 400 LINE"
);
},
{
closed = 1;
nodes = (
"100 200 LINE",
"100 100 LINE",
"200 100 LINE",
"200 200 LINE"
);
},
{
closed = 1;
nodes = (
"500 100 LINE",
"200 100 LINE",
"200 0 LINE",
"500 0 LINE"
);
}
);
width = 700;
}
);
note = five;
unicode = 0035;
},
{
glyphname = six;
layers = (
{
hints = (
{
horizontal = 1;
place = "{0, 100}";
type = Stem;
},
{
horizontal = 1;
place = "{300, 100}";
type = Stem;
},
{
horizontal = 1;
place = "{600, 100}";
type = Stem;
},
{
place = "{100, 100}";
type = Stem;
},
{
place = "{300, 200}";
type = Stem;
},
{
horizontal = 1;
place = "{500, 100}";
type = Stem;
},
{
place = "{200, 100}";
type = Stem;
},
{
place = "{500, 100}";
type = Stem;
},
{
horizontal = 1;
place = "{100, 200}";
type = Stem;
},
{
place = "{200, 300}";
type = Stem;
}
);
layerId = "32649BF3-7508-413C-B85E-1CA78B2743BE";
paths = (
{
closed = 1;
nodes = (
"500 600 LINE",
"500 700 LINE",
"300 700 LINE",
"300 600 LINE"
);
},
{
closed = 1;
nodes = (
"300 600 LINE",
"200 600 LINE",
"200 500 LINE",
"300 500 LINE"
);
},
{
closed = 1;
nodes = (
"200 300 LINE",
"500 300 LINE",
"500 400 LINE",
"200 400 LINE",
"200 500 LINE",
"100 500 LINE",
"100 100 LINE",
"200 100 LINE"
);
},
{
closed = 1;
nodes = (
"500 300 LINE",
"500 100 LINE",
"600 100 LINE",
"600 300 LINE"
);
},
{
closed = 1;
nodes = (
"500 100 LINE",
"200 100 LINE",
"200 0 LINE",
"500 0 LINE"
);
}
);
width = 700;
}
);
note = six;
unicode = 0036;
},
{
glyphname = seven;
layers = (
{
hints = (
{
horizontal = 1;
place = "{400, 100}";
type = Stem;
},
{
horizontal = 1;
place = "{600, 100}";
type = Stem;
},
{
place = "{200, 100}";
type = Stem;
},
{
place = "{500, 100}";
type = Stem;
},
{
place = "{400, 100}";
type = Stem;
},
{
horizontal = 1;
place = "{300, 100}";
type = Stem;
},
{
place = "{300, 100}";
type = Stem;
},
{
horizontal = 1;
place = "{0, 300}";
type = Stem;
}
);
layerId = "32649BF3-7508-413C-B85E-1CA78B2743BE";
paths = (
{
closed = 1;
nodes = (
"600 700 LINE",
"100 700 LINE",
"100 600 LINE",
"500 600 LINE",
"500 500 LINE",
"600 500 LINE"
);
},
{
closed = 1;
nodes = (
"400 400 LINE",
"500 400 LINE",
"500 500 LINE",
"400 500 LINE"
);
},
{
closed = 1;
nodes = (
"300 300 LINE",
"400 300 LINE",
"400 400 LINE",
"300 400 LINE"
);
},
{
closed = 1;
nodes = (
"200 300 LINE",
"200 0 LINE",
"300 0 LINE",
"300 300 LINE"
);
}
);
width = 700;
}
);
note = seven;
unicode = 0037;
},
{
glyphname = eight;
layers = (
{
hints = (
{
horizontal = 1;
place = "{600, 100}";
type = Stem;
},
{
place = "{200, 300}";
type = Stem;
},
{
horizontal = 1;
place = "{400, 200}";
type = Stem;
},
{
place = "{100, 100}";
type = Stem;
},
{
place = "{500, 100}";
type = Stem;
},
{
horizontal = 1;
place = "{300, 100}";
type = Stem;
},
{
horizontal = 1;
place = "{100, 200}";
type = Stem;
},
{
horizontal = 1;
place = "{0, 100}";
type = Stem;
}
);
layerId = "32649BF3-7508-413C-B85E-1CA78B2743BE";
paths = (
{
closed = 1;
nodes = (
"200 600 LINE",
"500 600 LINE",
"500 700 LINE",
"200 700 LINE"
);
},
{
closed = 1;
nodes = (
"200 600 LINE",
"100 600 LINE",
"100 400 LINE",
"200 400 LINE"
);
},
{
closed = 1;
nodes = (
"500 600 LINE",
"500 400 LINE",
"600 400 LINE",
"600 600 LINE"
);
},
{
closed = 1;
nodes = (
"500 400 LINE",
"200 400 LINE",
"200 300 LINE",
"500 300 LINE"
);
},
{
closed = 1;
nodes = (
"200 300 LINE",
"100 300 LINE",
"100 100 LINE",
"200 100 LINE"
);
},
{
closed = 1;
nodes = (
"500 100 LINE",
"600 100 LINE",
"600 300 LINE",
"500 300 LINE"
);
},
{
closed = 1;
nodes = (
"500 100 LINE",
"200 100 LINE",
"200 0 LINE",
"500 0 LINE"
);
}
);
width = 700;
}
);
note = eight;
unicode = 0038;
},
{
glyphname = nine;
layers = (
{
hints = (
{
horizontal = 1;
place = "{0, 100}";
type = Stem;
},
{
horizontal = 1;
place = "{300, 100}";
type = Stem;
},
{
horizontal = 1;
place = "{600, 100}";
type = Stem;
},
{
place = "{200, 300}";
type = Stem;
},
{
horizontal = 1;
place = "{400, 200}";
type = Stem;
},
{
place = "{100, 100}";
type = Stem;
},
{
place = "{500, 100}";
type = Stem;
},
{
horizontal = 1;
place = "{100, 100}";
type = Stem;
}
);
layerId = "32649BF3-7508-413C-B85E-1CA78B2743BE";
paths = (
{
closed = 1;
nodes = (
"200 600 LINE",
"500 600 LINE",
"500 700 LINE",
"200 700 LINE"
);
},
{
closed = 1;
nodes = (
"200 600 LINE",
"100 600 LINE",
"100 400 LINE",
"200 400 LINE"
);
},
{
closed = 1;
nodes = (
"500 600 LINE",
"500 400 LINE",
"200 400 LINE",
"200 300 LINE",
"500 300 LINE",
"500 100 LINE",
"600 100 LINE",
"600 600 LINE"
);
},
{
closed = 1;
nodes = (
"100 200 LINE",
"100 100 LINE",
"200 100 LINE",
"200 200 LINE"
);
},
{
closed = 1;
nodes = (
"500 100 LINE",
"200 100 LINE",
"200 0 LINE",
"500 0 LINE"
);
}
);
width = 700;
}
);
note = nine;
unicode = 0039;
},
{
glyphname = .notdef;
lastChange = "2021-04-24 12:28:26 +0000";
layers = (
{
layerId = "32649BF3-7508-413C-B85E-1CA78B2743BE";
paths = (
{
closed = 1;
nodes = (
"505 600 LINE",
"950 600 LINE",
"950 700 LINE",
"505 700 LINE"
);
},
{
closed = 1;
nodes = (
"395 600 LINE",
"475 600 LINE",
"475 700 LINE",
"465 700 LINE",
"465 610 LINE",
"405 610 LINE",
"405 700 LINE",
"395 700 LINE"
);
},
{
closed = 1;
nodes = (
"290 600 LINE",
"365 600 LINE",
"365 700 LINE",
"290 700 LINE"
);
},
{
closed = 1;
nodes = (
"40 600 LINE",
"50 600 LINE",
"50 700 LINE",
"40 700 LINE"
);
},
{
closed = 1;
nodes = (
"355 690 LINE",
"355 610 LINE",
"300 610 LINE",
"300 690 LINE"
);
},
{
closed = 1;
nodes = (
"260 645 LINE",
"260 700 LINE",
"250 700 LINE",
"250 655 LINE",
"190 655 LINE",
"190 700 LINE",
"180 700 LINE",
"180 645 LINE",
"215 645 LINE",
"215 600 LINE",
"225 600 LINE",
"225 645 LINE"
);
},
{
closed = 1;
nodes = (
"130 645 LINE",
"130 655 LINE",
"90 655 LINE",
"90 690 LINE",
"150 690 LINE",
"150 700 LINE",
"80 700 LINE",
"80 600 LINE",
"90 600 LINE",
"90 645 LINE"
);
},
{
closed = 1;
nodes = (
"735 550 LINE",
"735 450 LINE",
"745 450 LINE",
"745 490 LINE",
"810 490 LINE",
"810 450 LINE",
"820 450 LINE",
"820 500 LINE",
"790 500 LINE",
"790 550 LINE"
);
},
{
closed = 1;
nodes = (
"700 460 LINE",
"645 460 LINE",
"645 540 LINE",
"700 540 LINE"
);
},
{
closed = 1;
nodes = (
"515 510 LINE",
"530 510 LINE",
"530 480 LINE",
"545 480 LINE",
"545 450 LINE",
"555 450 LINE",
"555 480 LINE",
"570 480 LINE",
"570 510 LINE",
"585 510 LINE",
"585 540 LINE",
"595 540 LINE",
"595 450 LINE",
"605 450 LINE",
"605 550 LINE",
"575 550 LINE",
"575 520 LINE",
"560 520 LINE",
"560 490 LINE",
"540 490 LINE",
"540 520 LINE",
"525 520 LINE",
"525 550 LINE",
"495 550 LINE",
"495 450 LINE",
"505 450 LINE",
"505 540 LINE",
"515 540 LINE"
);
},
{
closed = 1;
nodes = (
"455 540 LINE",
"455 550 LINE",
"375 550 LINE",
"375 540 LINE",
"410 540 LINE",
"410 450 LINE",
"420 450 LINE",
"420 540 LINE"
);
},
{
closed = 1;
nodes = (
"295 510 LINE",
"310 510 LINE",
"310 480 LINE",
"325 480 LINE",
"325 450 LINE",
"355 450 LINE",
"355 550 LINE",
"345 550 LINE",
"345 460 LINE",
"335 460 LINE",
"335 490 LINE",
"320 490 LINE",
"320 520 LINE",
"305 520 LINE",
"305 550 LINE",
"275 550 LINE",
"275 450 LINE",
"285 450 LINE",
"285 540 LINE",
"295 540 LINE"
);
},
{
closed = 1;
nodes = (
"220 550 LINE",
"185 550 LINE",
"185 520 LINE",
"170 520 LINE",
"170 490 LINE",
"155 490 LINE",
"155 450 LINE",
"165 450 LINE",
"165 480 LINE",
"240 480 LINE",
"240 450 LINE",
"250 450 LINE",
"250 490 LINE",
"235 490 LINE",
"235 520 LINE",
"220 520 LINE"
);
},
{
closed = 1;
nodes = (
"945 435 LINE",
"945 465 LINE",
"930 465 LINE",
"930 450 LINE",
"935 450 LINE",
"935 435 LINE"
);
},
{
closed = 1;
nodes = (
"840 450 LINE",
"910 450 LINE",
"910 460 LINE",
"850 460 LINE",
"850 495 LINE",
"890 495 LINE",
"890 505 LINE",
"850 505 LINE",
"850 540 LINE",
"910 540 LINE",
"910 550 LINE",
"840 550 LINE"
);
},
{
closed = 1;
nodes = (
"635 450 LINE",
"710 450 LINE",
"710 550 LINE",
"635 550 LINE"
);
},
{
closed = 1;
nodes = (
"40 450 LINE",
"130 450 LINE",
"130 550 LINE",
"120 550 LINE",
"120 460 LINE",
"90 460 LINE",
"90 515 LINE",
"80 515 LINE",
"80 460 LINE",
"50 460 LINE",
"50 550 LINE",
"40 550 LINE"
);
},
{
closed = 1;
nodes = (
"865 400 LINE",
"865 300 LINE",
"875 300 LINE",
"875 340 LINE",
"940 340 LINE",
"940 300 LINE",
"950 300 LINE",
"950 350 LINE",
"920 350 LINE",
"920 400 LINE"
);
},
{
closed = 1;
nodes = (
"825 310 LINE",
"770 310 LINE",
"770 390 LINE",
"825 390 LINE"
);
},
{
closed = 1;
nodes = (
"505 360 LINE",
"520 360 LINE",
"520 330 LINE",
"535 330 LINE",
"535 300 LINE",
"545 300 LINE",
"545 330 LINE",
"560 330 LINE",
"560 360 LINE",
"575 360 LINE",
"575 390 LINE",
"585 390 LINE",
"585 300 LINE",
"595 300 LINE",
"595 400 LINE",
"565 400 LINE",
"565 370 LINE",
"550 370 LINE",
"550 340 LINE",
"530 340 LINE",
"530 370 LINE",
"515 370 LINE",
"515 400 LINE",
"485 400 LINE",
"485 300 LINE",
"495 300 LINE",
"495 390 LINE",
"505 390 LINE"
);
},
{
closed = 1;
nodes = (
"235 400 LINE",
"235 300 LINE",
"245 300 LINE",
"245 340 LINE",
"310 340 LINE",
"310 300 LINE",
"320 300 LINE",
"320 350 LINE",
"290 350 LINE",
"290 400 LINE"
);
},
{
closed = 1;
nodes = (
"195 310 LINE",
"140 310 LINE",
"140 390 LINE",
"195 390 LINE"
);
},
{
closed = 1;
nodes = (
"370 330 LINE",
"395 330 LINE",
"395 300 LINE",
"420 300 LINE",
"420 310 LINE",
"405 310 LINE",
"405 340 LINE",
"380 340 LINE",
"380 360 LINE",
"405 360 LINE",
"405 390 LINE",
"420 390 LINE",
"420 400 LINE",
"395 400 LINE",
"395 370 LINE",
"370 370 LINE",
"370 355 LINE",
"355 355 LINE",
"355 400 LINE",
"345 400 LINE",
"345 300 LINE",
"355 300 LINE",
"355 345 LINE",
"370 345 LINE"
);
},
{
closed = 1;
nodes = (
"90 345 LINE",
"90 355 LINE",
"50 355 LINE",
"50 390 LINE",
"110 390 LINE",
"110 400 LINE",
"40 400 LINE",
"40 300 LINE",
"50 300 LINE",
"50 345 LINE"
);
},
{
closed = 1;
nodes = (
"760 300 LINE",
"835 300 LINE",
"835 400 LINE",
"760 400 LINE"
);
},
{
closed = 1;
nodes = (
"630 300 LINE",
"700 300 LINE",
"700 310 LINE",
"640 310 LINE",
"640 345 LINE",
"680 345 LINE",
"680 355 LINE",
"640 355 LINE",
"640 390 LINE",
"700 390 LINE",
"700 400 LINE",
"630 400 LINE"
);
},
{
closed = 1;
nodes = (
"130 300 LINE",
"205 300 LINE",
"205 400 LINE",
"130 400 LINE"
);
},
{
closed = 1;
nodes = (
"710 150 LINE",
"950 150 LINE",
"950 250 LINE",
"710 250 LINE"
);
},
{
closed = 1;
nodes = (
"690 240 LINE",
"690 250 LINE",
"610 250 LINE",
"610 240 LINE",
"645 240 LINE",
"645 150 LINE",
"655 150 LINE",
"655 240 LINE"
);
},
{
closed = 1;
nodes = (
"410 240 LINE",
"410 250 LINE",
"330 250 LINE",
"330 240 LINE",
"365 240 LINE",
"365 150 LINE",
"375 150 LINE",
"375 240 LINE"
);
},
{
closed = 1;
nodes = (
"255 210 LINE",
"270 210 LINE",
"270 180 LINE",
"285 180 LINE",
"285 150 LINE",
"315 150 LINE",
"315 250 LINE",
"305 250 LINE",
"305 160 LINE",
"295 160 LINE",
"295 190 LINE",
"280 190 LINE",
"280 220 LINE",
"265 220 LINE",
"265 250 LINE",
"235 250 LINE",
"235 150 LINE",
"245 150 LINE",
"245 240 LINE",
"255 240 LINE"
);
},
{
closed = 1;
nodes = (
"195 160 LINE",
"140 160 LINE",
"140 240 LINE",
"195 240 LINE"
);
},
{
closed = 1;
nodes = (
"475 250 LINE",
"440 250 LINE",
"440 220 LINE",
"425 220 LINE",
"425 190 LINE",
"410 190 LINE",
"410 150 LINE",
"420 150 LINE",
"420 180 LINE",
"495 180 LINE",
"495 150 LINE",
"505 150 LINE",
"505 190 LINE",
"490 190 LINE",
"490 220 LINE",
"475 220 LINE"
);
},
{
closed = 1;
nodes = (
"525 150 LINE",
"590 150 LINE",
"590 160 LINE",
"535 160 LINE",
"535 240 LINE",
"590 240 LINE",
"590 250 LINE",
"525 250 LINE"
);
},
{
closed = 1;
nodes = (
"130 150 LINE",
"205 150 LINE",
"205 250 LINE",
"130 250 LINE"
);
},
{
closed = 1;
nodes = (
"40 150 LINE",
"105 150 LINE",
"105 160 LINE",
"50 160 LINE",
"50 240 LINE",
"105 240 LINE",
"105 250 LINE",
"40 250 LINE"
);
},
{
closed = 1;
nodes = (
"740 60 LINE",
"755 60 LINE",
"755 30 LINE",
"770 30 LINE",
"770 0 LINE",
"800 0 LINE",
"800 100 LINE",
"790 100 LINE",
"790 10 LINE",
"780 10 LINE",
"780 40 LINE",
"765 40 LINE",
"765 70 LINE",
"750 70 LINE",
"750 100 LINE",
"720 100 LINE",
"720 0 LINE",
"730 0 LINE",
"730 90 LINE",
"740 90 LINE"
);
},
{
closed = 1;
nodes = (
"600 90 LINE",
"600 100 LINE",
"520 100 LINE",
"520 90 LINE",
"555 90 LINE",
"555 0 LINE",
"565 0 LINE",
"565 90 LINE"
);
},
{
closed = 1;
nodes = (
"700 45 LINE",
"700 100 LINE",
"690 100 LINE",
"690 55 LINE",
"630 55 LINE",
"630 100 LINE",
"620 100 LINE",
"620 45 LINE",
"655 45 LINE",
"655 0 LINE",
"665 0 LINE",
"665 45 LINE"
);
},
{
closed = 1;
nodes = (
"380 30 LINE",
"380 60 LINE",
"395 60 LINE",
"395 90 LINE",
"410 90 LINE",
"410 100 LINE",
"385 100 LINE",
"385 70 LINE",
"370 70 LINE",
"370 40 LINE",
"350 40 LINE",
"350 70 LINE",
"335 70 LINE",
"335 100 LINE",
"310 100 LINE",
"310 90 LINE",
"325 90 LINE",
"325 60 LINE",
"340 60 LINE",
"340 30 LINE",
"355 30 LINE",
"355 0 LINE",
"365 0 LINE",
"365 30 LINE"
);
},
{
closed = 1;
nodes = (
"105 30 LINE",
"105 60 LINE",
"120 60 LINE",
"120 90 LINE",
"135 90 LINE",
"135 100 LINE",
"110 100 LINE",
"110 70 LINE",
"95 70 LINE",
"95 40 LINE",
"75 40 LINE",
"75 70 LINE",
"60 70 LINE",
"60 100 LINE",
"35 100 LINE",
"35 90 LINE",
"50 90 LINE",
"50 60 LINE",
"65 60 LINE",
"65 30 LINE",
"80 30 LINE",
"80 0 LINE",
"90 0 LINE",
"90 30 LINE"
);
},
{
closed = 1;
nodes = (
"825 0 LINE",
"895 0 LINE",
"895 10 LINE",
"835 10 LINE",
"835 45 LINE",
"875 45 LINE",
"875 55 LINE",
"835 55 LINE",
"835 90 LINE",
"895 90 LINE",
"895 100 LINE",
"825 100 LINE"
);
},
{
closed = 1;
nodes = (
"430 0 LINE",
"500 0 LINE",
"500 10 LINE",
"440 10 LINE",
"440 45 LINE",
"480 45 LINE",
"480 55 LINE",
"440 55 LINE",
"440 90 LINE",
"500 90 LINE",
"500 100 LINE",
"430 100 LINE"
);
},
{
closed = 1;
nodes = (
"255 0 LINE",
"325 0 LINE",
"325 10 LINE",
"265 10 LINE",
"265 100 LINE",
"255 100 LINE"
);
},
{
closed = 1;
nodes = (
"155 0 LINE",
"225 0 LINE",
"225 10 LINE",
"165 10 LINE",
"165 45 LINE",
"205 45 LINE",
"205 55 LINE",
"165 55 LINE",
"165 90 LINE",
"225 90 LINE",
"225 100 LINE",
"155 100 LINE"
);
},
{
closed = 1;
nodes = (
"285 -150 LINE",
"950 -150 LINE",
"950 -50 LINE",
"285 -50 LINE"
);
},
{
closed = 1;
nodes = (
"165 -50 LINE",
"165 -150 LINE",
"175 -150 LINE",
"175 -110 LINE",
"240 -110 LINE",
"240 -150 LINE",
"250 -150 LINE",
"250 -100 LINE",
"220 -100 LINE",
"220 -50 LINE"
);
},
{
closed = 1;
nodes = (
"120 -105 LINE",
"120 -95 LINE",
"80 -95 LINE",
"80 -60 LINE",
"140 -60 LINE",
"140 -50 LINE",
"70 -50 LINE",
"70 -150 LINE",
"80 -150 LINE",
"80 -105 LINE"
);
},
{
closed = 1;
nodes = (
"30 -150 LINE",
"45 -150 LINE",
"45 -135 LINE",
"30 -135 LINE"
);
},
{
closed = 1;
nodes = (
"195 540 LINE",
"210 540 LINE",
"210 510 LINE",
"225 510 LINE",
"225 490 LINE",
"180 490 LINE",
"180 510 LINE",
"195 510 LINE"
);
},
{
closed = 1;
nodes = (
"745 500 LINE",
"745 540 LINE",
"780 540 LINE",
"780 500 LINE"
);
},
{
closed = 1;
nodes = (
"875 350 LINE",
"875 390 LINE",
"910 390 LINE",
"910 350 LINE"
);
},
{
closed = 1;
nodes = (
"245 350 LINE",
"245 390 LINE",
"280 390 LINE",
"280 350 LINE"
);
},
{
closed = 1;
nodes = (
"450 240 LINE",
"465 240 LINE",
"465 210 LINE",
"480 210 LINE",
"480 190 LINE",
"435 190 LINE",
"435 210 LINE",
"450 210 LINE"
);
},
{
closed = 1;
nodes = (
"175 -100 LINE",
"175 -60 LINE",
"210 -60 LINE",
"210 -100 LINE"
);
}
);
width = 1000;
}
);
note = ".notdef";
},
{
glyphname = period;
layers = (
{
hints = (
{
horizontal = 1;
place = "{0, 100}";
type = Stem;
},
{
place = "{300, 100}";
type = Stem;
}
);
layerId = "32649BF3-7508-413C-B85E-1CA78B2743BE";
paths = (
{
closed = 1;
nodes = (
"300 100 LINE",
"300 0 LINE",
"400 0 LINE",
"400 100 LINE"
);
}
);
width = 700;
}
);
note = period;
unicode = 002E;
},
{
glyphname = comma;
layers = (
{
hints = (
{
horizontal = 1;
place = "{-100, 200}";
type = Stem;
},
{
place = "{300, 100}";
type = Stem;
},
{
horizontal = 1;
place = "{-200, 100}";
type = Stem;
},
{
place = "{200, 100}";
type = Stem;
}
);
layerId = "32649BF3-7508-413C-B85E-1CA78B2743BE";
paths = (
{
closed = 1;
nodes = (
"300 100 LINE",
"300 -100 LINE",
"400 -100 LINE",
"400 100 LINE"
);
},
{
closed = 1;
nodes = (
"200 -100 LINE",
"200 -200 LINE",
"300 -200 LINE",
"300 -100 LINE"
);
}
);
width = 700;
}
);
note = comma;
unicode = 002C;
},
{
glyphname = colon;
layers = (
{
hints = (
{
horizontal = 1;
place = "{0, 100}";
type = Stem;
},
{
horizontal = 1;
place = "{400, 100}";
type = Stem;
},
{
place = "{300, 100}";
type = Stem;
}
);
layerId = "32649BF3-7508-413C-B85E-1CA78B2743BE";
paths = (
{
closed = 1;
nodes = (
"300 500 LINE",
"300 400 LINE",
"400 400 LINE",
"400 500 LINE"
);
},
{
closed = 1;
nodes = (
"300 100 LINE",
"300 0 LINE",
"400 0 LINE",
"400 100 LINE"
);
}
);
width = 700;
}
);
note = colon;
unicode = 003A;
},
{
glyphname = semicolon;
layers = (
{
hints = (
{
horizontal = 1;
place = "{-100, 200}";
type = Stem;
},
{
horizontal = 1;
place = "{400, 100}";
type = Stem;
},
{
place = "{300, 100}";
type = Stem;
},
{
horizontal = 1;
place = "{-100, 111}";
type = Stem;
},
{
horizontal = 1;
place = "{-200, 100}";
type = Stem;
},
{
place = "{200, 100}";
type = Stem;
}
);
layerId = "32649BF3-7508-413C-B85E-1CA78B2743BE";
paths = (
{
closed = 1;
nodes = (
"300 -100 LINE",
"400 -100 LINE",
"400 -55 OFFCURVE",
"402 45 OFFCURVE",
"400 0 CURVE",
"400 100 LINE",
"300 100 LINE"
);
},
{
closed = 1;
nodes = (
"300 500 LINE",
"300 400 LINE",
"400 400 LINE",
"400 500 LINE"
);
},
{
closed = 1;
nodes = (
"200 -100 LINE",
"200 -200 LINE",
"300 -200 LINE",
"300 -100 LINE"
);
}
);
width = 700;
}
);
note = semicolon;
unicode = 003B;
},
{
glyphname = ellipsis;
layers = (
{
hints = (
{
horizontal = 1;
place = "{0, 100}";
type = Stem;
},
{
place = "{100, 100}";
type = Stem;
},
{
place = "{300, 100}";
type = Stem;
},
{
place = "{500, 100}";
type = Stem;
}
);
layerId = "32649BF3-7508-413C-B85E-1CA78B2743BE";
paths = (
{
closed = 1;
nodes = (
"100 100 LINE",
"100 0 LINE",
"200 0 LINE",
"200 100 LINE"
);
},
{
closed = 1;
nodes = (
"300 100 LINE",
"300 0 LINE",
"400 0 LINE",
"400 100 LINE"
);
},
{
closed = 1;
nodes = (
"500 100 LINE",
"500 0 LINE",
"600 0 LINE",
"600 100 LINE"
);
}
);
width = 700;
}
);
note = ellipsis;
unicode = 2026;
},
{
glyphname = exclam;
layers = (
{
hints = (
{
horizontal = 1;
place = "{0, 100}";
type = Stem;
},
{
place = "{300, 100}";
type = Stem;
}
);
layerId = "32649BF3-7508-413C-B85E-1CA78B2743BE";
paths = (
{
closed = 1;
nodes = (
"300 700 LINE",
"300 200 LINE",
"400 200 LINE",
"400 700 LINE"
);
},
{
closed = 1;
nodes = (
"300 100 LINE",
"300 0 LINE",
"400 0 LINE",
"400 100 LINE"
);
}
);
width = 700;
}
);
note = exclam;
unicode = 0021;
},
{
glyphname = exclamdown;
lastChange = "2021-05-02 11:47:39 +0000";
layers = (
{
layerId = "32649BF3-7508-413C-B85E-1CA78B2743BE";
paths = (
{
closed = 1;
nodes = (
"300 700 LINE",
"300 600 LINE",
"400 600 LINE",
"400 700 LINE"
);
},
{
closed = 1;
nodes = (
"300 500 LINE",
"300 0 LINE",
"400 0 LINE",
"400 500 LINE"
);
}
);
width = 700;
}
);
unicode = 00A1;
},
{
glyphname = question;
layers = (
{
hints = (
{
horizontal = 1;
place = "{600, 100}";
type = Stem;
},
{
place = "{200, 300}";
type = Stem;
},
{
horizontal = 1;
place = "{500, 100}";
type = Stem;
},
{
place = "{100, 100}";
type = Stem;
},
{
horizontal = 1;
place = "{400, 200}";
type = Stem;
},
{
place = "{500, 100}";
type = Stem;
},
{
horizontal = 1;
place = "{300, 100}";
type = Stem;
},
{
place = "{400, 100}";
type = Stem;
},
{
horizontal = 1;
place = "{0, 100}";
type = Stem;
},
{
horizontal = 1;
place = "{200, 100}";
type = Stem;
},
{
place = "{300, 100}";
type = Stem;
}
);
layerId = "32649BF3-7508-413C-B85E-1CA78B2743BE";
paths = (
{
closed = 1;
nodes = (
"200 700 LINE",
"200 600 LINE",
"500 600 LINE",
"500 700 LINE"
);
},
{
closed = 1;
nodes = (
"100 600 LINE",
"100 500 LINE",
"200 500 LINE",
"200 600 LINE"
);
},
{
closed = 1;
nodes = (
"500 600 LINE",
"500 400 LINE",
"600 400 LINE",
"600 600 LINE"
);
},
{
closed = 1;
nodes = (
"400 400 LINE",
"400 300 LINE",
"500 300 LINE",
"500 400 LINE"
);
},
{
closed = 1;
nodes = (
"300 300 LINE",
"300 200 LINE",
"400 200 LINE",
"400 300 LINE"
);
},
{
closed = 1;
nodes = (
"400 100 LINE",
"300 100 LINE",
"300 0 LINE",
"400 0 LINE"
);
}
);
width = 700;
}
);
note = question;
unicode = 003F;
},
{
glyphname = periodcentered;
lastChange = "2021-04-24 13:29:15 +0000";
layers = (
{
layerId = "32649BF3-7508-413C-B85E-1CA78B2743BE";
paths = (
{
closed = 1;
nodes = (
"250 250 LINE",
"350 250 LINE",
"350 350 LINE",
"250 350 LINE"
);
}
);
width = 600;
}
);
unicode = 00B7;
},
{
glyphname = bullet;
lastChange = "2021-04-24 13:27:41 +0000";
layers = (
{
layerId = "32649BF3-7508-413C-B85E-1CA78B2743BE";
paths = (
{
closed = 1;
nodes = (
"300 350 LINE",
"400 350 LINE",
"400 450 LINE",
"300 450 LINE"
);
},
{
closed = 1;
nodes = (
"300 150 LINE",
"400 150 LINE",
"400 250 LINE",
"300 250 LINE"
);
},
{
closed = 1;
nodes = (
"400 250 LINE",
"500 250 LINE",
"500 350 LINE",
"400 350 LINE"
);
},
{
closed = 1;
nodes = (
"200 250 LINE",
"300 250 LINE",
"300 350 LINE",
"200 350 LINE"
);
}
);
width = 700;
}
);
unicode = 2022;
},
{
glyphname = asterisk;
lastChange = "2021-04-25 08:31:06 +0000";
layers = (
{
layerId = "32649BF3-7508-413C-B85E-1CA78B2743BE";
paths = (
{
closed = 1;
nodes = (
"300 700 LINE",
"300 500 LINE",
"400 500 LINE",
"400 700 LINE"
);
},
{
closed = 1;
nodes = (
"400 500 LINE",
"400 400 LINE",
"500 400 LINE",
"500 500 LINE"
);
},
{
closed = 1;
nodes = (
"500 500 LINE",
"600 500 LINE",
"600 600 LINE",
"500 600 LINE"
);
},
{
closed = 1;
nodes = (
"500 400 LINE",
"500 300 LINE",
"600 300 LINE",
"600 400 LINE"
);
},
{
closed = 1;
nodes = (
"400 400 LINE",
"300 400 LINE",
"300 200 LINE",
"400 200 LINE"
);
},
{
closed = 1;
nodes = (
"300 400 LINE",
"300 500 LINE",
"200 500 LINE",
"200 400 LINE"
);
},
{
closed = 1;
nodes = (
"200 400 LINE",
"100 400 LINE",
"100 300 LINE",
"200 300 LINE"
);
},
{
closed = 1;
nodes = (
"200 500 LINE",
"200 600 LINE",
"100 600 LINE",
"100 500 LINE"
);
}
);
width = 700;
},
{
associatedMasterId = "32649BF3-7508-413C-B85E-1CA78B2743BE";
layerId = "3947EAF0-5083-4A71-820F-BA74E7E015CD";
name = "Apr 25 21, 10:25";
paths = (
{
closed = 1;
nodes = (
"250 500 LINE",
"350 500 LINE",
"350 600 LINE",
"250 600 LINE"
);
},
{
closed = 1;
nodes = (
"250 300 LINE",
"350 300 LINE",
"350 400 LINE",
"250 400 LINE"
);
},
{
closed = 1;
nodes = (
"350 400 LINE",
"450 400 LINE",
"450 500 LINE",
"350 500 LINE"
);
},
{
closed = 1;
nodes = (
"150 400 LINE",
"250 400 LINE",
"250 500 LINE",
"150 500 LINE"
);
},
{
closed = 1;
nodes = (
"250 600 LINE",
"350 600 LINE",
"350 700 LINE",
"250 700 LINE"
);
},
{
closed = 1;
nodes = (
"250 200 LINE",
"350 200 LINE",
"350 300 LINE",
"250 300 LINE"
);
},
{
closed = 1;
nodes = (
"450 600 LINE",
"550 600 LINE",
"550 700 LINE",
"450 700 LINE"
);
},
{
closed = 1;
nodes = (
"50 600 LINE",
"150 600 LINE",
"150 700 LINE",
"50 700 LINE"
);
},
{
closed = 1;
nodes = (
"450 200 LINE",
"550 200 LINE",
"550 300 LINE",
"450 300 LINE"
);
},
{
closed = 1;
nodes = (
"50 200 LINE",
"150 200 LINE",
"150 300 LINE",
"50 300 LINE"
);
}
);
width = 600;
},
{
associatedMasterId = "32649BF3-7508-413C-B85E-1CA78B2743BE";
layerId = "D0496600-2E5D-4E23-918C-7C14415DF175";
name = "Apr 25 21, 10:25";
paths = (
{
closed = 1;
nodes = (
"250 500 LINE",
"350 500 LINE",
"350 600 LINE",
"250 600 LINE"
);
},
{
closed = 1;
nodes = (
"250 300 LINE",
"350 300 LINE",
"350 400 LINE",
"250 400 LINE"
);
},
{
closed = 1;
nodes = (
"350 400 LINE",
"450 400 LINE",
"450 500 LINE",
"350 500 LINE"
);
},
{
closed = 1;
nodes = (
"150 400 LINE",
"250 400 LINE",
"250 500 LINE",
"150 500 LINE"
);
},
{
closed = 1;
nodes = (
"450 600 LINE",
"550 600 LINE",
"550 700 LINE",
"450 700 LINE"
);
},
{
closed = 1;
nodes = (
"50 600 LINE",
"150 600 LINE",
"150 700 LINE",
"50 700 LINE"
);
},
{
closed = 1;
nodes = (
"450 200 LINE",
"550 200 LINE",
"550 300 LINE",
"450 300 LINE"
);
},
{
closed = 1;
nodes = (
"50 200 LINE",
"150 200 LINE",
"150 300 LINE",
"50 300 LINE"
);
}
);
width = 600;
},
{
associatedMasterId = "32649BF3-7508-413C-B85E-1CA78B2743BE";
layerId = "70BE42CB-8898-4350-B51D-919EB8A429F7";
name = "Apr 25 21, 10:31";
paths = (
{
closed = 1;
nodes = (
"300 500 LINE",
"400 500 LINE",
"400 600 LINE",
"300 600 LINE"
);
},
{
closed = 1;
nodes = (
"400 600 LINE",
"500 600 LINE",
"500 700 LINE",
"400 700 LINE"
);
},
{
closed = 1;
nodes = (
"200 600 LINE",
"300 600 LINE",
"300 700 LINE",
"200 700 LINE"
);
},
{
closed = 1;
nodes = (
"400 400 LINE",
"500 400 LINE",
"500 500 LINE",
"400 500 LINE"
);
},
{
closed = 1;
nodes = (
"200 400 LINE",
"300 400 LINE",
"300 500 LINE",
"200 500 LINE"
);
}
);
width = 700;
}
);
unicode = 002A;
},
{
glyphname = numbersign;
lastChange = "2021-04-25 08:30:02 +0000";
layers = (
{
layerId = "32649BF3-7508-413C-B85E-1CA78B2743BE";
paths = (
{
closed = 1;
nodes = (
"200 600 LINE",
"200 500 LINE",
"100 500 LINE",
"100 400 LINE",
"200 400 LINE",
"200 200 LINE",
"100 200 LINE",
"100 100 LINE",
"200 100 LINE",
"200 0 LINE",
"300 0 LINE",
"300 100 LINE",
"400 100 LINE",
"400 0 LINE",
"500 0 LINE",
"500 100 LINE",
"600 100 LINE",
"600 200 LINE",
"500 200 LINE",
"500 400 LINE",
"600 400 LINE",
"600 500 LINE",
"500 500 LINE",
"500 600 LINE",
"400 600 LINE",
"400 500 LINE",
"300 500 LINE",
"300 600 LINE"
);
},
{
closed = 1;
nodes = (
"300 400 LINE",
"400 400 LINE",
"400 200 LINE",
"300 200 LINE"
);
}
);
width = 700;
},
{
associatedMasterId = "32649BF3-7508-413C-B85E-1CA78B2743BE";
layerId = "1E02A85E-8393-470C-90D8-507FE08C5BDD";
name = "Apr 25 21, 10:29";
paths = (
{
closed = 1;
nodes = (
"300 600 LINE",
"300 400 LINE",
"400 400 LINE",
"400 600 LINE"
);
},
{
closed = 1;
nodes = (
"300 400 LINE",
"200 400 LINE",
"200 200 LINE",
"300 200 LINE"
);
},
{
closed = 1;
nodes = (
"200 200 LINE",
"100 200 LINE",
"100 0 LINE",
"200 0 LINE"
);
},
{
closed = 1;
nodes = (
"500 600 LINE",
"500 400 LINE",
"600 400 LINE",
"600 600 LINE"
);
},
{
closed = 1;
nodes = (
"500 400 LINE",
"400 400 LINE",
"400 200 LINE",
"500 200 LINE"
);
},
{
closed = 1;
nodes = (
"400 200 LINE",
"300 200 LINE",
"300 0 LINE",
"400 0 LINE"
);
},
{
closed = 1;
nodes = (
"850 600 LINE",
"850 500 LINE",
"750 500 LINE",
"750 400 LINE",
"850 400 LINE",
"850 200 LINE",
"750 200 LINE",
"750 100 LINE",
"850 100 LINE",
"850 0 LINE",
"950 0 LINE",
"950 100 LINE",
"1150 100 LINE",
"1150 0 LINE",
"1250 0 LINE",
"1250 100 LINE",
"1350 100 LINE",
"1350 200 LINE",
"1250 200 LINE",
"1250 400 LINE",
"1350 400 LINE",
"1350 500 LINE",
"1250 500 LINE",
"1250 600 LINE",
"1150 600 LINE",
"1150 500 LINE",
"950 500 LINE",
"950 600 LINE"
);
},
{
closed = 1;
nodes = (
"950 400 LINE",
"1150 400 LINE",
"1150 200 LINE",
"950 200 LINE"
);
},
{
closed = 1;
nodes = (
"0 100 LINE",
"600 100 LINE",
"600 200 LINE",
"0 200 LINE"
);
},
{
closed = 1;
nodes = (
"100 400 LINE",
"700 400 LINE",
"700 500 LINE",
"100 500 LINE"
);
}
);
width = 700;
}
);
unicode = 0023;
},
{
glyphname = slash;
lastChange = "2021-04-25 09:17:30 +0000";
layers = (
{
layerId = "32649BF3-7508-413C-B85E-1CA78B2743BE";
paths = (
{
closed = 1;
nodes = (
"400 700 LINE",
"400 500 LINE",
"500 500 LINE",
"500 700 LINE"
);
},
{
closed = 1;
nodes = (
"400 500 LINE",
"300 500 LINE",
"300 300 LINE",
"400 300 LINE"
);
},
{
closed = 1;
nodes = (
"300 300 LINE",
"200 300 LINE",
"200 100 LINE",
"300 100 LINE"
);
},
{
closed = 1;
nodes = (
"200 100 LINE",
"100 100 LINE",
"100 -100 LINE",
"200 -100 LINE"
);
}
);
width = 700;
}
);
unicode = 002F;
},
{
glyphname = backslash;
lastChange = "2021-04-24 13:36:19 +0000";
layers = (
{
layerId = "32649BF3-7508-413C-B85E-1CA78B2743BE";
paths = (
{
closed = 1;
nodes = (
"200 700 LINE",
"200 500 LINE",
"300 500 LINE",
"300 700 LINE"
);
},
{
closed = 1;
nodes = (
"300 500 LINE",
"300 300 LINE",
"400 300 LINE",
"400 500 LINE"
);
},
{
closed = 1;
nodes = (
"400 300 LINE",
"400 100 LINE",
"500 100 LINE",
"500 300 LINE"
);
},
{
closed = 1;
nodes = (
"500 100 LINE",
"500 -100 LINE",
"600 -100 LINE",
"600 100 LINE"
);
}
);
width = 700;
}
);
unicode = 005C;
},
{
glyphname = questiondown.casa;
lastChange = "2021-05-02 11:46:52 +0000";
layers = (
{
layerId = "32649BF3-7508-413C-B85E-1CA78B2743BE";
paths = (
{
closed = 1;
nodes = (
"200 100 LINE",
"200 0 LINE",
"500 0 LINE",
"500 100 LINE"
);
},
{
closed = 1;
nodes = (
"300 700 LINE",
"300 600 LINE",
"400 600 LINE",
"400 700 LINE"
);
},
{
closed = 1;
nodes = (
"100 300 LINE",
"100 100 LINE",
"200 100 LINE",
"200 300 LINE"
);
},
{
closed = 1;
nodes = (
"300 500 LINE",
"300 400 LINE",
"400 400 LINE",
"400 500 LINE"
);
},
{
closed = 1;
nodes = (
"200 400 LINE",
"200 300 LINE",
"300 300 LINE",
"300 400 LINE"
);
},
{
closed = 1;
nodes = (
"600 200 LINE",
"500 200 LINE",
"500 100 LINE",
"600 100 LINE"
);
}
);
width = 700;
}
);
},
{
glyphname = hyphen;
lastChange = "2021-04-24 13:22:29 +0000";
layers = (
{
hints = (
{
horizontal = 1;
place = "{190, 100}";
type = Stem;
},
{
place = "{201, 300}";
type = Stem;
}
);
layerId = "32649BF3-7508-413C-B85E-1CA78B2743BE";
paths = (
{
closed = 1;
nodes = (
"500 300 LINE",
"200 300 LINE",
"200 200 LINE",
"500 200 LINE"
);
}
);
width = 700;
}
);
note = hyphen;
unicode = 002D;
},
{
glyphname = endash;
lastChange = "2021-04-24 13:23:28 +0000";
layers = (
{
layerId = "32649BF3-7508-413C-B85E-1CA78B2743BE";
paths = (
{
closed = 1;
nodes = (
"100 200 LINE",
"600 200 LINE",
"600 300 LINE",
"100 300 LINE"
);
}
);
width = 700;
}
);
unicode = 2013;
},
{
glyphname = emdash;
lastChange = "2021-04-24 13:24:49 +0000";
layers = (
{
layerId = "32649BF3-7508-413C-B85E-1CA78B2743BE";
paths = (
{
closed = 1;
nodes = (
"0 200 LINE",
"700 200 LINE",
"700 300 LINE",
"0 300 LINE"
);
}
);
width = 700;
}
);
unicode = 2014;
},
{
glyphname = underscore;
lastChange = "2021-04-24 13:24:06 +0000";
layers = (
{
layerId = "32649BF3-7508-413C-B85E-1CA78B2743BE";
paths = (
{
closed = 1;
nodes = (
"100 0 LINE",
"100 -100 LINE",
"600 -100 LINE",
"600 0 LINE"
);
}
);
width = 700;
}
);
unicode = 005F;
},
{
glyphname = parenleft;
lastChange = "2021-04-25 08:24:16 +0000";
layers = (
{
layerId = "32649BF3-7508-413C-B85E-1CA78B2743BE";
paths = (
{
closed = 1;
nodes = (
"300 700 LINE",
"300 600 LINE",
"400 600 LINE",
"400 700 LINE"
);
},
{
closed = 1;
nodes = (
"300 600 LINE",
"200 600 LINE",
"200 100 LINE",
"300 100 LINE"
);
},
{
closed = 1;
nodes = (
"300 100 LINE",
"300 0 LINE",
"400 0 LINE",
"400 100 LINE"
);
}
);
width = 700;
},
{
associatedMasterId = "32649BF3-7508-413C-B85E-1CA78B2743BE";
layerId = "7F38D4FB-F410-472B-BF9E-93CF7AF680F7";
name = "Apr 24 21, 15:33";
paths = (
{
closed = 1;
nodes = (
"300 700 LINE",
"300 600 LINE",
"400 600 LINE",
"400 700 LINE"
);
},
{
closed = 1;
nodes = (
"300 600 LINE",
"200 600 LINE",
"200 0 LINE",
"300 0 LINE"
);
},
{
closed = 1;
nodes = (
"300 0 LINE",
"300 -100 LINE",
"400 -100 LINE",
"400 0 LINE"
);
}
);
width = 700;
}
);
unicode = 0028;
},
{
glyphname = parenright;
lastChange = "2021-04-25 08:24:23 +0000";
layers = (
{
layerId = "32649BF3-7508-413C-B85E-1CA78B2743BE";
paths = (
{
closed = 1;
nodes = (
"250 700 LINE",
"250 600 LINE",
"350 600 LINE",
"350 700 LINE"
);
},
{
closed = 1;
nodes = (
"450 600 LINE",
"350 600 LINE",
"350 100 LINE",
"450 100 LINE"
);
},
{
closed = 1;
nodes = (
"250 100 LINE",
"250 0 LINE",
"350 0 LINE",
"350 100 LINE"
);
}
);
width = 700;
},
{
associatedMasterId = "32649BF3-7508-413C-B85E-1CA78B2743BE";
layerId = "169BD0D1-B2BB-4C25-9662-4DCEC641398F";
name = "Apr 24 21, 15:34";
paths = (
{
closed = 1;
nodes = (
"250 700 LINE",
"250 600 LINE",
"350 600 LINE",
"350 700 LINE"
);
},
{
closed = 1;
nodes = (
"450 600 LINE",
"350 600 LINE",
"350 0 LINE",
"450 0 LINE"
);
},
{
closed = 1;
nodes = (
"250 0 LINE",
"250 -100 LINE",
"350 -100 LINE",
"350 0 LINE"
);
}
);
width = 700;
}
);
unicode = 0029;
},
{
glyphname = braceleft;
lastChange = "2021-04-24 13:39:21 +0000";
layers = (
{
layerId = "32649BF3-7508-413C-B85E-1CA78B2743BE";
paths = (
{
closed = 1;
nodes = (
"300 600 LINE",
"500 600 LINE",
"500 700 LINE",
"300 700 LINE"
);
},
{
closed = 1;
nodes = (
"300 0 LINE",
"500 0 LINE",
"500 100 LINE",
"300 100 LINE"
);
},
{
closed = 1;
nodes = (
"200 400 LINE",
"300 400 LINE",
"300 600 LINE",
"200 600 LINE"
);
},
{
closed = 1;
nodes = (
"200 100 LINE",
"300 100 LINE",
"300 300 LINE",
"200 300 LINE"
);
},
{
closed = 1;
nodes = (
"100 300 LINE",
"200 300 LINE",
"200 400 LINE",
"100 400 LINE"
);
}
);
width = 700;
}
);
unicode = 007B;
},
{
glyphname = braceright;
lastChange = "2021-04-24 13:40:05 +0000";
layers = (
{
layerId = "32649BF3-7508-413C-B85E-1CA78B2743BE";
paths = (
{
closed = 1;
nodes = (
"200 600 LINE",
"400 600 LINE",
"400 700 LINE",
"200 700 LINE"
);
},
{
closed = 1;
nodes = (
"200 0 LINE",
"400 0 LINE",
"400 100 LINE",
"200 100 LINE"
);
},
{
closed = 1;
nodes = (
"400 400 LINE",
"500 400 LINE",
"500 600 LINE",
"400 600 LINE"
);
},
{
closed = 1;
nodes = (
"400 100 LINE",
"500 100 LINE",
"500 300 LINE",
"400 300 LINE"
);
},
{
closed = 1;
nodes = (
"600 300 LINE",
"500 300 LINE",
"500 400 LINE",
"600 400 LINE"
);
}
);
width = 700;
}
);
unicode = 007D;
},
{
glyphname = bracketleft;
lastChange = "2021-04-24 13:35:18 +0000";
layers = (
{
layerId = "32649BF3-7508-413C-B85E-1CA78B2743BE";
paths = (
{
closed = 1;
nodes = (
"300 700 LINE",
"300 0 LINE",
"500 0 LINE",
"500 100 LINE",
"400 100 LINE",
"400 600 LINE",
"500 600 LINE",
"500 700 LINE"
);
}
);
width = 700;
}
);
unicode = 005B;
},
{
glyphname = bracketright;
lastChange = "2021-04-24 13:37:21 +0000";
layers = (
{
layerId = "32649BF3-7508-413C-B85E-1CA78B2743BE";
paths = (
{
closed = 1;
nodes = (
"200 700 LINE",
"200 600 LINE",
"300 600 LINE",
"300 100 LINE",
"200 100 LINE",
"200 0 LINE",
"400 0 LINE",
"400 700 LINE"
);
}
);
width = 700;
}
);
unicode = 005D;
},
{
glyphname = quotesinglbase;
lastChange = "2021-04-24 13:03:52 +0000";
layers = (
{
layerId = "32649BF3-7508-413C-B85E-1CA78B2743BE";
paths = (
{
closed = 1;
nodes = (
"300 100 LINE",
"300 -100 LINE",
"400 -100 LINE",
"400 100 LINE"
);
},
{
closed = 1;
nodes = (
"200 -100 LINE",
"200 -200 LINE",
"300 -200 LINE",
"300 -100 LINE"
);
}
);
width = 700;
}
);
unicode = 201A;
},
{
glyphname = quotedblbase;
lastChange = "2021-04-24 13:04:29 +0000";
layers = (
{
layerId = "32649BF3-7508-413C-B85E-1CA78B2743BE";
paths = (
{
closed = 1;
nodes = (
"300 100 LINE",
"300 -100 LINE",
"400 -100 LINE",
"400 100 LINE"
);
},
{
closed = 1;
nodes = (
"200 -100 LINE",
"200 -200 LINE",
"300 -200 LINE",
"300 -100 LINE"
);
},
{
closed = 1;
nodes = (
"500 100 LINE",
"500 -100 LINE",
"600 -100 LINE",
"600 100 LINE"
);
},
{
closed = 1;
nodes = (
"400 -100 LINE",
"400 -200 LINE",
"500 -200 LINE",
"500 -100 LINE"
);
}
);
width = 700;
}
);
unicode = 201E;
},
{
glyphname = quotedblleft;
lastChange = "2021-04-27 06:20:50 +0000";
layers = (
{
layerId = "32649BF3-7508-413C-B85E-1CA78B2743BE";
paths = (
{
closed = 1;
nodes = (
"200 700 LINE",
"200 500 LINE",
"300 500 LINE",
"300 700 LINE"
);
},
{
closed = 1;
nodes = (
"300 500 LINE",
"300 400 LINE",
"400 400 LINE",
"400 500 LINE"
);
},
{
closed = 1;
nodes = (
"400 700 LINE",
"400 500 LINE",
"500 500 LINE",
"500 700 LINE"
);
},
{
closed = 1;
nodes = (
"500 500 LINE",
"500 400 LINE",
"600 400 LINE",
"600 500 LINE"
);
}
);
width = 700;
}
);
unicode = 201C;
},
{
glyphname = quotedblright;
lastChange = "2021-04-27 06:18:58 +0000";
layers = (
{
layerId = "32649BF3-7508-413C-B85E-1CA78B2743BE";
paths = (
{
closed = 1;
nodes = (
"400 700 LINE",
"300 700 LINE",
"300 600 LINE",
"400 600 LINE"
);
},
{
closed = 1;
nodes = (
"200 700 LINE",
"100 700 LINE",
"100 600 LINE",
"200 600 LINE"
);
},
{
closed = 1;
nodes = (
"500 600 LINE",
"400 600 LINE",
"400 400 LINE",
"500 400 LINE"
);
},
{
closed = 1;
nodes = (
"300 600 LINE",
"200 600 LINE",
"200 400 LINE",
"300 400 LINE"
);
}
);
width = 700;
}
);
unicode = 201D;
},
{
glyphname = quoteleft;
lastChange = "2021-04-27 06:21:08 +0000";
layers = (
{
hints = (
{
horizontal = 1;
place = "{500, 200}";
type = Stem;
},
{
place = "{300, 100}";
type = Stem;
},
{
horizontal = 1;
place = "{400, 100}";
type = Stem;
},
{
place = "{200, 100}";
type = Stem;
}
);
layerId = "32649BF3-7508-413C-B85E-1CA78B2743BE";
paths = (
{
closed = 1;
nodes = (
"300 700 LINE",
"300 500 LINE",
"400 500 LINE",
"400 700 LINE"
);
},
{
closed = 1;
nodes = (
"400 500 LINE",
"400 400 LINE",
"500 400 LINE",
"500 500 LINE"
);
}
);
width = 700;
}
);
note = quotesingle;
unicode = 2018;
},
{
glyphname = quoteright;
lastChange = "2021-04-27 06:21:33 +0000";
layers = (
{
layerId = "32649BF3-7508-413C-B85E-1CA78B2743BE";
paths = (
{
closed = 1;
nodes = (
"300 600 LINE",
"300 400 LINE",
"400 400 LINE",
"400 600 LINE"
);
},
{
closed = 1;
nodes = (
"200 700 LINE",
"200 600 LINE",
"300 600 LINE",
"300 700 LINE"
);
}
);
width = 700;
}
);
unicode = 2019;
},
{
glyphname = guillemotleft;
lastChange = "2021-04-24 13:08:39 +0000";
layers = (
{
layerId = "32649BF3-7508-413C-B85E-1CA78B2743BE";
paths = (
{
closed = 1;
nodes = (
"500 0 LINE",
"600 0 LINE",
"600 100 LINE",
"500 100 LINE"
);
},
{
closed = 1;
nodes = (
"500 400 LINE",
"600 400 LINE",
"600 500 LINE",
"500 500 LINE"
);
},
{
closed = 1;
nodes = (
"400 300 LINE",
"500 300 LINE",
"500 400 LINE",
"400 400 LINE"
);
},
{
closed = 1;
nodes = (
"400 100 LINE",
"500 100 LINE",
"500 200 LINE",
"400 200 LINE"
);
},
{
closed = 1;
nodes = (
"300 200 LINE",
"400 200 LINE",
"400 300 LINE",
"300 300 LINE"
);
},
{
closed = 1;
nodes = (
"200 0 LINE",
"300 0 LINE",
"300 100 LINE",
"200 100 LINE"
);
},
{
closed = 1;
nodes = (
"200 400 LINE",
"300 400 LINE",
"300 500 LINE",
"200 500 LINE"
);
},
{
closed = 1;
nodes = (
"100 300 LINE",
"200 300 LINE",
"200 400 LINE",
"100 400 LINE"
);
},
{
closed = 1;
nodes = (
"100 100 LINE",
"200 100 LINE",
"200 200 LINE",
"100 200 LINE"
);
},
{
closed = 1;
nodes = (
"0 200 LINE",
"100 200 LINE",
"100 300 LINE",
"0 300 LINE"
);
}
);
width = 700;
}
);
unicode = 00AB;
},
{
glyphname = guillemotright;
lastChange = "2021-04-24 13:09:33 +0000";
layers = (
{
layerId = "32649BF3-7508-413C-B85E-1CA78B2743BE";
paths = (
{
closed = 1;
nodes = (
"400 0 LINE",
"500 0 LINE",
"500 100 LINE",
"400 100 LINE"
);
},
{
closed = 1;
nodes = (
"400 400 LINE",
"500 400 LINE",
"500 500 LINE",
"400 500 LINE"
);
},
{
closed = 1;
nodes = (
"500 300 LINE",
"600 300 LINE",
"600 400 LINE",
"500 400 LINE"
);
},
{
closed = 1;
nodes = (
"500 100 LINE",
"600 100 LINE",
"600 200 LINE",
"500 200 LINE"
);
},
{
closed = 1;
nodes = (
"600 200 LINE",
"700 200 LINE",
"700 300 LINE",
"600 300 LINE"
);
},
{
closed = 1;
nodes = (
"100 0 LINE",
"200 0 LINE",
"200 100 LINE",
"100 100 LINE"
);
},
{
closed = 1;
nodes = (
"100 400 LINE",
"200 400 LINE",
"200 500 LINE",
"100 500 LINE"
);
},
{
closed = 1;
nodes = (
"200 300 LINE",
"300 300 LINE",
"300 400 LINE",
"200 400 LINE"
);
},
{
closed = 1;
nodes = (
"200 100 LINE",
"300 100 LINE",
"300 200 LINE",
"200 200 LINE"
);
},
{
closed = 1;
nodes = (
"300 200 LINE",
"400 200 LINE",
"400 300 LINE",
"300 300 LINE"
);
}
);
width = 700;
}
);
unicode = 00BB;
},
{
glyphname = guilsinglleft;
lastChange = "2021-04-24 13:10:33 +0000";
layers = (
{
layerId = "32649BF3-7508-413C-B85E-1CA78B2743BE";
paths = (
{
closed = 1;
nodes = (
"400 0 LINE",
"500 0 LINE",
"500 100 LINE",
"400 100 LINE"
);
},
{
closed = 1;
nodes = (
"400 400 LINE",
"500 400 LINE",
"500 500 LINE",
"400 500 LINE"
);
},
{
closed = 1;
nodes = (
"300 300 LINE",
"400 300 LINE",
"400 400 LINE",
"300 400 LINE"
);
},
{
closed = 1;
nodes = (
"300 100 LINE",
"400 100 LINE",
"400 200 LINE",
"300 200 LINE"
);
},
{
closed = 1;
nodes = (
"200 200 LINE",
"300 200 LINE",
"300 300 LINE",
"200 300 LINE"
);
}
);
width = 700;
}
);
unicode = 2039;
},
{
glyphname = guilsinglright;
lastChange = "2021-04-25 12:06:08 +0000";
layers = (
{
layerId = "32649BF3-7508-413C-B85E-1CA78B2743BE";
paths = (
{
closed = 1;
nodes = (
"200 0 LINE",
"300 0 LINE",
"300 100 LINE",
"200 100 LINE"
);
},
{
closed = 1;
nodes = (
"200 400 LINE",
"300 400 LINE",
"300 500 LINE",
"200 500 LINE"
);
},
{
closed = 1;
nodes = (
"300 300 LINE",
"400 300 LINE",
"400 400 LINE",
"300 400 LINE"
);
},
{
closed = 1;
nodes = (
"300 100 LINE",
"400 100 LINE",
"400 200 LINE",
"300 200 LINE"
);
},
{
closed = 1;
nodes = (
"400 200 LINE",
"500 200 LINE",
"500 300 LINE",
"400 300 LINE"
);
}
);
width = 700;
}
);
unicode = 203A;
},
{
glyphname = quotedbl;
lastChange = "2021-04-27 06:22:13 +0000";
layers = (
{
layerId = "32649BF3-7508-413C-B85E-1CA78B2743BE";
paths = (
{
closed = 1;
nodes = (
"200 700 LINE",
"200 500 LINE",
"300 500 LINE",
"300 700 LINE"
);
},
{
closed = 1;
nodes = (
"100 500 LINE",
"100 400 LINE",
"200 400 LINE",
"200 500 LINE"
);
},
{
closed = 1;
nodes = (
"400 700 LINE",
"400 500 LINE",
"500 500 LINE",
"500 700 LINE"
);
},
{
closed = 1;
nodes = (
"300 500 LINE",
"300 400 LINE",
"400 400 LINE",
"400 500 LINE"
);
}
);
width = 700;
}
);
unicode = 0022;
},
{
glyphname = quotesingle;
lastChange = "2021-04-27 06:17:51 +0000";
layers = (
{
layerId = "32649BF3-7508-413C-B85E-1CA78B2743BE";
paths = (
{
closed = 1;
nodes = (
"300 700 LINE",
"300 500 LINE",
"400 500 LINE",
"400 700 LINE"
);
},
{
closed = 1;
nodes = (
"200 400 LINE",
"300 400 LINE",
"300 500 LINE",
"200 500 LINE"
);
}
);
width = 700;
}
);
unicode = 0027;
},
{
glyphname = guillemotleft.case;
lastChange = "2021-05-02 11:46:57 +0000";
layers = (
{
layerId = "32649BF3-7508-413C-B85E-1CA78B2743BE";
paths = (
{
closed = 1;
nodes = (
"500 100 LINE",
"600 100 LINE",
"600 200 LINE",
"500 200 LINE"
);
},
{
closed = 1;
nodes = (
"500 500 LINE",
"600 500 LINE",
"600 600 LINE",
"500 600 LINE"
);
},
{
closed = 1;
nodes = (
"400 400 LINE",
"500 400 LINE",
"500 500 LINE",
"400 500 LINE"
);
},
{
closed = 1;
nodes = (
"400 200 LINE",
"500 200 LINE",
"500 300 LINE",
"400 300 LINE"
);
},
{
closed = 1;
nodes = (
"300 300 LINE",
"400 300 LINE",
"400 400 LINE",
"300 400 LINE"
);
},
{
closed = 1;
nodes = (
"200 100 LINE",
"300 100 LINE",
"300 200 LINE",
"200 200 LINE"
);
},
{
closed = 1;
nodes = (
"200 500 LINE",
"300 500 LINE",
"300 600 LINE",
"200 600 LINE"
);
},
{
closed = 1;
nodes = (
"100 400 LINE",
"200 400 LINE",
"200 500 LINE",
"100 500 LINE"
);
},
{
closed = 1;
nodes = (
"100 200 LINE",
"200 200 LINE",
"200 300 LINE",
"100 300 LINE"
);
},
{
closed = 1;
nodes = (
"0 300 LINE",
"100 300 LINE",
"100 400 LINE",
"0 400 LINE"
);
}
);
width = 700;
}
);
},
{
glyphname = guillemotright.case;
lastChange = "2021-05-02 11:47:02 +0000";
layers = (
{
layerId = "32649BF3-7508-413C-B85E-1CA78B2743BE";
paths = (
{
closed = 1;
nodes = (
"400 100 LINE",
"500 100 LINE",
"500 200 LINE",
"400 200 LINE"
);
},
{
closed = 1;
nodes = (
"400 500 LINE",
"500 500 LINE",
"500 600 LINE",
"400 600 LINE"
);
},
{
closed = 1;
nodes = (
"500 400 LINE",
"600 400 LINE",
"600 500 LINE",
"500 500 LINE"
);
},
{
closed = 1;
nodes = (
"500 200 LINE",
"600 200 LINE",
"600 300 LINE",
"500 300 LINE"
);
},
{
closed = 1;
nodes = (
"600 300 LINE",
"700 300 LINE",
"700 400 LINE",
"600 400 LINE"
);
},
{
closed = 1;
nodes = (
"100 100 LINE",
"200 100 LINE",
"200 200 LINE",
"100 200 LINE"
);
},
{
closed = 1;
nodes = (
"100 500 LINE",
"200 500 LINE",
"200 600 LINE",
"100 600 LINE"
);
},
{
closed = 1;
nodes = (
"200 400 LINE",
"300 400 LINE",
"300 500 LINE",
"200 500 LINE"
);
},
{
closed = 1;
nodes = (
"200 200 LINE",
"300 200 LINE",
"300 300 LINE",
"200 300 LINE"
);
},
{
closed = 1;
nodes = (
"300 300 LINE",
"400 300 LINE",
"400 400 LINE",
"300 400 LINE"
);
}
);
width = 700;
}
);
},
{
glyphname = guilsinglleft.case;
lastChange = "2021-05-02 11:47:08 +0000";
layers = (
{
layerId = "32649BF3-7508-413C-B85E-1CA78B2743BE";
paths = (
{
closed = 1;
nodes = (
"400 100 LINE",
"500 100 LINE",
"500 200 LINE",
"400 200 LINE"
);
},
{
closed = 1;
nodes = (
"400 500 LINE",
"500 500 LINE",
"500 600 LINE",
"400 600 LINE"
);
},
{
closed = 1;
nodes = (
"300 400 LINE",
"400 400 LINE",
"400 500 LINE",
"300 500 LINE"
);
},
{
closed = 1;
nodes = (
"300 200 LINE",
"400 200 LINE",
"400 300 LINE",
"300 300 LINE"
);
},
{
closed = 1;
nodes = (
"200 300 LINE",
"300 300 LINE",
"300 400 LINE",
"200 400 LINE"
);
}
);
width = 600;
}
);
},
{
glyphname = guilsinglright.case;
lastChange = "2021-05-02 11:47:13 +0000";
layers = (
{
layerId = "32649BF3-7508-413C-B85E-1CA78B2743BE";
paths = (
{
closed = 1;
nodes = (
"200 100 LINE",
"300 100 LINE",
"300 200 LINE",
"200 200 LINE"
);
},
{
closed = 1;
nodes = (
"200 500 LINE",
"300 500 LINE",
"300 600 LINE",
"200 600 LINE"
);
},
{
closed = 1;
nodes = (
"300 400 LINE",
"400 400 LINE",
"400 500 LINE",
"300 500 LINE"
);
},
{
closed = 1;
nodes = (
"300 200 LINE",
"400 200 LINE",
"400 300 LINE",
"300 300 LINE"
);
},
{
closed = 1;
nodes = (
"400 300 LINE",
"500 300 LINE",
"500 400 LINE",
"400 400 LINE"
);
}
);
width = 600;
}
);
},
{
glyphname = florin;
lastChange = "2021-04-25 12:35:55 +0000";
layers = (
{
layerId = "32649BF3-7508-413C-B85E-1CA78B2743BE";
paths = (
{
closed = 1;
nodes = (
"400 700 LINE",
"400 600 LINE",
"500 600 LINE",
"500 700 LINE"
);
},
{
closed = 1;
nodes = (
"400 600 LINE",
"300 600 LINE",
"300 400 LINE",
"200 400 LINE",
"200 300 LINE",
"300 300 LINE",
"300 100 LINE",
"400 100 LINE",
"400 300 LINE",
"500 300 LINE",
"500 400 LINE",
"400 400 LINE"
);
},
{
closed = 1;
nodes = (
"300 100 LINE",
"200 100 LINE",
"200 0 LINE",
"300 0 LINE"
);
}
);
width = 700;
}
);
unicode = 0192;
},
{
glyphname = at;
lastChange = "2021-04-25 13:04:36 +0000";
layers = (
{
associatedMasterId = "32649BF3-7508-413C-B85E-1CA78B2743BE";
layerId = "3A4A9B2B-DB32-4035-9785-8B07600F54FB";
name = "Apr 25 21, 14:08";
paths = (
{
closed = 1;
nodes = (
"100 700 LINE",
"100 600 LINE",
"500 600 LINE",
"500 700 LINE"
);
},
{
closed = 1;
nodes = (
"500 600 LINE",
"500 300 LINE",
"600 300 LINE",
"600 600 LINE"
);
},
{
closed = 1;
nodes = (
"100 600 LINE",
"0 600 LINE",
"0 100 LINE",
"100 100 LINE"
);
},
{
closed = 1;
nodes = (
"100 100 LINE",
"100 0 LINE",
"600 0 LINE",
"600 100 LINE"
);
},
{
closed = 1;
nodes = (
"600 100 LINE",
"700 100 LINE",
"700 200 LINE",
"600 200 LINE"
);
},
{
closed = 1;
nodes = (
"400 400 LINE",
"500 400 LINE",
"500 500 LINE",
"400 500 LINE"
);
},
{
closed = 1;
nodes = (
"400 200 LINE",
"500 200 LINE",
"500 300 LINE",
"400 300 LINE"
);
},
{
closed = 1;
nodes = (
"300 500 LINE",
"400 500 LINE",
"400 600 LINE",
"300 600 LINE"
);
},
{
closed = 1;
nodes = (
"300 100 LINE",
"400 100 LINE",
"400 200 LINE",
"300 200 LINE"
);
},
{
closed = 1;
nodes = (
"200 200 LINE",
"300 200 LINE",
"300 500 LINE",
"200 500 LINE"
);
}
);
width = 700;
},
{
associatedMasterId = "32649BF3-7508-413C-B85E-1CA78B2743BE";
layerId = "B6A016C0-4114-4EA8-8B7E-D9D58A0676E4";
name = "Apr 25 21, 14:10";
paths = (
{
closed = 1;
nodes = (
"200 700 LINE",
"200 600 LINE",
"600 600 LINE",
"600 700 LINE"
);
},
{
closed = 1;
nodes = (
"600 600 LINE",
"600 300 LINE",
"700 300 LINE",
"700 600 LINE"
);
},
{
closed = 1;
nodes = (
"200 600 LINE",
"100 600 LINE",
"100 100 LINE",
"200 100 LINE"
);
},
{
closed = 1;
nodes = (
"200 100 LINE",
"200 0 LINE",
"600 0 LINE",
"600 100 LINE"
);
},
{
closed = 1;
nodes = (
"600 100 LINE",
"700 100 LINE",
"700 200 LINE",
"600 200 LINE"
);
},
{
closed = 1;
nodes = (
"500 400 LINE",
"600 400 LINE",
"600 500 LINE",
"500 500 LINE"
);
},
{
closed = 1;
nodes = (
"500 200 LINE",
"600 200 LINE",
"600 300 LINE",
"500 300 LINE"
);
},
{
closed = 1;
nodes = (
"400 500 LINE",
"500 500 LINE",
"500 600 LINE",
"400 600 LINE"
);
},
{
closed = 1;
nodes = (
"400 100 LINE",
"500 100 LINE",
"500 200 LINE",
"400 200 LINE"
);
},
{
closed = 1;
nodes = (
"300 200 LINE",
"400 200 LINE",
"400 500 LINE",
"300 500 LINE"
);
}
);
width = 700;
},
{
layerId = "32649BF3-7508-413C-B85E-1CA78B2743BE";
paths = (
{
closed = 1;
nodes = (
"600 700 LINE",
"200 700 LINE",
"200 600 LINE",
"600 600 LINE"
);
},
{
closed = 1;
nodes = (
"200 600 LINE",
"100 600 LINE",
"100 500 LINE",
"200 500 LINE"
);
},
{
closed = 1;
nodes = (
"600 600 LINE",
"600 200 LINE",
"700 200 LINE",
"700 600 LINE"
);
},
{
closed = 1;
nodes = (
"0 500 LINE",
"0 100 LINE",
"100 100 LINE",
"100 500 LINE"
);
},
{
closed = 1;
nodes = (
"500 400 LINE",
"400 400 LINE",
"400 400 LINE",
"400 400 LINE",
"400 200 LINE",
"500 200 LINE"
);
},
{
closed = 1;
nodes = (
"300 400 LINE",
"200 400 LINE",
"200 200 LINE",
"300 200 LINE"
);
},
{
closed = 1;
nodes = (
"500 100 LINE",
"600 100 LINE",
"600 200 LINE",
"500 200 LINE"
);
},
{
closed = 1;
nodes = (
"100 0 LINE",
"200 0 LINE",
"200 100 LINE",
"100 100 LINE"
);
},
{
closed = 1;
nodes = (
"500 -100 LINE",
"500 0 LINE",
"200 0 LINE",
"200 -100 LINE"
);
},
{
closed = 1;
nodes = (
"300 400 LINE",
"400 400 LINE",
"400 500 LINE",
"300 500 LINE"
);
},
{
closed = 1;
nodes = (
"300 100 LINE",
"400 100 LINE",
"400 200 LINE",
"300 200 LINE"
);
},
{
closed = 1;
nodes = (
"500 400 LINE",
"600 400 LINE",
"600 500 LINE",
"500 500 LINE"
);
}
);
width = 700;
},
{
associatedMasterId = "32649BF3-7508-413C-B85E-1CA78B2743BE";
layerId = "0F4D7EFB-D791-4058-B34A-6A0E4667C65D";
name = "Apr 25 21, 14:11";
paths = (
{
closed = 1;
nodes = (
"100 700 LINE",
"100 600 LINE",
"500 600 LINE",
"500 700 LINE"
);
},
{
closed = 1;
nodes = (
"500 600 LINE",
"500 300 LINE",
"600 300 LINE",
"600 600 LINE"
);
},
{
closed = 1;
nodes = (
"100 600 LINE",
"0 600 LINE",
"0 100 LINE",
"100 100 LINE"
);
},
{
closed = 1;
nodes = (
"100 100 LINE",
"100 0 LINE",
"500 0 LINE",
"500 100 LINE"
);
},
{
closed = 1;
nodes = (
"400 400 LINE",
"500 400 LINE",
"500 500 LINE",
"400 500 LINE"
);
},
{
closed = 1;
nodes = (
"400 200 LINE",
"500 200 LINE",
"500 300 LINE",
"400 300 LINE"
);
},
{
closed = 1;
nodes = (
"300 500 LINE",
"400 500 LINE",
"400 600 LINE",
"300 600 LINE"
);
},
{
closed = 1;
nodes = (
"300 100 LINE",
"400 100 LINE",
"400 200 LINE",
"300 200 LINE"
);
},
{
closed = 1;
nodes = (
"200 200 LINE",
"300 200 LINE",
"300 500 LINE",
"200 500 LINE"
);
},
{
closed = 1;
nodes = (
"500 100 LINE",
"600 100 LINE",
"600 200 LINE",
"500 200 LINE"
);
}
);
width = 700;
},
{
associatedMasterId = "32649BF3-7508-413C-B85E-1CA78B2743BE";
layerId = "17D70BA2-7211-42F4-8FE7-7A938CF042A3";
name = "Apr 25 21, 14:12";
paths = (
{
closed = 1;
nodes = (
"100 700 LINE",
"100 600 LINE",
"500 600 LINE",
"500 700 LINE"
);
},
{
closed = 1;
nodes = (
"500 600 LINE",
"500 200 LINE",
"600 200 LINE",
"600 600 LINE"
);
},
{
closed = 1;
nodes = (
"100 600 LINE",
"0 600 LINE",
"0 100 LINE",
"100 100 LINE"
);
},
{
closed = 1;
nodes = (
"100 100 LINE",
"100 0 LINE",
"600 0 LINE",
"600 100 LINE"
);
},
{
closed = 1;
nodes = (
"400 300 LINE",
"500 300 LINE",
"500 500 LINE",
"400 500 LINE"
);
},
{
closed = 1;
nodes = (
"300 200 LINE",
"400 200 LINE",
"400 300 LINE",
"300 300 LINE"
);
},
{
closed = 1;
nodes = (
"300 500 LINE",
"400 500 LINE",
"400 600 LINE",
"300 600 LINE"
);
},
{
closed = 1;
nodes = (
"200 300 LINE",
"300 300 LINE",
"300 500 LINE",
"200 500 LINE"
);
},
{
closed = 1;
nodes = (
"600 100 LINE",
"700 100 LINE",
"700 200 LINE",
"600 200 LINE"
);
}
);
width = 700;
}
);
unicode = 0040;
},
{
glyphname = ampersand;
lastChange = "2021-04-24 12:40:14 +0000";
layers = (
{
layerId = "32649BF3-7508-413C-B85E-1CA78B2743BE";
paths = (
{
closed = 1;
nodes = (
"200 0 LINE",
"500 0 LINE",
"500 100 LINE",
"200 100 LINE"
);
},
{
closed = 1;
nodes = (
"600 0 LINE",
"700 0 LINE",
"700 100 LINE",
"600 100 LINE"
);
},
{
closed = 1;
nodes = (
"500 100 LINE",
"600 100 LINE",
"600 300 LINE",
"500 300 LINE"
);
},
{
closed = 1;
nodes = (
"100 100 LINE",
"200 100 LINE",
"200 300 LINE",
"100 300 LINE"
);
},
{
closed = 1;
nodes = (
"200 300 LINE",
"500 300 LINE",
"500 400 LINE",
"200 400 LINE"
);
},
{
closed = 1;
nodes = (
"100 400 LINE",
"200 400 LINE",
"200 600 LINE",
"100 600 LINE"
);
},
{
closed = 1;
nodes = (
"200 600 LINE",
"500 600 LINE",
"500 700 LINE",
"200 700 LINE"
);
},
{
closed = 1;
nodes = (
"500 400 LINE",
"600 400 LINE",
"600 600 LINE",
"500 600 LINE"
);
},
{
closed = 1;
nodes = (
"600 300 LINE",
"700 300 LINE",
"700 400 LINE",
"600 400 LINE"
);
}
);
width = 700;
},
{
associatedMasterId = "32649BF3-7508-413C-B85E-1CA78B2743BE";
layerId = "FA2FC36E-7ABF-4E14-933B-4F8B8CD90EBB";
name = "Apr 24 21, 14:37";
paths = (
{
closed = 1;
nodes = (
"200 0 LINE",
"500 0 LINE",
"500 100 LINE",
"200 100 LINE"
);
},
{
closed = 1;
nodes = (
"600 0 LINE",
"700 0 LINE",
"700 100 LINE",
"600 100 LINE"
);
},
{
closed = 1;
nodes = (
"500 100 LINE",
"600 100 LINE",
"600 300 LINE",
"500 300 LINE"
);
},
{
closed = 1;
nodes = (
"100 100 LINE",
"200 100 LINE",
"200 300 LINE",
"100 300 LINE"
);
},
{
closed = 1;
nodes = (
"200 300 LINE",
"500 300 LINE",
"500 400 LINE",
"200 400 LINE"
);
},
{
closed = 1;
nodes = (
"200 400 LINE",
"300 400 LINE",
"300 600 LINE",
"200 600 LINE"
);
},
{
closed = 1;
nodes = (
"300 600 LINE",
"500 600 LINE",
"500 700 LINE",
"300 700 LINE"
);
},
{
closed = 1;
nodes = (
"500 400 LINE",
"600 400 LINE",
"600 600 LINE",
"500 600 LINE"
);
},
{
closed = 1;
nodes = (
"600 300 LINE",
"700 300 LINE",
"700 400 LINE",
"600 400 LINE"
);
}
);
width = 700;
}
);
unicode = 0026;
},
{
glyphname = paragraph;
lastChange = "2021-04-25 12:00:26 +0000";
layers = (
{
layerId = "32649BF3-7508-413C-B85E-1CA78B2743BE";
paths = (
{
closed = 1;
nodes = (
"200 700 LINE",
"200 600 LINE",
"100 600 LINE",
"100 400 LINE",
"200 400 LINE",
"200 300 LINE",
"300 300 LINE",
"300 -100 LINE",
"400 -100 LINE",
"400 600 LINE",
"500 600 LINE",
"500 -100 LINE",
"600 -100 LINE",
"600 700 LINE"
);
}
);
width = 700;
}
);
unicode = 00B6;
},
{
glyphname = section;
lastChange = "2021-04-25 12:44:55 +0000";
layers = (
{
layerId = "32649BF3-7508-413C-B85E-1CA78B2743BE";
paths = (
{
closed = 1;
nodes = (
"300 700 LINE",
"300 600 LINE",
"600 600 LINE",
"600 700 LINE"
);
},
{
closed = 1;
nodes = (
"300 600 LINE",
"200 600 LINE",
"200 500 LINE",
"300 500 LINE"
);
},
{
closed = 1;
nodes = (
"300 500 LINE",
"300 400 LINE",
"500 400 LINE",
"500 500 LINE"
);
},
{
closed = 1;
nodes = (
"500 400 LINE",
"500 200 LINE",
"600 200 LINE",
"600 400 LINE"
);
},
{
closed = 1;
nodes = (
"500 200 LINE",
"300 200 LINE",
"300 100 LINE",
"500 100 LINE"
);
},
{
closed = 1;
nodes = (
"500 100 LINE",
"500 0 LINE",
"600 0 LINE",
"600 100 LINE"
);
},
{
closed = 1;
nodes = (
"500 0 LINE",
"200 0 LINE",
"200 -100 LINE",
"500 -100 LINE"
);
},
{
closed = 1;
nodes = (
"300 200 LINE",
"300 400 LINE",
"200 400 LINE",
"200 200 LINE"
);
}
);
width = 700;
},
{
associatedMasterId = "32649BF3-7508-413C-B85E-1CA78B2743BE";
layerId = "1F4CF0C8-F84F-4E69-8DCF-ACB40693F441";
name = "Apr 25 21, 14:44";
paths = (
{
closed = 1;
nodes = (
"200 700 LINE",
"200 600 LINE",
"400 600 LINE",
"400 700 LINE"
);
},
{
closed = 1;
nodes = (
"200 600 LINE",
"100 600 LINE",
"100 500 LINE",
"200 500 LINE"
);
},
{
closed = 1;
nodes = (
"200 500 LINE",
"200 400 LINE",
"400 400 LINE",
"400 500 LINE"
);
},
{
closed = 1;
nodes = (
"400 400 LINE",
"400 200 LINE",
"500 200 LINE",
"500 400 LINE"
);
},
{
closed = 1;
nodes = (
"400 200 LINE",
"200 200 LINE",
"200 100 LINE",
"400 100 LINE"
);
},
{
closed = 1;
nodes = (
"400 100 LINE",
"400 0 LINE",
"500 0 LINE",
"500 100 LINE"
);
},
{
closed = 1;
nodes = (
"400 0 LINE",
"200 0 LINE",
"200 -100 LINE",
"400 -100 LINE"
);
},
{
closed = 1;
nodes = (
"200 200 LINE",
"200 400 LINE",
"100 400 LINE",
"100 200 LINE"
);
}
);
width = 700;
}
);
unicode = 00A7;
},
{
glyphname = copyright;
lastChange = "2021-04-25 12:46:03 +0000";
layers = (
{
layerId = "32649BF3-7508-413C-B85E-1CA78B2743BE";
paths = (
{
closed = 1;
nodes = (
"200 700 LINE",
"200 600 LINE",
"500 600 LINE",
"500 700 LINE"
);
},
{
closed = 1;
nodes = (
"500 600 LINE",
"500 500 LINE",
"600 500 LINE",
"600 600 LINE"
);
},
{
closed = 1;
nodes = (
"600 500 LINE",
"600 100 LINE",
"700 100 LINE",
"700 500 LINE"
);
},
{
closed = 1;
nodes = (
"600 100 LINE",
"500 100 LINE",
"500 0 LINE",
"600 0 LINE"
);
},
{
closed = 1;
nodes = (
"500 0 LINE",
"200 0 LINE",
"200 -100 LINE",
"500 -100 LINE"
);
},
{
closed = 1;
nodes = (
"200 0 LINE",
"200 100 LINE",
"100 100 LINE",
"100 0 LINE"
);
},
{
closed = 1;
nodes = (
"100 100 LINE",
"100 500 LINE",
"0 500 LINE",
"0 100 LINE"
);
},
{
closed = 1;
nodes = (
"100 500 LINE",
"200 500 LINE",
"200 600 LINE",
"100 600 LINE"
);
},
{
closed = 1;
nodes = (
"300 500 LINE",
"300 400 LINE",
"500 400 LINE",
"500 500 LINE"
);
},
{
closed = 1;
nodes = (
"300 400 LINE",
"200 400 LINE",
"200 200 LINE",
"300 200 LINE"
);
},
{
closed = 1;
nodes = (
"300 200 LINE",
"300 100 LINE",
"500 100 LINE",
"500 200 LINE"
);
}
);
width = 700;
},
{
associatedMasterId = "32649BF3-7508-413C-B85E-1CA78B2743BE";
layerId = "B2F666AC-BDB7-4917-B008-7CDFC399F7DC";
name = "Apr 25 21, 14:45";
paths = (
{
closed = 1;
nodes = (
"200 700 LINE",
"200 600 LINE",
"500 600 LINE",
"500 700 LINE"
);
},
{
closed = 1;
nodes = (
"500 600 LINE",
"500 500 LINE",
"600 500 LINE",
"600 600 LINE"
);
},
{
closed = 1;
nodes = (
"600 500 LINE",
"600 100 LINE",
"700 100 LINE",
"700 500 LINE"
);
},
{
closed = 1;
nodes = (
"600 100 LINE",
"500 100 LINE",
"500 0 LINE",
"600 0 LINE"
);
},
{
closed = 1;
nodes = (
"500 0 LINE",
"200 0 LINE",
"200 -100 LINE",
"500 -100 LINE"
);
},
{
closed = 1;
nodes = (
"200 0 LINE",
"200 100 LINE",
"100 100 LINE",
"100 0 LINE"
);
},
{
closed = 1;
nodes = (
"100 100 LINE",
"100 500 LINE",
"0 500 LINE",
"0 100 LINE"
);
},
{
closed = 1;
nodes = (
"100 500 LINE",
"200 500 LINE",
"200 600 LINE",
"100 600 LINE"
);
},
{
closed = 1;
nodes = (
"300 500 LINE",
"300 400 LINE",
"400 400 LINE",
"400 500 LINE"
);
},
{
closed = 1;
nodes = (
"300 400 LINE",
"200 400 LINE",
"200 200 LINE",
"300 200 LINE"
);
},
{
closed = 1;
nodes = (
"300 200 LINE",
"300 100 LINE",
"400 100 LINE",
"400 200 LINE"
);
}
);
width = 700;
}
);
unicode = 00A9;
},
{
glyphname = trademark;
lastChange = "2021-04-25 12:39:17 +0000";
layers = (
{
layerId = "32649BF3-7508-413C-B85E-1CA78B2743BE";
paths = (
{
closed = 1;
nodes = (
"0 700 LINE",
"0 600 LINE",
"100 600 LINE",
"100 300 LINE",
"200 300 LINE",
"200 600 LINE",
"300 600 LINE",
"300 700 LINE"
);
},
{
closed = 1;
nodes = (
"600 500 LINE",
"600 300 LINE",
"700 300 LINE",
"700 700 LINE",
"600 700 LINE",
"600 600 LINE"
);
},
{
closed = 1;
nodes = (
"400 500 LINE",
"300 500 LINE",
"300 300 LINE",
"400 300 LINE"
);
},
{
closed = 1;
nodes = (
"400 500 LINE",
"500 500 LINE",
"500 600 LINE",
"400 600 LINE"
);
},
{
closed = 1;
nodes = (
"500 600 LINE",
"600 600 LINE",
"600 700 LINE",
"500 700 LINE"
);
},
{
closed = 1;
nodes = (
"300 600 LINE",
"400 600 LINE",
"400 700 LINE",
"300 700 LINE"
);
}
);
width = 700;
},
{
associatedMasterId = "32649BF3-7508-413C-B85E-1CA78B2743BE";
layerId = "17D1CE4E-A7E0-4611-97C5-71477F9B9EA2";
name = "Apr 25 21, 14:38";
paths = (
{
closed = 1;
nodes = (
"50 700 LINE",
"50 600 LINE",
"150 600 LINE",
"150 300 LINE",
"250 300 LINE",
"250 600 LINE",
"350 600 LINE",
"350 700 LINE"
);
},
{
closed = 1;
nodes = (
"450 600 LINE",
"450 500 LINE"
);
},
{
closed = 1;
nodes = (
"450 600 LINE",
"450 500 LINE",
"550 500 LINE",
"550 600 LINE"
);
},
{
closed = 1;
nodes = (
"550 500 LINE",
"550 300 LINE",
"650 300 LINE",
"650 700 LINE",
"550 700 LINE",
"550 600 LINE"
);
},
{
closed = 1;
nodes = (
"450 500 LINE",
"350 500 LINE",
"350 300 LINE",
"450 300 LINE"
);
},
{
closed = 1;
nodes = (
"350 500 LINE",
"450 500 LINE",
"450 700 LINE",
"350 700 LINE"
);
}
);
width = 700;
}
);
unicode = 2122;
},
{
glyphname = degree;
lastChange = "2021-04-25 12:47:05 +0000";
layers = (
{
layerId = "32649BF3-7508-413C-B85E-1CA78B2743BE";
paths = (
{
closed = 1;
nodes = (
"300 700 LINE",
"300 600 LINE",
"400 600 LINE",
"400 700 LINE"
);
},
{
closed = 1;
nodes = (
"400 600 LINE",
"400 400 LINE",
"500 400 LINE",
"500 600 LINE"
);
},
{
closed = 1;
nodes = (
"400 400 LINE",
"300 400 LINE",
"300 300 LINE",
"400 300 LINE"
);
},
{
closed = 1;
nodes = (
"300 400 LINE",
"300 600 LINE",
"200 600 LINE",
"200 400 LINE"
);
}
);
width = 700;
}
);
unicode = 00B0;
},
{
glyphname = bar;
lastChange = "2021-04-25 12:49:46 +0000";
layers = (
{
layerId = "32649BF3-7508-413C-B85E-1CA78B2743BE";
paths = (
{
closed = 1;
nodes = (
"300 -100 LINE",
"400 -100 LINE",
"400 700 LINE",
"300 700 LINE"
);
}
);
width = 700;
}
);
unicode = 007C;
},
{
glyphname = dagger;
lastChange = "2021-04-25 12:01:20 +0000";
layers = (
{
layerId = "32649BF3-7508-413C-B85E-1CA78B2743BE";
paths = (
{
closed = 1;
nodes = (
"300 -200 LINE",
"400 -200 LINE",
"400 700 LINE",
"300 700 LINE"
);
},
{
closed = 1;
nodes = (
"100 400 LINE",
"600 400 LINE",
"600 500 LINE",
"100 500 LINE"
);
}
);
width = 700;
}
);
unicode = 2020;
},
{
glyphname = Euro;
lastChange = "2021-04-25 12:34:59 +0000";
layers = (
{
layerId = "32649BF3-7508-413C-B85E-1CA78B2743BE";
paths = (
{
closed = 1;
nodes = (
"250 700 LINE",
"250 600 LINE",
"500 600 LINE",
"500 700 LINE"
);
},
{
closed = 1;
nodes = (
"500 600 LINE",
"500 500 LINE",
"600 500 LINE",
"600 600 LINE"
);
},
{
closed = 1;
nodes = (
"250 600 LINE",
"150 600 LINE",
"150 500 LINE",
"50 500 LINE",
"50 400 LINE",
"150 400 LINE",
"150 300 LINE",
"50 300 LINE",
"50 200 LINE",
"150 200 LINE",
"150 100 LINE",
"250 100 LINE",
"250 200 LINE",
"450 200 LINE",
"450 300 LINE",
"250 300 LINE",
"250 400 LINE",
"450 400 LINE",
"450 500 LINE",
"250 500 LINE"
);
},
{
closed = 1;
nodes = (
"250 100 LINE",
"250 0 LINE",
"500 0 LINE",
"500 100 LINE"
);
},
{
closed = 1;
nodes = (
"500 100 LINE",
"600 100 LINE",
"600 200 LINE",
"500 200 LINE"
);
}
);
width = 700;
}
);
unicode = 20AC;
},
{
glyphname = cent;
lastChange = "2021-04-25 12:36:16 +0000";
layers = (
{
layerId = "32649BF3-7508-413C-B85E-1CA78B2743BE";
paths = (
{
closed = 1;
nodes = (
"300 700 LINE",
"300 600 LINE",
"200 600 LINE",
"200 500 LINE",
"300 500 LINE",
"300 200 LINE",
"200 200 LINE",
"200 100 LINE",
"300 100 LINE",
"300 0 LINE",
"400 0 LINE",
"400 100 LINE",
"500 100 LINE",
"500 200 LINE",
"400 200 LINE",
"400 500 LINE",
"500 500 LINE",
"500 600 LINE",
"400 600 LINE",
"400 700 LINE"
);
},
{
closed = 1;
nodes = (
"500 500 LINE",
"500 400 LINE",
"600 400 LINE",
"600 500 LINE"
);
},
{
closed = 1;
nodes = (
"500 200 LINE",
"600 200 LINE",
"600 300 LINE",
"500 300 LINE"
);
},
{
closed = 1;
nodes = (
"200 200 LINE",
"200 500 LINE",
"100 500 LINE",
"100 200 LINE"
);
}
);
width = 700;
}
);
unicode = 00A2;
},
{
glyphname = currency;
lastChange = "2021-04-25 12:43:23 +0000";
layers = (
{
layerId = "32649BF3-7508-413C-B85E-1CA78B2743BE";
paths = (
{
closed = 1;
nodes = (
"100 500 LINE",
"100 400 LINE",
"200 400 LINE",
"200 500 LINE"
);
},
{
closed = 1;
nodes = (
"500 500 LINE",
"500 400 LINE",
"600 400 LINE",
"600 500 LINE"
);
},
{
closed = 1;
nodes = (
"300 400 LINE",
"300 300 LINE",
"400 300 LINE",
"400 400 LINE"
);
},
{
closed = 1;
nodes = (
"400 300 LINE",
"400 200 LINE",
"500 200 LINE",
"500 300 LINE"
);
},
{
closed = 1;
nodes = (
"400 200 LINE",
"300 200 LINE",
"300 100 LINE",
"400 100 LINE"
);
},
{
closed = 1;
nodes = (
"300 200 LINE",
"300 300 LINE",
"200 300 LINE",
"200 200 LINE"
);
},
{
closed = 1;
nodes = (
"100 100 LINE",
"100 0 LINE",
"200 0 LINE",
"200 100 LINE"
);
},
{
closed = 1;
nodes = (
"500 100 LINE",
"500 0 LINE",
"600 0 LINE",
"600 100 LINE"
);
}
);
width = 700;
}
);
unicode = 00A4;
},
{
glyphname = dollar;
lastChange = "2021-04-25 12:02:02 +0000";
layers = (
{
layerId = "32649BF3-7508-413C-B85E-1CA78B2743BE";
paths = (
{
closed = 1;
nodes = (
"200 700 LINE",
"200 600 LINE",
"300 600 LINE",
"300 400 LINE",
"200 400 LINE",
"200 300 LINE",
"300 300 LINE",
"300 100 LINE",
"200 100 LINE",
"200 0 LINE",
"500 0 LINE",
"500 100 LINE",
"400 100 LINE",
"400 300 LINE",
"500 300 LINE",
"500 400 LINE",
"400 400 LINE",
"400 600 LINE",
"500 600 LINE",
"500 700 LINE"
);
},
{
closed = 1;
nodes = (
"500 600 LINE",
"500 500 LINE",
"600 500 LINE",
"600 600 LINE"
);
},
{
closed = 1;
nodes = (
"500 300 LINE",
"500 100 LINE",
"600 100 LINE",
"600 300 LINE"
);
},
{
closed = 1;
nodes = (
"200 100 LINE",
"200 200 LINE",
"100 200 LINE",
"100 100 LINE"
);
},
{
closed = 1;
nodes = (
"200 400 LINE",
"200 600 LINE",
"100 600 LINE",
"100 400 LINE"
);
},
{
closed = 1;
nodes = (
"300 700 LINE",
"400 700 LINE",
"400 800 LINE",
"300 800 LINE"
);
},
{
closed = 1;
nodes = (
"300 -100 LINE",
"400 -100 LINE",
"400 0 LINE",
"300 0 LINE"
);
}
);
width = 700;
}
);
unicode = 0024;
},
{
glyphname = sterling;
lastChange = "2021-04-25 12:42:14 +0000";
layers = (
{
layerId = "32649BF3-7508-413C-B85E-1CA78B2743BE";
paths = (
{
closed = 1;
nodes = (
"300 700 LINE",
"300 600 LINE",
"500 600 LINE",
"500 700 LINE"
);
},
{
closed = 1;
nodes = (
"500 600 LINE",
"500 500 LINE",
"600 500 LINE",
"600 600 LINE"
);
},
{
closed = 1;
nodes = (
"300 600 LINE",
"200 600 LINE",
"200 300 LINE",
"100 300 LINE",
"100 200 LINE",
"200 200 LINE",
"200 100 LINE",
"100 100 LINE",
"100 0 LINE",
"500 0 LINE",
"500 100 LINE",
"300 100 LINE",
"300 200 LINE",
"400 200 LINE",
"400 300 LINE",
"300 300 LINE"
);
},
{
closed = 1;
nodes = (
"500 100 LINE",
"600 100 LINE",
"600 200 LINE",
"500 200 LINE"
);
}
);
width = 700;
}
);
unicode = 00A3;
},
{
glyphname = yen;
lastChange = "2021-04-25 12:44:00 +0000";
layers = (
{
layerId = "32649BF3-7508-413C-B85E-1CA78B2743BE";
paths = (
{
closed = 1;
nodes = (
"100 700 LINE",
"100 600 LINE",
"200 600 LINE",
"200 700 LINE"
);
},
{
closed = 1;
nodes = (
"200 600 LINE",
"200 500 LINE",
"300 500 LINE",
"300 600 LINE"
);
},
{
closed = 1;
nodes = (
"300 500 LINE",
"300 400 LINE",
"100 400 LINE",
"100 300 LINE",
"300 300 LINE",
"300 200 LINE",
"100 200 LINE",
"100 100 LINE",
"300 100 LINE",
"300 0 LINE",
"400 0 LINE",
"400 100 LINE",
"600 100 LINE",
"600 200 LINE",
"400 200 LINE",
"400 300 LINE",
"600 300 LINE",
"600 400 LINE",
"400 400 LINE",
"400 500 LINE"
);
},
{
closed = 1;
nodes = (
"400 500 LINE",
"500 500 LINE",
"500 600 LINE",
"400 600 LINE"
);
},
{
closed = 1;
nodes = (
"500 600 LINE",
"600 600 LINE",
"600 700 LINE",
"500 700 LINE"
);
}
);
width = 700;
}
);
unicode = 00A5;
},
{
glyphname = plus;
lastChange = "2021-04-25 12:02:48 +0000";
layers = (
{
layerId = "32649BF3-7508-413C-B85E-1CA78B2743BE";
paths = (
{
closed = 1;
nodes = (
"300 500 LINE",
"300 300 LINE",
"100 300 LINE",
"100 200 LINE",
"300 200 LINE",
"300 0 LINE",
"400 0 LINE",
"400 200 LINE",
"600 200 LINE",
"600 300 LINE",
"400 300 LINE",
"400 500 LINE"
);
}
);
width = 700;
}
);
unicode = 002B;
},
{
glyphname = multiply;
lastChange = "2021-04-25 12:33:32 +0000";
layers = (
{
layerId = "32649BF3-7508-413C-B85E-1CA78B2743BE";
paths = (
{
closed = 1;
nodes = (
"100 400 LINE",
"200 400 LINE",
"200 500 LINE",
"100 500 LINE"
);
},
{
closed = 1;
nodes = (
"200 300 LINE",
"300 300 LINE",
"300 400 LINE",
"200 400 LINE"
);
},
{
closed = 1;
nodes = (
"300 200 LINE",
"400 200 LINE",
"400 300 LINE",
"300 300 LINE"
);
},
{
closed = 1;
nodes = (
"400 100 LINE",
"500 100 LINE",
"500 200 LINE",
"400 200 LINE"
);
},
{
closed = 1;
nodes = (
"400 300 LINE",
"500 300 LINE",
"500 400 LINE",
"400 400 LINE"
);
},
{
closed = 1;
nodes = (
"500 400 LINE",
"600 400 LINE",
"600 500 LINE",
"500 500 LINE"
);
},
{
closed = 1;
nodes = (
"200 100 LINE",
"300 100 LINE",
"300 200 LINE",
"200 200 LINE"
);
},
{
closed = 1;
nodes = (
"100 0 LINE",
"200 0 LINE",
"200 100 LINE",
"100 100 LINE"
);
},
{
closed = 1;
nodes = (
"500 0 LINE",
"600 0 LINE",
"600 100 LINE",
"500 100 LINE"
);
}
);
width = 700;
}
);
unicode = 00D7;
},
{
glyphname = divide;
lastChange = "2021-04-25 12:33:47 +0000";
layers = (
{
layerId = "32649BF3-7508-413C-B85E-1CA78B2743BE";
paths = (
{
closed = 1;
nodes = (
"100 200 LINE",
"600 200 LINE",
"600 300 LINE",
"100 300 LINE"
);
},
{
closed = 1;
nodes = (
"300 400 LINE",
"400 400 LINE",
"400 500 LINE",
"300 500 LINE"
);
},
{
closed = 1;
nodes = (
"300 0 LINE",
"400 0 LINE",
"400 100 LINE",
"300 100 LINE"
);
}
);
width = 700;
}
);
unicode = 00F7;
},
{
glyphname = equal;
lastChange = "2021-04-25 12:03:13 +0000";
layers = (
{
layerId = "32649BF3-7508-413C-B85E-1CA78B2743BE";
paths = (
{
closed = 1;
nodes = (
"100 400 LINE",
"100 300 LINE",
"600 300 LINE",
"600 400 LINE"
);
},
{
closed = 1;
nodes = (
"100 200 LINE",
"100 100 LINE",
"600 100 LINE",
"600 200 LINE"
);
}
);
width = 700;
}
);
unicode = 003D;
},
{
glyphname = notequal;
lastChange = "2021-04-25 12:34:17 +0000";
layers = (
{
layerId = "32649BF3-7508-413C-B85E-1CA78B2743BE";
paths = (
{
closed = 1;
nodes = (
"100 100 LINE",
"600 100 LINE",
"600 200 LINE",
"100 200 LINE"
);
},
{
closed = 1;
nodes = (
"100 300 LINE",
"600 300 LINE",
"600 400 LINE",
"100 400 LINE"
);
},
{
closed = 1;
nodes = (
"400 400 LINE",
"500 400 LINE",
"500 500 LINE",
"400 500 LINE"
);
},
{
closed = 1;
nodes = (
"300 200 LINE",
"400 200 LINE",
"400 300 LINE",
"300 300 LINE"
);
},
{
closed = 1;
nodes = (
"150 0 LINE",
"250 0 LINE",
"250 100 LINE",
"150 100 LINE"
);
}
);
width = 700;
}
);
unicode = 2260;
},
{
glyphname = greater;
lastChange = "2021-04-25 12:13:41 +0000";
layers = (
{
layerId = "32649BF3-7508-413C-B85E-1CA78B2743BE";
paths = (
{
closed = 1;
nodes = (
"300 0 LINE",
"400 0 LINE",
"400 100 LINE",
"300 100 LINE"
);
},
{
closed = 1;
nodes = (
"300 400 LINE",
"400 400 LINE",
"400 500 LINE",
"300 500 LINE"
);
},
{
closed = 1;
nodes = (
"400 300 LINE",
"500 300 LINE",
"500 400 LINE",
"400 400 LINE"
);
},
{
closed = 1;
nodes = (
"400 100 LINE",
"500 100 LINE",
"500 200 LINE",
"400 200 LINE"
);
},
{
closed = 1;
nodes = (
"500 200 LINE",
"600 200 LINE",
"600 300 LINE",
"500 300 LINE"
);
},
{
closed = 1;
nodes = (
"200 500 LINE",
"300 500 LINE",
"300 600 LINE",
"200 600 LINE"
);
},
{
closed = 1;
nodes = (
"200 -100 LINE",
"300 -100 LINE",
"300 0 LINE",
"200 0 LINE"
);
}
);
width = 700;
}
);
unicode = 003E;
},
{
glyphname = less;
lastChange = "2021-04-25 12:13:36 +0000";
layers = (
{
layerId = "32649BF3-7508-413C-B85E-1CA78B2743BE";
paths = (
{
closed = 1;
nodes = (
"300 500 LINE",
"300 400 LINE",
"400 400 LINE",
"400 500 LINE"
);
},
{
closed = 1;
nodes = (
"300 400 LINE",
"200 400 LINE",
"200 300 LINE",
"300 300 LINE"
);
},
{
closed = 1;
nodes = (
"200 300 LINE",
"100 300 LINE",
"100 200 LINE",
"200 200 LINE"
);
},
{
closed = 1;
nodes = (
"200 200 LINE",
"200 100 LINE",
"300 100 LINE",
"300 200 LINE"
);
},
{
closed = 1;
nodes = (
"300 100 LINE",
"300 0 LINE",
"400 0 LINE",
"400 100 LINE"
);
},
{
closed = 1;
nodes = (
"400 500 LINE",
"500 500 LINE",
"500 600 LINE",
"400 600 LINE"
);
},
{
closed = 1;
nodes = (
"400 -100 LINE",
"500 -100 LINE",
"500 0 LINE",
"400 0 LINE"
);
}
);
width = 700;
}
);
unicode = 003C;
},
{
glyphname = greaterequal;
lastChange = "2021-04-25 12:49:16 +0000";
layers = (
{
layerId = "32649BF3-7508-413C-B85E-1CA78B2743BE";
paths = (
{
closed = 1;
nodes = (
"200 0 LINE",
"500 0 LINE",
"500 100 LINE",
"200 100 LINE"
);
},
{
closed = 1;
nodes = (
"200 200 LINE",
"300 200 LINE",
"300 300 LINE",
"200 300 LINE"
);
},
{
closed = 1;
nodes = (
"200 600 LINE",
"300 600 LINE",
"300 700 LINE",
"200 700 LINE"
);
},
{
closed = 1;
nodes = (
"300 500 LINE",
"400 500 LINE",
"400 600 LINE",
"300 600 LINE"
);
},
{
closed = 1;
nodes = (
"300 300 LINE",
"400 300 LINE",
"400 400 LINE",
"300 400 LINE"
);
},
{
closed = 1;
nodes = (
"400 400 LINE",
"500 400 LINE",
"500 500 LINE",
"400 500 LINE"
);
}
);
width = 700;
}
);
unicode = 2265;
},
{
glyphname = lessequal;
lastChange = "2021-04-25 12:48:22 +0000";
layers = (
{
layerId = "32649BF3-7508-413C-B85E-1CA78B2743BE";
paths = (
{
closed = 1;
nodes = (
"200 0 LINE",
"500 0 LINE",
"500 100 LINE",
"200 100 LINE"
);
},
{
closed = 1;
nodes = (
"400 200 LINE",
"500 200 LINE",
"500 300 LINE",
"400 300 LINE"
);
},
{
closed = 1;
nodes = (
"400 600 LINE",
"500 600 LINE",
"500 700 LINE",
"400 700 LINE"
);
},
{
closed = 1;
nodes = (
"300 500 LINE",
"400 500 LINE",
"400 600 LINE",
"300 600 LINE"
);
},
{
closed = 1;
nodes = (
"300 300 LINE",
"400 300 LINE",
"400 400 LINE",
"300 400 LINE"
);
},
{
closed = 1;
nodes = (
"200 400 LINE",
"300 400 LINE",
"300 500 LINE",
"200 500 LINE"
);
}
);
width = 700;
}
);
unicode = 2264;
},
{
glyphname = approxequal;
lastChange = "2021-04-25 12:30:53 +0000";
layers = (
{
layerId = "32649BF3-7508-413C-B85E-1CA78B2743BE";
paths = (
{
closed = 1;
nodes = (
"250 500 LINE",
"250 400 LINE",
"350 400 LINE",
"350 500 LINE"
);
},
{
closed = 1;
nodes = (
"350 400 LINE",
"350 300 LINE",
"450 300 LINE",
"450 400 LINE"
);
},
{
closed = 1;
nodes = (
"450 400 LINE",
"550 400 LINE",
"550 500 LINE",
"450 500 LINE"
);
},
{
closed = 1;
nodes = (
"250 400 LINE",
"150 400 LINE",
"150 300 LINE",
"250 300 LINE"
);
},
{
closed = 1;
nodes = (
"250 200 LINE",
"250 100 LINE",
"350 100 LINE",
"350 200 LINE"
);
},
{
closed = 1;
nodes = (
"350 100 LINE",
"350 0 LINE",
"450 0 LINE",
"450 100 LINE"
);
},
{
closed = 1;
nodes = (
"450 100 LINE",
"550 100 LINE",
"550 200 LINE",
"450 200 LINE"
);
},
{
closed = 1;
nodes = (
"250 100 LINE",
"150 100 LINE",
"150 0 LINE",
"250 0 LINE"
);
}
);
width = 700;
}
);
unicode = 2248;
},
{
glyphname = asciitilde;
lastChange = "2021-04-25 12:30:35 +0000";
layers = (
{
layerId = "32649BF3-7508-413C-B85E-1CA78B2743BE";
paths = (
{
closed = 1;
nodes = (
"250 400 LINE",
"250 300 LINE",
"350 300 LINE",
"350 400 LINE"
);
},
{
closed = 1;
nodes = (
"350 300 LINE",
"350 200 LINE",
"450 200 LINE",
"450 300 LINE"
);
},
{
closed = 1;
nodes = (
"450 300 LINE",
"550 300 LINE",
"550 400 LINE",
"450 400 LINE"
);
},
{
closed = 1;
nodes = (
"250 300 LINE",
"150 300 LINE",
"150 200 LINE",
"250 200 LINE"
);
}
);
width = 700;
}
);
unicode = 007E;
},
{
glyphname = asciicircum;
lastChange = "2021-04-25 12:31:34 +0000";
layers = (
{
layerId = "32649BF3-7508-413C-B85E-1CA78B2743BE";
paths = (
{
closed = 1;
nodes = (
"300 600 LINE",
"400 600 LINE",
"400 700 LINE",
"300 700 LINE"
);
},
{
closed = 1;
nodes = (
"200 500 LINE",
"300 500 LINE",
"300 600 LINE",
"200 600 LINE"
);
},
{
closed = 1;
nodes = (
"400 500 LINE",
"500 500 LINE",
"500 600 LINE",
"400 600 LINE"
);
},
{
closed = 1;
nodes = (
"500 400 LINE",
"600 400 LINE",
"600 500 LINE",
"500 500 LINE"
);
},
{
closed = 1;
nodes = (
"100 400 LINE",
"200 400 LINE",
"200 500 LINE",
"100 500 LINE"
);
}
);
width = 700;
}
);
unicode = 005E;
},
